<svg width="35" height="44" viewBox="0 0 35 44" fill="none" xmlns="http://www.w3.org/2000/svg">
<g clip-path="url(#clip0_6033_30177)">
<path d="M35.5093 10.1625C35.2016 9.83207 34.6831 9.81231 34.3519 10.1208C33.6578 10.7666 32.8437 11.1991 31.9896 11.4841L27.6064 7.10058C27.2866 6.78042 26.7681 6.78078 26.4483 7.10058C26.1285 7.42039 26.1285 7.93924 26.4483 8.25868L30.0807 11.8914C29.096 11.999 28.1293 11.9715 27.291 11.8881C26.8413 11.8427 26.4392 12.1713 26.3946 12.6217C26.3499 13.0714 26.6781 13.4728 27.1282 13.5178C27.6353 13.5683 28.1838 13.6013 28.7568 13.6013C30.9666 13.6013 33.537 13.1168 35.4679 11.3206C35.7987 11.0114 35.8177 10.4936 35.5093 10.1625Z" fill="white"/>
<path d="M25.6762 12.9257C25.6528 12.8583 23.3842 6.13078 26.7662 2.54088C27.0769 2.21156 27.0612 1.69344 26.7318 1.38315C26.4033 1.07323 25.8848 1.08823 25.5741 1.41755C21.5598 5.67852 23.9714 13.0014 24.124 13.4489C24.2071 13.7124 25.5646 18.2269 22.8865 21.527L15.3006 13.9389C15.9892 13.3966 16.7265 13.0193 17.4748 12.7698L21.7877 17.0849C21.9476 17.2448 22.1573 17.3249 22.3669 17.3249C22.5762 17.3249 22.7863 17.2448 22.9458 17.0853C23.266 16.7655 23.266 16.247 22.9462 15.9268L19.3973 12.3757C20.2824 12.2952 21.1309 12.3406 21.8682 12.4401C22.3132 12.4997 22.7292 12.1865 22.7896 11.7379C22.8503 11.2897 22.5356 10.8773 22.0874 10.8166C20.9882 10.6684 19.3464 10.5948 17.6208 11.0321C17.5311 11.0416 17.4433 11.065 17.3603 11.1038C16.0507 11.4741 14.7071 12.1459 13.5267 13.3186C13.5263 13.319 13.5259 13.3194 13.5252 13.3201C13.5252 13.3201 13.5252 13.3201 13.5248 13.3205C13.5245 13.3208 13.5245 13.3208 13.5245 13.3212C9.47534 17.3484 11.2869 23.3203 11.3799 23.6152C11.3824 23.6233 11.3854 23.6317 11.3879 23.6398C11.411 23.7078 13.6792 30.4354 10.2986 34.0256C9.98871 34.3546 10.0041 34.8727 10.3334 35.1826C10.4915 35.3316 10.6931 35.4055 10.8947 35.4055C11.1128 35.4055 11.3298 35.3191 11.4911 35.1479C15.5018 30.888 13.0934 23.568 12.9397 23.1172C12.8585 22.8582 11.5123 18.3864 14.1355 15.09L21.7123 22.669C21.0299 23.1959 20.301 23.5625 19.5619 23.8059L15.2318 19.4754C14.9123 19.1556 14.3931 19.1556 14.0737 19.4754C13.7535 19.7948 13.7535 20.3137 14.0737 20.6335L17.6336 24.1934C16.7609 24.2695 15.9252 24.2245 15.197 24.126C14.7506 24.066 14.3364 24.3793 14.276 24.8282C14.2153 25.2765 14.5296 25.6888 14.9778 25.7492C15.4608 25.8147 16.0477 25.8656 16.7009 25.8656C18.7123 25.8656 21.3453 25.3763 23.4676 23.3134C23.4756 23.3057 23.4859 23.3002 23.4936 23.2918C23.498 23.2878 23.5002 23.2834 23.5042 23.2793C23.5155 23.268 23.5272 23.2581 23.5386 23.2468C27.595 19.2156 25.7739 13.2356 25.6839 12.9494C25.6817 12.9418 25.6791 12.9337 25.6762 12.9257Z" fill="white"/>
<path d="M9.95726 28.4232L6.30589 24.7715C7.51886 24.5571 8.74209 24.5761 9.77248 24.6789C10.2214 24.7203 10.6236 24.3953 10.6686 23.9449C10.7136 23.4948 10.385 23.0938 9.93494 23.0488C7.84525 22.8417 5.98572 23.0257 4.41452 23.5783C4.41159 23.5794 4.4083 23.5805 4.40574 23.5816C3.32522 23.9628 2.38045 24.5179 1.59704 25.2464C1.2659 25.5549 1.24724 26.073 1.55533 26.4038C1.71669 26.5776 1.93587 26.665 2.15542 26.665C2.3552 26.665 2.55535 26.5926 2.71306 26.4455C3.25313 25.9431 3.86639 25.5713 4.51368 25.2951L8.79917 29.5813C8.95907 29.7412 9.16873 29.821 9.3784 29.821C9.5877 29.821 9.79736 29.7408 9.95726 29.5813C10.2771 29.2619 10.2771 28.743 9.95726 28.4232Z" fill="white"/>
</g>
<defs>
<clipPath id="clip0_6033_30177">
<rect x="0.303467" y="0.057251" width="34.3929" height="42.9911" rx="16.8" fill="white"/>
</clipPath>
</defs>
</svg>
