<svg width="40" height="40" viewBox="0 0 40 40" fill="none" xmlns="http://www.w3.org/2000/svg">
<path d="M20 5C19.2333 5 18.45 5.06667 17.6666 5.23333C13.0666 6.11667 9.39996 9.83333 8.53329 14.4333C7.73329 18.7833 9.33329 22.7833 12.2333 25.3667C12.95 26 13.3333 26.8833 13.3333 27.8167V31.6667C13.3333 33.5 14.8333 35 16.6666 35H17.1333C17.7166 36 18.7666 36.6667 20 36.6667C21.2333 36.6667 22.3 36 22.8666 35H23.3333C25.1666 35 26.6666 33.5 26.6666 31.6667V27.8167C26.6666 26.9 27.0333 26 27.7333 25.3833C30.15 23.25 31.6666 20.1333 31.6666 16.6667C31.6666 10.2167 26.45 5 20 5ZM23.3333 31.6667H16.6666V30H23.3333V31.6667ZM23.3333 28.3333H16.6666V26.6667H23.3333V28.3333ZM20.8333 19.0167V23.3333H19.1666V19.0167L16.1166 15.9833L17.3 14.8L20 17.5L22.7 14.8L23.8833 15.9833L20.8333 19.0167Z" fill="white"/>
</svg>
