<svg width="31" height="34" viewBox="0 0 31 34" fill="none" xmlns="http://www.w3.org/2000/svg">
<path d="M27.2619 18.1686C26.9356 17.7745 26.5797 17.3805 26.2025 16.9864C26.5839 16.5924 26.9398 16.1984 27.2619 15.8043C29.4442 13.1605 30.118 10.7835 29.1518 9.11416C28.1857 7.4448 25.7915 6.83468 22.4099 7.40667C21.9056 7.49141 21.3802 7.61004 20.842 7.74139C19.7614 3.96625 17.9647 1.24188 15.5112 1.24188C13.0577 1.24188 11.2567 3.96625 10.1804 7.74139C9.64646 7.61004 9.121 7.49141 8.6125 7.40667C5.23095 6.83891 2.83673 7.4448 1.87057 9.11416C0.641683 11.2411 2.10787 14.1646 4.84108 16.9864C2.10787 19.8125 0.641683 22.7318 1.87057 24.8587C2.59942 26.1213 4.1419 26.7738 6.31152 26.7738C7.01495 26.7738 7.78194 26.706 8.60826 26.5662C9.11253 26.4815 9.63798 26.3628 10.1719 26.2315C11.2525 30.0066 13.0492 32.731 15.507 32.731C17.9605 32.731 19.7614 30.0066 20.842 26.2315C21.3759 26.3628 21.9014 26.4815 22.4099 26.5662C23.2362 26.706 24.0075 26.7738 24.7066 26.7738C26.8763 26.7738 28.4187 26.1171 29.1476 24.8587C30.1137 23.1894 29.4442 20.8124 27.2619 18.1686ZM8.26926 24.5282C5.90895 24.9265 4.1419 24.6553 3.66306 23.8249C3.11642 22.8758 4.00629 20.8082 6.32422 18.4016C7.20139 19.177 8.15484 19.9354 9.16337 20.6514C9.28203 21.8801 9.45576 23.0792 9.68882 24.2232C9.20575 24.3418 8.72691 24.452 8.26926 24.5282ZM9.00235 17.9652C8.58283 17.6347 8.18874 17.3085 7.81584 16.9822C8.18874 16.656 8.58283 16.3297 9.00235 15.9992C8.99387 16.3255 8.98965 16.656 8.98965 16.9822C8.98965 17.3127 8.99387 17.6389 9.00235 17.9652ZM9.16337 13.3215C8.15484 14.0375 7.20139 14.7959 6.32422 15.5713C4.00629 13.1647 3.11642 11.0971 3.66306 10.148C3.99783 9.57176 4.95126 9.26669 6.29456 9.26669C6.88357 9.26669 7.54888 9.32601 8.26926 9.44888C8.72691 9.52515 9.20575 9.63107 9.68882 9.75394C9.45576 10.8895 9.27779 12.0928 9.16337 13.3215ZM19.6174 11.8385C19.3377 11.6691 19.058 11.4996 18.7741 11.3343C18.4902 11.1691 18.2063 11.0166 17.9224 10.864C18.4054 10.6691 18.8885 10.4869 19.3631 10.3259C19.4564 10.8089 19.5411 11.3131 19.6174 11.8385ZM15.5112 3.30528C16.6045 3.30528 17.952 5.10599 18.8758 8.30914C17.7825 8.67352 16.6511 9.13111 15.5112 9.65226C14.3713 9.12687 13.2441 8.67352 12.1466 8.30914C13.0704 5.10599 14.4179 3.30528 15.5112 3.30528ZM11.6635 10.3259C12.1381 10.4869 12.617 10.6691 13.1043 10.864C12.8204 11.0208 12.5364 11.1733 12.2525 11.3343C11.9686 11.4996 11.6889 11.6648 11.4093 11.8385C11.4813 11.3131 11.5661 10.8089 11.6635 10.3259ZM11.405 22.1301C11.6847 22.2996 11.9644 22.4691 12.2483 22.6343C12.5322 22.7996 12.8161 22.9521 13.1 23.1046C12.617 23.2995 12.1339 23.4817 11.6593 23.6427C11.5661 23.1597 11.4813 22.6555 11.405 22.1301ZM15.5112 30.6634C14.4179 30.6634 13.0704 28.8627 12.1466 25.6595C13.2399 25.2951 14.3713 24.8375 15.5112 24.3164C16.6511 24.8418 17.7783 25.2951 18.8758 25.6595C17.952 28.8627 16.6045 30.6634 15.5112 30.6634ZM19.3589 23.6427C18.8843 23.4817 18.4054 23.2995 17.9181 23.1046C18.202 22.9479 18.4859 22.7953 18.7699 22.6343C19.0538 22.4691 19.3334 22.2996 19.6131 22.1301C19.5411 22.6597 19.4563 23.1597 19.3589 23.6427ZM19.8843 19.5074C19.1979 19.965 18.4817 20.4142 17.7401 20.8421C16.9986 21.27 16.2528 21.6641 15.5112 22.0284C14.7696 21.6641 14.0238 21.27 13.2823 20.8421C12.5238 20.4014 11.8076 19.9566 11.1381 19.5074C11.0872 18.7024 11.0576 17.8593 11.0576 16.9822C11.0576 16.1052 11.0872 15.262 11.1381 14.457C11.8118 14.0079 12.5238 13.563 13.2823 13.1223C14.0238 12.6944 14.7696 12.3004 15.5112 11.936C16.2528 12.3004 16.9986 12.6944 17.7401 13.1223C18.4817 13.5503 19.1979 13.9994 19.8843 14.457C19.9352 15.262 19.9648 16.1009 19.9648 16.978C19.9648 17.8635 19.9352 18.7024 19.8843 19.5074ZM22.7532 9.44465C23.4735 9.32177 24.1388 9.26246 24.7278 9.26246C26.0711 9.26246 27.0246 9.56752 27.3594 10.1437C27.8382 10.9742 27.1898 12.6351 25.6643 14.4824C25.3719 14.8383 25.0499 15.1942 24.7024 15.5543C23.8379 14.7875 22.8845 14.0333 21.8548 13.3088C21.7361 12.0843 21.5624 10.8852 21.3293 9.74547C21.8167 9.62684 22.2955 9.52091 22.7532 9.44465ZM22.0201 16.0119C22.4311 16.334 22.8252 16.6602 23.1981 16.9864C22.8252 17.3127 22.4269 17.6389 22.0201 17.9609C22.0285 17.6347 22.0328 17.3127 22.0328 16.9864C22.0328 16.6602 22.0285 16.334 22.0201 16.0119ZM27.3594 23.8249C26.8805 24.6553 25.1177 24.9265 22.7532 24.5282C22.2955 24.452 21.8167 24.3461 21.3336 24.2232C21.5667 23.0834 21.7404 21.8844 21.859 20.6599C22.8845 19.9354 23.8379 19.1812 24.7024 18.4143C25.0456 18.7702 25.3677 19.1303 25.6643 19.4863C27.1898 21.3293 27.8382 22.9945 27.3594 23.8249Z" fill="white"/>
<path d="M10.2272 5.16104C10.2823 5.18646 10.3416 5.19917 10.4009 5.19917C10.5577 5.19917 10.706 5.11019 10.7781 4.95766L10.8586 4.78395C10.9561 4.57634 10.8671 4.33059 10.6637 4.23314C10.456 4.13569 10.2103 4.22467 10.1128 4.42804L10.028 4.61023C9.93058 4.82208 10.0196 5.06782 10.2272 5.16104Z" fill="white"/>
<path d="M11.689 3.01722C11.8119 3.01722 11.9347 2.96214 12.0195 2.85622C12.0576 2.80537 12.0958 2.75876 12.1339 2.71216C12.278 2.53421 12.2526 2.27575 12.0746 2.13169C11.8966 1.98764 11.6381 2.01306 11.494 2.19101C11.4517 2.24609 11.4093 2.29694 11.3669 2.35202C11.2271 2.53421 11.261 2.79266 11.4432 2.93248C11.5152 2.98756 11.6042 3.01722 11.689 3.01722Z" fill="white"/>
<path d="M6.70209 6.80928L6.89278 6.81776C6.90126 6.81776 6.90973 6.81776 6.91397 6.81776C7.13432 6.81776 7.31652 6.64828 7.325 6.42372C7.33771 6.19492 7.15974 6.00002 6.93515 5.98731L6.73175 5.97884C6.50716 5.96613 6.31223 6.14832 6.30376 6.37711C6.29528 6.61014 6.47326 6.80081 6.70209 6.80928Z" fill="white"/>
<path d="M9.43058 7.15787C9.62127 7.15787 9.79503 7.02229 9.8374 6.82739C9.88402 6.60283 9.73993 6.38674 9.51533 6.34013L9.32039 6.302L9.23988 6.70875L9.19751 7.12397L9.35006 7.15363C9.37549 7.15363 9.40515 7.15787 9.43058 7.15787Z" fill="white"/>
<path d="M2.01421 18.4785C1.88285 18.6649 1.92946 18.9233 2.11591 19.0547C2.18795 19.1055 2.2727 19.1309 2.35321 19.1309C2.48458 19.1309 2.6117 19.0674 2.69221 18.953L2.80239 18.8005C2.93799 18.614 2.89563 18.3556 2.70918 18.2242C2.52273 18.0887 2.26422 18.131 2.13285 18.3174L2.01421 18.4785Z" fill="white"/>
<path d="M0.815799 20.5838L0.739526 20.7702C0.650538 20.9821 0.752251 21.2236 0.964128 21.3083C1.01498 21.3295 1.07006 21.338 1.12091 21.338C1.28194 21.338 1.43871 21.2405 1.50228 21.0795L1.57433 20.9058C1.66332 20.694 1.56585 20.4525 1.35822 20.3635C1.14634 20.2787 0.904787 20.3762 0.815799 20.5838Z" fill="white"/>
<path d="M4.19307 7.02942C4.22697 7.02942 4.25662 7.02518 4.29052 7.01671C4.34985 7.004 4.40917 6.98705 4.47273 6.97434C4.69732 6.92773 4.83716 6.70741 4.79055 6.48285C4.74394 6.25829 4.5236 6.11847 4.29901 6.16508C4.2312 6.17779 4.16339 6.19473 4.09983 6.21168C3.87948 6.26676 3.73965 6.48709 3.79474 6.71164C3.83711 6.90231 4.00661 7.02942 4.19307 7.02942Z" fill="white"/>
<path d="M13.5748 1.33985C13.6426 1.33985 13.7105 1.3229 13.7698 1.289C13.8206 1.25934 13.8715 1.23392 13.9266 1.2085C14.1342 1.11105 14.219 0.86107 14.1215 0.657695C14.024 0.450084 13.774 0.365344 13.5706 0.462795C13.5071 0.492454 13.4435 0.526349 13.3799 0.560245C13.1808 0.670406 13.1045 0.920387 13.2147 1.11952C13.2867 1.26358 13.4308 1.33985 13.5748 1.33985Z" fill="white"/>
<path d="M2.24367 14.3355C2.12502 14.1406 1.87078 14.0813 1.67585 14.1999C1.48092 14.3185 1.42159 14.5728 1.54024 14.7677L1.64618 14.9371C1.7267 15.06 1.85807 15.1278 1.99791 15.1278C2.07419 15.1278 2.15045 15.1066 2.21825 15.0642C2.40894 14.9414 2.46826 14.6872 2.34537 14.4923L2.24367 14.3355Z" fill="white"/>
<path d="M1.95128 8.16427C2.04874 8.16427 2.15045 8.13038 2.23096 8.05835C2.27334 8.02022 2.31995 7.98208 2.36232 7.94395C2.53606 7.79989 2.56149 7.5372 2.41741 7.36349C2.27334 7.18553 2.01062 7.16435 1.83264 7.30841C1.77756 7.35501 1.72247 7.40162 1.67162 7.44823C1.50212 7.60076 1.48941 7.86345 1.64619 8.03293C1.72671 8.11766 1.83687 8.16427 1.95128 8.16427Z" fill="white"/>
<path d="M22.8128 6.94497C22.8297 6.94497 22.8509 6.94497 22.8679 6.94073L23.0585 6.91531C23.2874 6.88565 23.4442 6.67804 23.4145 6.45348C23.3848 6.22892 23.1814 6.06792 22.9526 6.09758L22.7577 6.123C22.5289 6.15266 22.3721 6.36451 22.406 6.58906C22.4314 6.79668 22.6094 6.94497 22.8128 6.94497Z" fill="white"/>
<path d="M27.6477 7.32573C27.7028 7.35116 27.7579 7.37658 27.813 7.402C27.8723 7.43166 27.9316 7.44437 27.991 7.44437C28.1435 7.44437 28.2918 7.35963 28.3639 7.21134C28.4613 7.00372 28.3766 6.75798 28.1732 6.66053C28.1096 6.63087 28.046 6.60121 27.9825 6.57155C27.7748 6.48258 27.5291 6.57579 27.4359 6.7834C27.3426 6.99101 27.4401 7.23252 27.6477 7.32573Z" fill="white"/>
<path d="M29.4916 8.91575C29.5678 9.0471 29.7077 9.12337 29.8517 9.12337C29.9238 9.12337 29.9916 9.10642 30.0594 9.06828C30.2585 8.95389 30.3263 8.69967 30.2119 8.50477C30.178 8.44545 30.1399 8.3819 30.1017 8.32258C29.9788 8.13191 29.7246 8.07684 29.5297 8.19971C29.339 8.32258 29.2839 8.58103 29.4068 8.7717C29.4322 8.8183 29.4619 8.86915 29.4916 8.91575Z" fill="white"/>
<path d="M29.9739 13.2695C30.1391 13.2695 30.3002 13.1678 30.3595 13.0025C30.3849 12.939 30.4061 12.8712 30.4315 12.8076C30.5035 12.5916 30.3891 12.3543 30.173 12.2823C29.9569 12.206 29.7196 12.3246 29.6476 12.5407C29.6264 12.6 29.6052 12.6551 29.584 12.7144C29.5035 12.9305 29.6137 13.1678 29.8256 13.2483C29.8764 13.261 29.9272 13.2695 29.9739 13.2695Z" fill="white"/>
<path d="M29.9396 10.2289C29.948 10.2882 29.9523 10.3475 29.9608 10.4068C29.9819 10.6229 30.1599 10.7839 30.3718 10.7839C30.3845 10.7839 30.3972 10.7839 30.4099 10.7839C30.6388 10.7627 30.804 10.5594 30.7829 10.3348C30.7744 10.2628 30.7659 10.195 30.7574 10.123C30.7278 9.8984 30.5243 9.7374 30.2913 9.7713C30.0667 9.79672 29.9057 10.0043 29.9396 10.2289Z" fill="white"/>
<path d="M29.6697 21.4806C29.729 21.6543 29.89 21.7645 30.0638 21.7645C30.1061 21.7645 30.1527 21.756 30.1951 21.7433C30.4112 21.6713 30.5299 21.434 30.4536 21.2179C30.4324 21.1544 30.407 21.0866 30.3858 21.023C30.3095 20.8069 30.068 20.6968 29.8561 20.7773C29.64 20.8578 29.5298 21.095 29.6103 21.3069C29.6315 21.3662 29.6485 21.4255 29.6697 21.4806Z" fill="white"/>
<path d="M18.1765 1.94955C18.257 2.02158 18.3544 2.05547 18.4519 2.05547C18.5663 2.05547 18.6765 2.00887 18.7613 1.91989C18.9138 1.75041 18.9011 1.48772 18.7316 1.33519C18.6807 1.28858 18.6257 1.24198 18.5748 1.19961C18.4011 1.05131 18.1383 1.0725 17.99 1.25045C17.8417 1.42417 17.8629 1.68686 18.0409 1.83515C18.0832 1.86905 18.1299 1.91142 18.1765 1.94955Z" fill="white"/>
<path d="M15.9777 0.877532C16.037 0.886006 16.0921 0.894479 16.1514 0.902953C16.1768 0.90719 16.2022 0.911427 16.2234 0.911427C16.4184 0.911427 16.5921 0.771607 16.6302 0.57247C16.6726 0.347911 16.5201 0.131826 16.2955 0.093693C16.2234 0.0809821 16.1514 0.0682708 16.0836 0.0597969C15.859 0.0301381 15.6514 0.191143 15.6217 0.415702C15.592 0.640261 15.7531 0.847873 15.9777 0.877532Z" fill="white"/>
<path d="M19.6639 3.83799C19.7402 3.96933 19.88 4.04136 20.0198 4.04136C20.0919 4.04136 20.1639 4.02441 20.2275 3.98628C20.4266 3.87188 20.4902 3.61766 20.3758 3.41853L20.2741 3.24481C20.1555 3.04991 19.9012 2.98636 19.7063 3.10499C19.5113 3.22363 19.4478 3.47784 19.5664 3.67274L19.6639 3.83799Z" fill="white"/>
<path d="M25.3251 6.8185C25.3886 6.82274 25.4479 6.82697 25.5115 6.83121C25.5242 6.83121 25.5327 6.83121 25.5454 6.83121C25.7573 6.83121 25.9395 6.66597 25.9564 6.44988C25.9734 6.22109 25.8039 6.02195 25.5751 6.005C25.5073 6.00077 25.4395 5.99653 25.3717 5.99229C25.1344 5.97958 24.9479 6.1533 24.9352 6.38209C24.9225 6.61089 25.0962 6.80579 25.3251 6.8185Z" fill="white"/>
<path d="M20.7109 6.07572C20.7745 6.24096 20.9312 6.34265 21.0965 6.34265C21.1431 6.34265 21.194 6.33417 21.2406 6.31723C21.4525 6.23672 21.5627 5.99945 21.4821 5.78337L21.4101 5.59694C21.3254 5.38509 21.088 5.27917 20.8719 5.36391C20.6601 5.44865 20.5541 5.68592 20.6389 5.902L20.7109 6.07572Z" fill="white"/>
<path d="M0.633051 10.3264C0.658476 10.3307 0.688139 10.3349 0.713563 10.3349C0.904247 10.3349 1.07799 10.1993 1.12036 10.0044C1.13308 9.94933 1.14577 9.89001 1.15849 9.83493C1.21357 9.6146 1.08221 9.39005 0.861862 9.33073C0.641517 9.27141 0.416959 9.40699 0.357635 9.62732C0.340686 9.69511 0.323716 9.76714 0.311004 9.83916C0.264392 10.0637 0.408469 10.284 0.633051 10.3264Z" fill="white"/>
<path d="M0.734834 11.8423C0.514483 11.9016 0.387361 12.1304 0.446686 12.3507C0.463636 12.4185 0.48483 12.4863 0.506017 12.5541C0.561105 12.732 0.726365 12.8422 0.900103 12.8422C0.942478 12.8422 0.984844 12.838 1.02298 12.821C1.23909 12.7532 1.36199 12.5202 1.29419 12.2999C1.27724 12.2405 1.26029 12.1855 1.24334 12.1261C1.18402 11.9101 0.955184 11.783 0.734834 11.8423Z" fill="white"/>
<path d="M3.52324 17.1557C3.6207 17.1557 3.71817 17.1218 3.79444 17.0541C3.96818 16.9058 3.98512 16.6431 3.83681 16.4694L3.70969 16.3211C3.56138 16.1473 3.29866 16.1304 3.12492 16.2787C2.95119 16.427 2.93001 16.6897 3.08256 16.8634L3.21392 17.0117C3.29443 17.1091 3.40883 17.1557 3.52324 17.1557Z" fill="white"/>
<path d="M27.0838 26.855C27.0288 26.8719 26.9694 26.8889 26.9101 26.9058C26.6898 26.9651 26.5627 27.1939 26.622 27.4142C26.6728 27.5964 26.8381 27.7193 27.0203 27.7193C27.0584 27.7193 27.0923 27.7151 27.1305 27.7024C27.1983 27.6854 27.2661 27.6642 27.3296 27.643C27.55 27.5753 27.6686 27.3422 27.6008 27.1261C27.533 26.9101 27.3042 26.7872 27.0838 26.855Z" fill="white"/>
<path d="M28.5759 19.3129C28.6564 19.4358 28.7877 19.4994 28.9233 19.4994C28.9996 19.4994 29.0801 19.4782 29.1479 19.4316C29.3386 19.3045 29.3937 19.0503 29.2666 18.8596L29.1564 18.6943C29.0293 18.5037 28.7708 18.4528 28.5801 18.5799C28.3894 18.7071 28.3386 18.9655 28.4657 19.1562L28.5759 19.3129Z" fill="white"/>
<path d="M21.5712 27.2278C21.5288 27.4523 21.6771 27.6684 21.9017 27.7108L22.0966 27.7447L22.1687 27.3379L22.211 26.927L22.05 26.8973C21.8297 26.8549 21.6136 27.0032 21.5712 27.2278Z" fill="white"/>
<path d="M24.6991 27.1685L24.5127 27.1642C24.2881 27.1727 24.0932 27.3422 24.0889 27.571C24.0847 27.7998 24.2669 27.9905 24.4957 27.9947L24.6991 27.9989C24.9279 27.9989 25.1102 27.8125 25.1144 27.5879C25.1144 27.3549 24.9279 27.1727 24.6991 27.1685Z" fill="white"/>
<path d="M20.9441 28.4439C20.7364 28.3549 20.4907 28.4523 20.4017 28.6599L20.3254 28.8337C20.2322 29.0413 20.3254 29.287 20.5373 29.3802C20.5924 29.4056 20.6474 29.4141 20.7025 29.4141C20.8593 29.4141 21.0119 29.3209 21.0797 29.1684L21.1602 28.9862C21.2534 28.7786 21.1559 28.5328 20.9441 28.4439Z" fill="white"/>
<path d="M29.0421 25.6647C29.004 25.707 28.9616 25.7494 28.9235 25.7918C28.7625 25.9528 28.7625 26.2155 28.9235 26.3765C29.004 26.457 29.11 26.4994 29.2159 26.4994C29.3218 26.4994 29.4278 26.457 29.5083 26.3765C29.5591 26.3256 29.61 26.2706 29.6566 26.2197C29.8091 26.0502 29.7964 25.7875 29.6269 25.635C29.4574 25.4825 29.1989 25.4952 29.0421 25.6647Z" fill="white"/>
<path d="M29.1266 15.3258L29.241 15.1563C29.3681 14.9657 29.313 14.7072 29.1223 14.5843C28.9316 14.4615 28.6732 14.5123 28.5503 14.703L28.4443 14.8597C28.3172 15.0504 28.3638 15.3046 28.5545 15.436C28.6266 15.4826 28.7071 15.508 28.7876 15.508C28.9147 15.508 29.0461 15.4444 29.1266 15.3258Z" fill="white"/>
<path d="M30.4105 23.2489C30.1816 23.2234 29.9782 23.3887 29.9528 23.6132C29.9443 23.6726 29.9401 23.7319 29.9316 23.7912C29.8977 24.0157 30.0545 24.2276 30.2791 24.2615C30.3003 24.2657 30.3215 24.2657 30.3426 24.2657C30.5418 24.2657 30.7198 24.1174 30.7537 23.9141C30.7622 23.8463 30.7706 23.7742 30.7791 23.7065C30.8045 23.4777 30.6393 23.2743 30.4105 23.2489Z" fill="white"/>
<path d="M27.0248 16.657L26.9782 16.7121C26.8383 16.8689 26.8383 17.1104 26.9782 17.2671L27.0587 17.3561C27.1392 17.4493 27.2536 17.4959 27.368 17.4959C27.4655 17.4959 27.563 17.462 27.6435 17.39C27.7833 17.2671 27.8172 17.068 27.7452 16.907C27.7367 16.8053 27.6943 16.7036 27.6096 16.6316C27.4401 16.4748 27.1774 16.4875 27.0248 16.657Z" fill="white"/>
<path d="M8.53204 26.9725L8.34135 27.0021C8.11676 27.036 7.95997 27.2479 7.99387 27.4724C8.02353 27.6758 8.20152 27.8241 8.40492 27.8241C8.42611 27.8241 8.44728 27.8241 8.46847 27.8198L8.66765 27.7902C8.89224 27.7521 9.04479 27.5402 9.01089 27.3156C8.96851 27.0869 8.76087 26.9343 8.53204 26.9725Z" fill="white"/>
<path d="M6.07869 27.1667L5.888 27.1625C5.64222 27.154 5.46848 27.3319 5.46001 27.5607C5.45153 27.7895 5.62951 27.9802 5.85833 27.9887L6.06172 27.9929C6.06596 27.9929 6.06597 27.9929 6.07021 27.9929C6.29479 27.9929 6.48123 27.815 6.48547 27.5862C6.48547 27.3616 6.30751 27.1709 6.07869 27.1667Z" fill="white"/>
<path d="M1.04445 23.2094C1.04445 22.9806 0.857975 22.7942 0.629144 22.7942C0.400314 22.7942 0.213867 22.9806 0.213867 23.2094C0.213867 23.2814 0.213871 23.3535 0.218109 23.4213C0.226584 23.6416 0.408789 23.8153 0.629144 23.8153C0.633382 23.8153 0.641874 23.8153 0.646111 23.8153C0.874942 23.8068 1.05292 23.6119 1.04021 23.3831C1.04868 23.3238 1.04445 23.2687 1.04445 23.2094Z" fill="white"/>
<path d="M3.70955 26.778C3.65023 26.7569 3.59513 26.7357 3.54004 26.7145C3.32817 26.6298 3.08666 26.7357 3.00191 26.9475C2.91717 27.1594 3.02309 27.4009 3.23496 27.4856C3.29852 27.511 3.36633 27.5365 3.42989 27.5576C3.4765 27.5746 3.5231 27.5831 3.56971 27.5831C3.7392 27.5831 3.90024 27.4771 3.95957 27.3077C4.04008 27.0916 3.92566 26.8543 3.70955 26.778Z" fill="white"/>
<path d="M1.72677 25.3504C1.59541 25.164 1.33268 25.1216 1.15046 25.253C0.964008 25.3843 0.921615 25.6428 1.05298 25.8292C1.09536 25.8885 1.13773 25.9436 1.18435 26.0029C1.26486 26.1046 1.38775 26.1597 1.50641 26.1597C1.5954 26.1597 1.68862 26.13 1.7649 26.0707C1.94288 25.9267 1.97255 25.6682 1.82847 25.4903C1.79457 25.4437 1.75643 25.397 1.72677 25.3504Z" fill="white"/>
<path d="M10.4523 28.2542C10.3676 28.0423 10.126 27.9364 9.91417 28.0211C9.70229 28.1059 9.59636 28.3474 9.68111 28.5592L9.75738 28.7457C9.82518 28.9024 9.97771 28.9999 10.1387 28.9999C10.1938 28.9999 10.2447 28.9914 10.2998 28.966C10.5116 28.877 10.6091 28.6355 10.5201 28.4236L10.4523 28.2542Z" fill="white"/>
<path d="M19.2275 30.812C19.1936 30.8628 19.1555 30.9137 19.1173 30.9645C18.9817 31.1467 19.0199 31.4094 19.2063 31.545C19.2784 31.6001 19.3674 31.6255 19.4521 31.6255C19.5792 31.6255 19.7064 31.5662 19.7869 31.456C19.825 31.4009 19.8674 31.3458 19.9055 31.2908C20.0369 31.1043 19.9903 30.8459 19.8038 30.7145C19.6131 30.5832 19.3546 30.6256 19.2275 30.812Z" fill="white"/>
<path d="M15.3974 33.1216C15.3381 33.1216 15.2788 33.1174 15.2237 33.1132C15.0033 33.0962 14.7957 33.2657 14.7788 33.4945C14.7618 33.7233 14.9313 33.9224 15.1601 33.9394C15.2322 33.9436 15.3042 33.9479 15.3762 33.9521C15.3805 33.9521 15.3847 33.9521 15.3889 33.9521C15.6093 33.9521 15.7957 33.7741 15.8042 33.5496C15.8042 33.3208 15.6262 33.1301 15.3974 33.1216Z" fill="white"/>
<path d="M17.5621 32.4937C17.5113 32.5275 17.4604 32.5572 17.4096 32.5869C17.2146 32.7055 17.1468 32.9597 17.2655 33.1546C17.3418 33.286 17.4816 33.358 17.6214 33.358C17.6935 33.358 17.7655 33.341 17.8333 33.2987C17.8927 33.2648 17.952 33.2266 18.0113 33.1885C18.202 33.0656 18.2571 32.8072 18.1342 32.6165C18.007 32.4259 17.7528 32.3708 17.5621 32.4937Z" fill="white"/>
<path d="M11.5579 30.45C11.435 30.2551 11.1807 30.2001 10.9858 30.3229C10.7951 30.4458 10.7358 30.7 10.8587 30.8949L10.9689 31.0644C11.0494 31.183 11.1807 31.2508 11.3163 31.2508C11.3926 31.2508 11.4731 31.2296 11.5452 31.183C11.7358 31.0559 11.7867 30.8017 11.6638 30.611L11.5579 30.45Z" fill="white"/>
<path d="M13.1258 32.2531C12.9436 32.1133 12.6851 32.143 12.5453 32.3252C12.4054 32.5031 12.4351 32.7658 12.6173 32.9056C12.6724 32.948 12.7275 32.9904 12.7826 33.0327C12.8546 33.0878 12.9436 33.1132 13.0284 33.1132C13.1555 33.1132 13.2826 33.0539 13.3631 32.9438C13.4987 32.7616 13.4564 32.4989 13.2741 32.3675C13.2233 32.3294 13.1724 32.2913 13.1258 32.2531Z" fill="white"/>
<path d="M15.5117 20.1437C17.2552 20.1437 18.6687 18.7305 18.6687 16.9872C18.6687 15.2439 17.2552 13.8306 15.5117 13.8306C13.7681 13.8306 12.3547 15.2439 12.3547 16.9872C12.3547 18.7305 13.7681 20.1437 15.5117 20.1437Z" fill="white"/>
</svg>
