<svg width="16" height="16" viewBox="0 0 16 16" fill="none" xmlns="http://www.w3.org/2000/svg">
<path d="M8.66634 7.66658H7.33301V4.99992H8.66634V7.66658ZM8.66634 8.99992H7.33301V10.3333H8.66634V8.99992ZM14.6663 3.66659V11.6666C14.6663 12.0202 14.5259 12.3593 14.2758 12.6094C14.0258 12.8594 13.6866 12.9999 13.333 12.9999H3.99967L1.33301 15.6666V3.66659C1.33301 3.31296 1.47348 2.97382 1.72353 2.72378C1.97358 2.47373 2.31272 2.33325 2.66634 2.33325H13.333C13.6866 2.33325 14.0258 2.47373 14.2758 2.72378C14.5259 2.97382 14.6663 3.31296 14.6663 3.66659ZM13.333 3.66659H2.66634V12.4666L3.46634 11.6666H13.333V3.66659Z" fill="black"/>
</svg>
