<svg width="375" height="609" viewBox="0 0 375 609" fill="none" xmlns="http://www.w3.org/2000/svg">
<g clip-path="url(#clip0_30_2208)">
<rect width="375" height="609" fill="white"/>
<g clip-path="url(#clip1_30_2208)">
<rect width="375" height="609" fill="#2F4858"/>
<path opacity="0.04" d="M339.063 550.867C299.465 573.729 258.948 590.248 217.512 600.425C176.293 609.789 139.418 611.834 106.889 606.559C90.0015 604.624 76.9447 595.667 67.7186 579.687C61.4686 568.862 59.1971 557.802 60.9039 546.506C62.8273 534.399 68.1602 525.821 76.9026 520.774C86.1592 515.43 98.7847 512.951 114.779 513.339C146.118 516.553 175.956 514.79 204.293 508.053C232.63 501.315 261.454 489.484 290.767 472.561C328.307 450.887 353.385 427.816 366.001 403.35C378.319 378.368 377.186 353.247 362.603 327.988C351.293 308.4 333.149 298.943 308.169 299.619C283.406 299.483 246.341 307.136 196.975 322.578C146.065 338.912 102.749 348.8 67.0242 352.242C31.2997 355.685 0.434334 351.511 -25.5719 339.72C-51.5781 327.929 -73.5097 306.569 -91.3668 275.64C-109.819 243.68 -117.337 209.874 -113.922 174.224C-110.506 138.573 -96.874 104.585 -73.0258 72.2585C-48.961 39.1198 -16.8726 10.9711 23.2393 -12.1875C96.7778 -54.645 167.998 -69.646 236.9 -57.1903C246.859 -55.3798 254.761 -52.3816 260.606 -48.1957C266.668 -44.8222 272.08 -39.0116 276.842 -30.7638C283.092 -19.9386 285.255 -8.47215 283.331 3.63542C281.624 14.9306 276.4 23.1019 267.658 28.1493C262.515 31.1183 257.183 33.1657 251.662 34.2914C246.655 35.1202 239.361 35.551 229.781 35.5837C199.768 32.2922 172.65 32.8277 148.428 37.1902C124.422 40.7403 98.0195 50.8287 69.2212 67.4554C34.2518 87.645 10.6486 110.895 -1.5883 137.205C-13.6086 162.702 -12.3271 188.08 2.2561 213.339C14.4584 234.474 32.8328 245.516 57.3793 246.465C81.9258 247.414 118.625 240.316 167.477 225.17C219.198 209.055 262.921 199.277 298.646 195.834C334.587 191.579 365.669 194.941 391.892 205.919C418.629 216.6 440.479 236.632 457.444 266.015C475.896 297.975 483.265 331.523 479.552 366.658C476.055 400.981 462.126 434.454 437.763 467.077C413.618 498.888 380.717 526.818 339.063 550.867Z" fill="white"/>
</g>
</g>
<defs>
<clipPath id="clip0_30_2208">
<rect width="375" height="609" fill="white"/>
</clipPath>
<clipPath id="clip1_30_2208">
<rect width="375" height="609" fill="white"/>
</clipPath>
</defs>
</svg>
