<svg width="269" height="229" viewBox="0 0 269 229" fill="none" xmlns="http://www.w3.org/2000/svg">
<g filter="url(#filter0_d_25_3959)">
<path d="M188.717 219.031C170.948 211.706 163.022 192.54 159.64 174.48C159.079 171.468 158.047 168.388 158.883 165.444C159.719 162.499 162.646 159.969 165.614 160.631C168.065 161.192 169.607 163.553 171.329 165.416C173.624 167.897 176.574 169.68 179.838 170.559C181.964 171.12 184.454 171.204 186.103 169.746C188.347 167.749 187.881 164.137 187.197 161.142L183.394 144.528C182.71 141.555 182.025 138.515 182.323 135.486C182.62 132.458 184.084 129.378 186.737 127.954C189.39 126.529 193.254 127.393 194.5 130.163C195.021 131.324 195.06 132.637 195.408 133.854C195.756 135.071 196.648 136.305 197.899 136.389C199.149 136.473 200.142 135.369 200.86 134.297C203.266 130.612 204.489 126.276 205.577 121.991C206.665 117.706 207.686 113.348 209.745 109.45C211.803 105.551 215.079 102.096 219.28 100.907C223.481 99.7182 228.613 101.339 230.621 105.282C232.629 109.225 231.137 114.038 229.23 118.026C226.398 123.943 222.728 129.422 218.332 134.292C217.541 135.167 216.683 136.109 216.571 137.292C216.363 139.418 218.685 140.972 220.789 141.191C223.172 141.432 225.528 140.669 227.906 140.422C230.285 140.175 233.033 140.647 234.396 142.666C236.292 145.437 234.458 149.189 232.422 151.836C228.335 157.13 223.37 161.684 217.743 165.298C215.729 166.588 213.581 167.805 212.134 169.734C210.687 171.664 210.244 174.575 211.775 176.437C213.306 178.299 216.195 178.355 218.394 177.424C220.592 176.493 222.37 174.782 224.373 173.498C228.119 171.041 233.459 170.133 236.869 173.1C239.113 175.041 239.977 178.243 239.724 181.205C239.472 184.166 238.232 186.948 236.847 189.568C232.006 198.716 224.99 206.77 216.234 212.172C207.479 217.573 198.886 220.417 188.694 219.071" fill="#F5F5F5"/>
<path d="M190.82 206.764C191.443 197.128 193.008 186.628 195.016 175.696C195.528 172.97 196.035 170.276 196.536 167.614C197.041 164.961 197.54 162.33 198.185 159.761C199.441 154.882 200.965 150.075 202.75 145.363C204.433 140.876 206.172 136.636 207.838 132.704C209.504 128.772 211.147 125.137 212.774 121.89C215.316 116.749 218.263 111.819 221.585 107.144C222.758 105.489 223.711 104.239 224.39 103.397C224.709 102.999 224.951 102.685 225.141 102.444C225.223 102.332 225.315 102.229 225.416 102.135C225.352 102.257 225.277 102.374 225.192 102.483C225.012 102.724 224.777 103.044 224.48 103.465C223.857 104.328 222.931 105.602 221.787 107.273C218.542 111.982 215.654 116.928 213.149 122.069C211.551 125.323 209.947 128.957 208.292 132.889C206.637 136.821 204.927 141.044 203.244 145.548C201.481 150.248 199.974 155.039 198.729 159.902C198.089 162.431 197.607 165.039 197.091 167.698C196.575 170.357 196.093 173.055 195.577 175.781C193.569 186.701 191.998 197.179 191.348 206.781" fill="#E0E0E0"/>
<path d="M198.359 159.728C198.13 159.347 197.942 158.942 197.798 158.522C197.461 157.737 197.007 156.581 196.469 155.156C195.386 152.285 194.034 148.274 192.542 143.843C191.05 139.412 189.654 135.43 188.532 132.58C187.971 131.156 187.517 130.012 187.186 129.215C186.99 128.814 186.837 128.393 186.731 127.959C186.99 128.323 187.208 128.714 187.382 129.125C187.775 129.888 188.291 131.016 188.897 132.423C190.119 135.228 191.594 139.221 193.07 143.641C194.545 148.061 195.829 151.976 196.828 154.999C197.293 156.362 197.68 157.512 197.994 158.432C198.165 158.849 198.287 159.283 198.359 159.728Z" fill="#E0E0E0"/>
<path d="M235.031 144.062C234.553 144.285 234.055 144.462 233.544 144.59C232.585 144.893 231.188 145.33 229.483 145.919C226.062 147.08 221.395 148.841 216.33 151.018C211.266 153.194 206.767 155.37 203.559 157.03C201.949 157.855 200.665 158.55 199.773 159.033C199.325 159.308 198.851 159.541 198.359 159.728C198.768 159.393 199.205 159.095 199.666 158.836C200.524 158.304 201.786 157.546 203.374 156.677C206.543 154.916 211.03 152.683 216.106 150.507C220.437 148.63 224.86 146.975 229.36 145.549C231.087 144.988 232.507 144.629 233.488 144.388C233.992 144.236 234.508 144.127 235.031 144.062Z" fill="#E0E0E0"/>
<path d="M191.157 205.956C191.157 205.956 191.017 205.827 190.787 205.547L189.828 204.33C188.998 203.253 187.837 201.654 186.423 199.669C183.619 195.698 179.878 190.089 175.856 183.84C171.835 177.592 168.161 171.955 165.424 167.933L162.17 163.171L161.295 161.87C161.179 161.727 161.087 161.566 161.021 161.393C161.157 161.516 161.279 161.653 161.385 161.803L162.35 163.042C163.18 164.119 164.341 165.718 165.749 167.703C168.553 171.674 172.294 177.283 176.322 183.532C180.349 189.78 184.017 195.417 186.749 199.444C188.089 201.396 189.189 203.006 190.002 204.201C190.355 204.717 190.641 205.149 190.882 205.502C190.995 205.639 191.088 205.792 191.157 205.956Z" fill="#E0E0E0"/>
<path d="M238.35 178.255C238.215 178.383 238.062 178.491 237.896 178.574L236.527 179.399L231.479 182.377C227.216 184.89 221.383 188.429 214.905 192.35C208.426 196.271 202.565 199.759 198.235 202.182C196.076 203.399 194.309 204.364 193.092 204.987L191.673 205.716C191.512 205.812 191.341 205.887 191.162 205.94C191.162 205.94 191.308 205.811 191.616 205.615L192.985 204.796L198.033 201.818C202.296 199.305 208.129 195.766 214.607 191.845C221.086 187.924 226.947 184.436 231.277 182.007C233.437 180.795 235.203 179.831 236.421 179.203L237.84 178.468C238.001 178.377 238.172 178.305 238.35 178.255Z" fill="#E0E0E0"/>
<path d="M162.242 16.9924C162.748 17.2407 163.229 17.5375 163.678 17.8786C164.542 18.4395 165.72 19.2809 166.993 20.2232C168.266 21.1655 169.399 22.0573 170.201 22.7248C170.652 23.0555 171.067 23.4313 171.441 23.8465C170.946 23.5763 170.48 23.2569 170.05 22.893L166.797 20.4756L163.538 18.0525C163.071 17.7446 162.636 17.3894 162.242 16.9924Z" fill="#E0E0E0"/>
<path d="M237.649 73.9058C239.346 75.2139 240.975 76.6086 242.529 78.0844C244.156 79.4781 245.71 80.9553 247.184 82.5099C247.123 82.5828 244.941 80.7094 242.304 78.3368C239.668 75.9642 237.582 73.9731 237.649 73.9058Z" fill="#E0E0E0"/>
<path d="M162.242 82.5103C163.644 81.0199 165.125 79.6062 166.679 78.2755C168.163 76.8664 169.721 75.5371 171.345 74.2932C169.944 75.7836 168.463 77.1973 166.909 78.528C164.39 80.7996 162.304 82.5832 162.242 82.5103Z" fill="#E0E0E0"/>
<path d="M23.9774 159.01C23.8933 158.976 25.7162 154.859 28.0439 149.828C30.3716 144.797 32.3235 140.741 32.4076 140.775C32.4918 140.809 30.6689 144.926 28.3355 149.963C26.0022 154.999 24.0559 159.049 23.9774 159.01Z" fill="#E0E0E0"/>
<path d="M32.2783 182.18C32.399 181.977 32.542 181.789 32.7046 181.619L33.9554 180.211C35.0043 178.994 36.4514 177.311 37.9826 175.393C39.5138 173.475 40.8488 171.702 41.8023 170.412L42.9241 168.881C43.052 168.678 43.2025 168.49 43.3728 168.32C43.2843 168.537 43.1694 168.743 43.0306 168.931C42.7895 169.313 42.4361 169.863 41.9818 170.524C41.0731 171.859 39.7382 173.66 38.2294 175.572C36.7206 177.485 35.2118 179.157 34.1124 180.334C33.5515 180.895 33.1084 181.394 32.7887 181.709C32.6388 181.886 32.4673 182.044 32.2783 182.18Z" fill="#E0E0E0"/>
<path d="M41.0957 203.802C41.2587 203.545 41.4466 203.304 41.6566 203.084C42.0492 202.591 42.5596 201.962 43.171 201.205C44.4498 199.612 46.211 197.413 48.09 194.929C49.969 192.444 51.6124 190.161 52.7959 188.495L54.1926 186.527C54.3548 186.274 54.5428 186.039 54.7534 185.825C54.6289 186.096 54.4806 186.355 54.3103 186.599C54.0075 187.082 53.5644 187.777 52.9922 188.63C51.8705 190.313 50.2439 192.64 48.3593 195.125C46.4747 197.61 44.6854 199.797 43.3561 201.351C42.6942 202.125 42.1502 202.748 41.7632 203.168C41.5606 203.4 41.3372 203.612 41.0957 203.802Z" fill="#E0E0E0"/>
<path d="M16.8369 55.9458C16.5808 56.32 16.2836 56.6643 15.9507 56.9722C15.3898 57.578 14.5765 58.3913 13.6734 59.2831C12.7704 60.1749 11.9403 60.9658 11.3345 61.5267C11.0219 61.8523 10.6738 62.1421 10.2969 62.3905C10.5474 62.0136 10.8431 61.6689 11.1775 61.364C11.7384 60.7639 12.5517 59.945 13.4603 59.0532C14.369 58.1613 15.1935 57.3705 15.8048 56.8096C16.1129 56.4813 16.4595 56.1913 16.8369 55.9458Z" fill="#E0E0E0"/>
<path d="M52.667 55.8511C53.0412 56.1071 53.3855 56.4044 53.6934 56.7373C54.2992 57.2982 55.1125 58.1115 56.0043 59.0145C56.8961 59.9175 57.687 60.7421 58.2479 61.3534C58.5751 61.6646 58.8649 62.0129 59.1117 62.3911C58.7365 62.1383 58.3921 61.8428 58.0852 61.5105C57.4851 60.9496 56.6662 60.1307 55.7743 59.2277C54.8825 58.3246 54.0917 57.4945 53.5308 56.8831C53.2025 56.575 52.9125 56.2285 52.667 55.8511Z" fill="#E0E0E0"/>
<path d="M52.5654 18.4447C52.8198 18.0691 53.1172 17.7246 53.4516 17.4182C54.0125 16.8125 54.8258 15.9936 55.7289 15.1073C56.6319 14.2211 57.4564 13.4247 58.0678 12.8638C58.3771 12.5345 58.7255 12.2444 59.1054 12C58.8516 12.3726 58.5561 12.715 58.2248 13.0208C57.6639 13.6266 56.845 14.4455 55.942 15.3373C55.039 16.2291 54.2088 17.02 53.5975 17.5809C53.2894 17.9092 52.9429 18.1992 52.5654 18.4447Z" fill="#E0E0E0"/>
<path d="M94.7617 19.0447C94.5067 19.4215 94.2094 19.7677 93.8755 20.0767C93.3146 20.6769 92.5013 21.4958 91.5983 22.382C90.6952 23.2682 89.8707 24.0647 89.2593 24.6256C88.9481 24.9528 88.5999 25.2426 88.2217 25.4893C88.4744 25.1142 88.7699 24.7697 89.1023 24.4629C89.6632 23.8571 90.4821 23.0382 91.3851 22.152C92.2882 21.2658 93.1183 20.4693 93.7296 19.9084C94.0377 19.5801 94.3843 19.2901 94.7617 19.0447Z" fill="#E0E0E0"/>
<path d="M130.592 18.9541C130.967 19.2084 131.312 19.5059 131.618 19.8403C132.224 20.4012 133.043 21.2145 133.929 22.1175C134.815 23.0206 135.612 23.8451 136.173 24.4565C136.501 24.7647 136.79 25.1133 137.031 25.4941C136.66 25.2385 136.317 24.9432 136.01 24.6135C135.404 24.0526 134.585 23.2337 133.694 22.3307C132.802 21.4276 132.011 20.5975 131.45 19.9861C131.124 19.6777 130.836 19.3312 130.592 18.9541Z" fill="#E0E0E0"/>
<path d="M101.912 101.306L98.2578 101.232C99.2099 106.695 100.162 112.157 101.114 117.617C128.757 118.078 156.271 106.258 171.629 87.2698L101.912 101.306Z" fill="#EB996E"/>
<path d="M74.625 101.093C76.1618 101.093 103.977 95.9773 103.977 95.9773L109.232 121.156L82.6121 138.908L74.625 101.093Z" fill="#5B737C"/>
<path d="M124.763 100.037C124.763 100.037 103.797 103.335 97.6722 111.58C91.5472 119.825 85.6579 121.709 88.4848 141.733C88.4848 141.733 113.927 150.45 113.927 151.156C113.927 151.863 118.975 220.511 118.975 220.511H188.918L183.87 138.671L207.181 122.82C207.181 122.82 197.399 87.7025 176.158 89.4525C144.961 92.027 124.763 100.037 124.763 100.037Z" fill="#E90038"/>
<path d="M161.48 178.573C161.463 178.681 161.433 178.787 161.39 178.887L161.07 179.768C160.93 180.155 160.75 180.62 160.509 181.148C160.268 181.675 160.033 182.269 159.707 182.942C159.382 183.615 159.045 184.317 158.63 185.068C158.215 185.82 157.755 186.611 157.267 187.441C156.162 189.216 154.952 190.924 153.644 192.556C152.318 194.175 150.899 195.715 149.392 197.167C148.686 197.823 148.018 198.451 147.356 198.995C146.694 199.539 146.083 200.05 145.5 200.493C144.916 200.936 144.378 201.317 143.912 201.654C143.447 201.99 143.026 202.265 142.684 202.478L141.888 202.977C141.798 203.039 141.702 203.092 141.602 203.135C141.602 203.135 141.68 203.056 141.854 202.927L142.617 202.366C142.953 202.136 143.363 201.85 143.823 201.497C144.283 201.143 144.815 200.773 145.376 200.308C145.937 199.842 146.56 199.36 147.199 198.788C147.839 198.215 148.506 197.604 149.207 196.948C150.695 195.493 152.101 193.958 153.42 192.349C154.72 190.726 155.928 189.031 157.037 187.272C157.531 186.454 158.013 185.68 158.417 184.928C158.821 184.176 159.197 183.475 159.539 182.83C159.881 182.185 160.133 181.579 160.38 181.058C160.627 180.536 160.818 180.082 160.975 179.706C161.132 179.33 161.244 179.072 161.345 178.842C161.377 178.747 161.422 178.656 161.48 178.573Z" fill="#263238"/>
<path d="M163.443 169.655C163.291 169.927 163.117 170.186 162.921 170.429C162.574 170.923 162.046 171.618 161.379 172.465C157.876 176.869 153.91 180.884 149.55 184.44C148.714 185.119 148.024 185.652 147.536 186.011C147.295 186.207 147.038 186.383 146.768 186.538C146.983 186.313 147.218 186.106 147.469 185.921C147.934 185.54 148.59 184.979 149.421 184.283C151.058 182.887 153.274 180.918 155.59 178.568C157.907 176.217 159.853 173.991 161.227 172.336C161.917 171.506 162.467 170.833 162.843 170.362C163.023 170.11 163.224 169.874 163.443 169.655Z" fill="#263238"/>
<path d="M99.6409 31.3058C98.7491 30.3186 97.1001 31.4796 96.6626 32.736C96.2251 33.9924 96.1017 35.5405 94.9799 36.2584C93.4879 37.1727 90.9471 36.0621 90.1226 37.6102C89.4888 38.7993 90.7452 40.1959 90.5657 41.5364C90.2404 43.9202 86.1683 43.78 85.2484 45.9843C84.6875 47.308 85.5681 48.7495 86.2356 50.0171C86.9031 51.2848 87.3069 53.0852 86.1683 53.9434C85.0297 54.8016 83.1507 54.1341 82.242 55.211C81.0417 56.6469 83.2741 58.6661 83.0441 60.5283C82.8759 61.8912 81.4512 62.6989 80.1499 63.1308C78.8486 63.5627 77.3735 63.9217 76.5939 65.0547C74.8775 67.5619 78.1026 70.8263 77.6035 73.827C77.3006 75.6387 75.6291 77.3102 76.2405 79.0433C77.0201 81.2869 80.7276 81.1916 81.5017 83.4127C82.1467 85.2973 80.1723 87.7316 81.5465 89.1787C82.9207 90.6258 85.3718 88.887 87.1555 89.661C89.2083 90.5585 89.2139 94.2211 91.4351 94.5296C92.4222 94.6642 93.3702 93.9687 94.3685 94.0248C96.786 94.1314 97.8517 98.1922 100.247 97.7884C101.643 97.5528 102.58 95.7636 103.982 95.9711C105.384 96.1786 105.766 98.0632 107 98.6858C108.929 99.6618 110.78 97.0424 112.917 96.7283C114.252 96.5264 115.638 97.2892 116.928 96.8853C118.218 96.4815 118.919 95.2027 119.059 93.9238C119.107 92.6351 118.946 91.3471 118.582 90.1098C117.075 83.1502 117.561 75.9066 119.985 69.2109" fill="#F5F5F5"/>
<path d="M114.201 105.898L113.27 94.8542C113.27 94.8542 102.153 94.3606 98.1822 80.4112C96.2022 73.4786 95.1421 61.84 94.6149 52.288C94.054 41.7488 104.273 29.555 112.883 29.426L139.094 35.8595L139.554 40.4588L145.224 103.189C145.594 107.27 144.341 111.331 141.736 114.494C139.131 117.656 135.384 119.664 131.308 120.083C129.25 120.295 127.171 120.094 125.191 119.492C123.211 118.891 121.371 117.901 119.778 116.58C118.186 115.26 116.872 113.635 115.915 111.801C114.957 109.967 114.375 107.96 114.201 105.898Z" fill="#FCAD85"/>
<path d="M98.5198 62.132C98.7722 62.3396 100.029 61.1505 101.992 60.9205C103.955 60.6905 105.514 61.4814 105.699 61.229C105.789 61.1112 105.509 60.7074 104.824 60.3316C103.906 59.8394 102.858 59.6435 101.823 59.7707C100.802 59.8893 99.8446 60.3315 99.0919 61.0327C98.5478 61.5824 98.3964 62.0367 98.5198 62.132Z" fill="#263238"/>
<path d="M116.697 58.9701C116.95 59.1832 118.212 57.9941 120.175 57.7642C122.138 57.5342 123.692 58.3251 123.877 58.0727C123.967 57.9549 123.686 57.551 123.002 57.1696C122.085 56.6786 121.039 56.4827 120.007 56.6087C118.985 56.7285 118.029 57.1706 117.275 57.8708C116.726 58.426 116.574 58.8804 116.697 58.9701Z" fill="#263238"/>
<path d="M111.824 71.4703C111.824 71.3581 110.573 71.2908 108.565 71.2796C108.06 71.2796 107.572 71.2459 107.443 70.915C107.338 70.4024 107.393 69.8698 107.6 69.3894C107.92 68.1161 108.262 66.7868 108.621 65.3902C110.023 59.714 110.971 55.0642 110.741 55.0081C110.511 54.952 109.193 59.4952 107.791 65.1995C107.454 66.598 107.135 67.9348 106.832 69.2099C106.714 69.7988 106.461 70.4831 106.832 71.2067C106.926 71.3744 107.058 71.5184 107.216 71.6282C107.375 71.7379 107.556 71.8105 107.746 71.8405C108.033 71.8765 108.323 71.8765 108.61 71.8405C110.612 71.7227 111.829 71.5825 111.824 71.4703Z" fill="#263238"/>
<path d="M113.271 94.856C119.978 94.1496 126.358 91.5963 131.701 87.4802C131.701 87.4802 127.955 97.9184 113.562 98.3055L113.271 94.856Z" fill="#7C5142"/>
<path d="M113.226 76.0983C113.544 75.5852 113.987 75.1616 114.514 74.8672C115.041 74.5728 115.634 74.4174 116.238 74.4156C116.676 74.4011 117.111 74.4756 117.519 74.6347C117.927 74.7938 118.298 75.0341 118.611 75.3411C118.913 75.6364 119.117 76.0176 119.196 76.4331C119.274 76.8485 119.222 77.278 119.048 77.6632C118.611 78.4709 117.522 78.785 116.552 78.6223C115.586 78.4054 114.673 77.9993 113.865 77.4276C113.626 77.2956 113.412 77.1229 113.232 76.9172C113.147 76.8163 113.095 76.693 113.08 76.5624C113.065 76.4318 113.088 76.2997 113.147 76.1824" fill="#7C5142"/>
<path d="M117.763 72.1337C117.443 72.1337 117.696 74.2819 116.052 76.0151C114.409 77.7482 112.126 77.7819 112.126 78.0848C112.126 78.2194 112.687 78.4381 113.64 78.3484C114.891 78.2143 116.055 77.6445 116.927 76.7386C117.762 75.8687 118.227 74.7082 118.223 73.5023C118.206 72.5992 117.903 72.1 117.763 72.1337Z" fill="#263238"/>
<path d="M115.755 48.4305C116.013 48.9409 117.943 48.4305 120.276 48.4305C122.61 48.4305 124.55 48.8343 124.797 48.3183C124.909 48.0715 124.522 47.6116 123.709 47.1965C122.631 46.6844 121.45 46.4248 120.257 46.4375C119.063 46.4501 117.888 46.7346 116.821 47.2694C116.013 47.7126 115.66 48.1837 115.755 48.4305Z" fill="#263238"/>
<path d="M97.8911 52.2553C98.2893 52.6591 99.5738 52.0309 101.212 51.8122C102.849 51.5934 104.246 51.7505 104.51 51.2513C104.622 51.0101 104.353 50.5894 103.696 50.2417C102.828 49.8127 101.846 49.6693 100.892 49.8322C99.94 49.9672 99.0528 50.3922 98.351 51.0494C97.8462 51.571 97.7116 52.0534 97.8911 52.2553Z" fill="#263238"/>
<path d="M100.516 33.4319C100.516 33.5946 101.037 33.6787 101.637 33.617C102.238 33.5553 102.714 33.3702 102.697 33.2076C102.681 33.0449 102.176 32.9608 101.576 33.0225C100.976 33.0842 100.516 33.258 100.516 33.4319Z" fill="#263238"/>
<path d="M101.739 36.0904C97.3246 29.169 105.042 22.2195 108.823 19.8245C112.603 17.4295 117.578 16.7789 121.645 18.6523C123.501 19.5048 125.184 20.8566 127.203 21.1538C131.864 21.8325 136.29 16.6667 140.721 18.2708C144.372 19.5777 145.494 24.7267 149.134 26.0056C150.901 26.6225 152.831 26.1682 154.698 26.1794C156.566 26.1907 158.754 26.9759 159.185 28.7932C159.662 30.818 157.722 33.2018 158.989 34.8452C160.554 36.8701 164.318 34.4526 166.225 36.1521C168.008 37.7394 166.483 41.4806 168.58 42.6248C170.112 43.4662 172.411 42.0303 173.628 43.3035C174.846 44.5767 172.995 46.7362 172.967 48.6039C172.939 50.4717 174.879 51.7898 176.528 52.7882C178.177 53.7866 179.961 55.4524 179.411 57.2753C178.772 59.3955 175.451 59.9228 175.092 62.1102C174.733 64.2977 177.925 66.4852 176.775 68.4652C176.018 69.7889 173.971 69.643 172.933 70.7704C171.25 72.6494 166.718 76.1943 166.034 78.6229C165.097 81.9883 166.516 80.6085 164.671 83.5756C163.645 85.219 164.065 87.7262 162.489 88.8536C160.913 89.981 158.563 88.6853 156.622 89.1228C153.448 89.8296 151.972 94.9056 148.77 94.2774C147.138 93.9521 145.769 92.0787 144.198 92.6396C142.847 93.1276 142.516 95.1637 141.114 95.5339C139.235 96.0274 138.416 93.2903 137.114 91.8488C135.381 89.9249 132.033 90.1661 130.384 88.1413C128.914 86.3296 129.565 83.6541 130.468 81.5059C131.371 79.3577 132.476 77.0188 131.707 74.8032C130.827 72.3017 127.641 70.3834 128.426 67.8482C129.29 65.0774 134.271 64.8474 134.321 61.942C134.372 59.2048 129.677 58.1391 129.918 55.4076C130.081 53.5734 132.47 52.6031 132.751 50.7914C133.076 48.6768 130.406 47.1793 130.221 45.0479C130.103 43.6849 131.029 42.4846 131.651 41.2675C132.274 40.0503 132.504 38.3059 131.376 37.5319C129.576 36.2979 127.349 39.1136 125.207 38.7098C123.709 38.4237 123.002 36.7523 122.34 35.3781C122.34 35.3781 117.898 29.9486 111.123 31.4911C104.347 33.0336 101.739 36.0904 101.739 36.0904Z" fill="#F5F5F5"/>
<path d="M101.368 33.4645C100.14 34.9957 101.06 37.688 102.967 38.1423C104.745 38.5686 106.444 37.3066 107.852 36.1455C109.26 34.9845 111.032 33.7786 112.777 34.317C115.979 35.3098 115.682 40.9412 118.913 41.8442C120.237 42.2088 121.6 41.5694 122.906 41.1431C124.213 40.7168 125.879 40.5822 126.743 41.6591C127.904 43.095 126.805 45.6975 128.274 46.8081C128.891 47.2737 129.772 47.2849 130.338 47.8065C131.247 48.6422 130.753 50.1959 129.94 51.1326C129.127 52.0693 128.016 52.8153 127.697 54.0436C127.186 55.9451 128.919 57.6894 130.608 58.7103C132.296 59.7311 134.304 60.7295 134.842 62.6365C135.712 65.699 132.156 69.098 133.76 71.8464C134.663 73.3944 136.918 73.7254 138.527 72.9289C140.137 72.1324 141.186 70.5227 141.893 68.8736C144.77 62.1037 142.986 54.3577 141.051 47.2624C139.784 42.6126 138.376 37.8114 135.212 34.1824C131.926 30.4132 127.091 28.3379 122.228 27.1769C118.509 26.285 114.6 25.87 110.875 26.7225C107.151 27.5751 103.623 29.8467 101.901 33.2625" fill="#F5F5F5"/>
<path d="M148.926 93.8731C149.005 93.9297 149.095 93.9698 149.19 93.9909C149.333 94.0263 149.483 94.0291 149.627 93.999C149.772 93.9689 149.908 93.9067 150.026 93.817C150.414 93.5362 150.687 93.1235 150.794 92.656C150.873 92.3582 150.873 92.0451 150.794 91.7473C150.692 91.4143 150.518 91.1079 150.284 90.8499C149.716 90.2819 149.038 89.8354 148.292 89.5374C147.434 89.2179 146.646 88.7361 145.97 88.1184C145.617 87.7793 145.385 87.3342 145.308 86.8508C145.275 86.3322 145.419 85.8176 145.718 85.3924C146.063 84.9257 146.438 84.4816 146.84 84.0631C147.296 83.6085 147.653 83.0642 147.889 82.4646C148 82.1264 148.023 81.7653 147.955 81.4158C147.887 81.0663 147.731 80.74 147.502 80.4678C147.01 79.9594 146.412 79.565 145.752 79.3124C145.118 79.0263 144.456 78.7851 143.85 78.4542C143.23 78.1699 142.745 77.6547 142.498 77.0183C142.412 76.6854 142.41 76.3364 142.493 76.0025C142.575 75.6687 142.739 75.3605 142.97 75.1057C143.464 74.5131 143.994 73.9512 144.557 73.423C145.164 72.8591 145.64 72.1676 145.948 71.3982C146.08 70.9686 146.111 70.5144 146.039 70.0709C145.967 69.6274 145.794 69.2064 145.533 68.8405C145.022 68.1236 144.376 67.5139 143.631 67.0456C142.897 66.5576 142.128 66.1818 141.433 65.6827C140.727 65.2286 140.149 64.6034 139.75 63.8654C139.581 63.4865 139.499 63.0743 139.512 62.6595C139.524 62.2447 139.631 61.8381 139.823 61.4703C140.239 60.6769 140.731 59.9255 141.292 59.2268C141.919 58.4738 142.351 57.578 142.549 56.6186C142.594 56.0965 142.499 55.572 142.274 55.0986C142.03 54.6526 141.686 54.2688 141.27 53.9768C140.452 53.4431 139.584 52.9904 138.679 52.6251C137.825 52.3103 137.081 51.755 136.536 51.0265C136.329 50.6462 136.22 50.22 136.22 49.7869C136.22 49.3539 136.329 48.9277 136.536 48.5474C136.939 47.7238 137.42 46.9406 137.972 46.2084C138.526 45.4214 138.886 44.5141 139.021 43.561C139.069 43.0593 138.976 42.554 138.752 42.1027C138.508 41.6612 138.139 41.3019 137.692 41.0707C136.827 40.7333 135.893 40.6121 134.971 40.7173C134.129 40.795 133.28 40.7762 132.442 40.6612C132.059 40.6106 131.697 40.4607 131.391 40.2265C131.085 39.9923 130.846 39.6819 130.697 39.3263C130.383 38.614 130.316 37.7726 130.019 36.9705C129.877 36.5589 129.648 36.1831 129.347 35.8692C129.046 35.5553 128.68 35.311 128.274 35.1532C126.681 34.5082 125.043 34.9065 123.619 35.0916C122.916 35.1981 122.201 35.1981 121.499 35.0916C120.832 34.9637 120.198 34.7064 119.631 34.3343C118.567 33.569 117.558 32.7293 116.613 31.8215C115.722 30.9724 114.656 30.3291 113.489 29.9369C112.432 29.629 111.315 29.5828 110.236 29.8023C109.375 29.9713 108.559 30.3186 107.84 30.8219C107.121 31.3252 106.516 31.9733 106.063 32.7246C105.482 33.6633 105.15 34.7347 105.098 35.8375C105.076 36.2135 105.104 36.5908 105.182 36.9593C105.21 36.9593 105.149 36.5667 105.182 35.8375C105.276 34.7646 105.631 33.7308 106.214 32.8255C106.664 32.1132 107.257 31.5017 107.955 31.0297C108.653 30.5576 109.441 30.2352 110.269 30.0828C111.302 29.8879 112.367 29.9475 113.371 30.2566C114.486 30.6422 115.501 31.2705 116.344 32.0964C117.295 33.0295 118.313 33.8918 119.39 34.6765C120.001 35.0801 120.685 35.3602 121.403 35.501C122.147 35.616 122.903 35.616 123.647 35.501C125.116 35.3159 126.664 34.9738 128.072 35.5571C128.418 35.6913 128.73 35.9002 128.986 36.1687C129.242 36.4372 129.435 36.7589 129.553 37.1108C129.817 37.8343 129.878 38.6757 130.226 39.5002C130.407 39.9272 130.694 40.3008 131.061 40.5854C131.427 40.8701 131.86 41.0565 132.318 41.1268C133.195 41.2524 134.084 41.275 134.966 41.1941C135.803 41.1014 136.651 41.2091 137.439 41.5082C137.792 41.6909 138.083 41.9739 138.275 42.3215C138.455 42.6844 138.527 43.0912 138.482 43.4937C138.353 44.3609 138.02 45.1853 137.512 45.9C136.943 46.657 136.447 47.4665 136.031 48.3174C135.821 48.7785 135.702 49.2753 135.678 49.7813C135.675 50.306 135.815 50.8216 136.082 51.2733C136.68 52.0954 137.507 52.7234 138.46 53.0794C139.331 53.4307 140.167 53.8645 140.956 54.375C141.307 54.6303 141.598 54.9597 141.808 55.3398C141.984 55.7223 142.059 56.143 142.027 56.5625C141.841 57.4323 141.444 58.243 140.872 58.9239C140.288 59.6543 139.778 60.4416 139.352 61.274C139.134 61.7076 139.016 62.1842 139.005 62.6693C138.994 63.1544 139.092 63.6357 139.29 64.0785C139.732 64.8972 140.377 65.5886 141.163 66.0865C141.893 66.6081 142.683 66.9951 143.373 67.4495C144.068 67.8902 144.67 68.4617 145.146 69.1321C145.369 69.4365 145.518 69.7883 145.582 70.16C145.646 70.5317 145.624 70.9133 145.516 71.2748C145.227 71.9869 144.785 72.6266 144.22 73.1481C143.643 73.6863 143.102 74.2615 142.599 74.8701C142.33 75.1834 142.142 75.5576 142.05 75.9603C141.958 76.3629 141.966 76.7819 142.072 77.181C142.355 77.926 142.919 78.5303 143.643 78.8636C144.293 79.2114 144.961 79.4245 145.583 79.7218C146.188 79.9478 146.737 80.3018 147.193 80.7595C147.385 80.9794 147.517 81.2456 147.575 81.5317C147.633 81.8179 147.615 82.1143 147.524 82.3917C147.137 83.5134 146.066 84.2538 145.454 85.2522C145.106 85.7161 144.946 86.2943 145.005 86.8712C145.064 87.4482 145.339 87.9817 145.774 88.3652C146.486 88.9972 147.312 89.4866 148.208 89.8067C148.929 90.0774 149.587 90.4914 150.143 91.0238C150.364 91.2287 150.527 91.4876 150.616 91.7749C150.706 92.0621 150.719 92.3678 150.654 92.6616C150.565 93.1033 150.325 93.5001 149.975 93.7834C149.87 93.8702 149.748 93.9336 149.616 93.9694C149.484 94.0052 149.347 94.0125 149.212 93.9909C149.022 93.9068 148.932 93.8619 148.926 93.8731Z" fill="#CDCDCD"/>
<path d="M88.064 88.2705C87.9068 88.4188 87.7134 88.5233 87.5031 88.5733C87.1886 88.5918 86.875 88.5255 86.5948 88.3815C86.3146 88.2375 86.0782 88.0209 85.9102 87.7544C85.411 87.0814 85.54 85.9932 85.5344 84.7761C85.5177 84.1036 85.3591 83.4423 85.0689 82.8354C84.7459 82.194 84.4593 81.5348 84.2107 80.8611C84.0807 80.5158 84.0475 80.1415 84.1147 79.7787C84.1819 79.4159 84.347 79.0784 84.5921 78.8026C85.2126 78.2371 85.9443 77.8073 86.7403 77.5406C87.5424 77.1704 88.5183 76.9012 89.1858 76.015C89.3408 75.7857 89.4437 75.5253 89.4873 75.2521C89.5309 74.9788 89.5141 74.6993 89.4382 74.4332C89.2625 73.9156 88.9459 73.4572 88.5239 73.1095C87.7667 72.4084 86.802 71.8868 86.3757 71.0286C85.9494 70.1704 86.4935 69.1552 87.3517 68.5943C88.2099 68.0335 89.326 67.7754 90.3637 67.1753C90.9132 66.879 91.3681 66.4339 91.6762 65.8908C91.971 65.3255 92.0864 64.6837 92.0071 64.0511C91.8229 62.867 91.3701 61.7408 90.6834 60.7587C90.0494 59.8698 89.5661 58.8825 89.2531 57.8364C89.1404 57.3435 89.1436 56.8312 89.2623 56.3397C89.381 55.8483 89.6121 55.391 89.9374 55.0039C90.56 54.1962 91.3677 53.5344 92.0464 52.7603C92.7479 51.9947 93.2066 51.0383 93.3645 50.012C93.478 49.0684 93.4648 48.1139 93.3252 47.1738C93.1064 45.3846 92.8092 43.7187 93.1738 42.2604C93.4795 40.9417 94.121 39.7245 95.0359 38.7268C95.7197 37.9602 96.5441 37.3319 97.4646 36.8758C98.256 36.4981 99.0931 36.2247 99.9549 36.0626C99.7244 36.0513 99.4934 36.0626 99.2651 36.0962C98.6071 36.197 97.9657 36.3856 97.358 36.6571C96.2374 37.175 95.2462 37.9361 94.4565 38.8849C93.6668 39.8338 93.0983 40.9466 92.7923 42.1426C92.3829 43.6907 92.6802 45.4239 92.8765 47.1907C92.9971 48.0934 92.9971 49.0082 92.8765 49.911C92.7286 50.8485 92.3026 51.72 91.6537 52.4126C91.0087 53.153 90.1898 53.8092 89.5111 54.6842C89.1401 55.1301 88.8772 55.6558 88.743 56.2201C88.6087 56.7844 88.6067 57.3722 88.7371 57.9374C89.2699 60.2314 91.2555 61.83 91.4743 64.1072C91.5385 64.6348 91.4448 65.1697 91.205 65.6441C90.9426 66.105 90.5532 66.4808 90.0832 66.7266C89.1578 67.2875 88.0023 67.4894 87.0376 68.1737C86.5417 68.5005 86.1396 68.9509 85.8709 69.4806C85.7394 69.7565 85.6711 70.0583 85.6711 70.364C85.6711 70.6696 85.7394 70.9714 85.8709 71.2474C86.4318 72.3187 87.4414 72.801 88.1482 73.4909C88.5029 73.7788 88.774 74.1565 88.9334 74.5847C88.9909 74.7853 89.0041 74.9961 88.9722 75.2024C88.9402 75.4086 88.8638 75.6055 88.7483 75.7794C88.2603 76.4749 87.3236 76.8002 86.5047 77.1592C85.6544 77.457 84.8764 77.931 84.2219 78.5502C83.9273 78.8906 83.7331 79.3061 83.661 79.7505C83.612 80.1682 83.6561 80.5915 83.79 80.9901C84.053 81.6777 84.3583 82.3483 84.7043 82.9981C84.9895 83.5611 85.1502 84.179 85.1754 84.8098C85.2203 85.982 85.0913 87.1375 85.6802 87.9003C85.8735 88.1867 86.1428 88.4135 86.4579 88.5552C86.773 88.6969 87.1214 88.7479 87.4639 88.7024C87.5925 88.6877 87.7152 88.6403 87.8202 88.5646C87.9253 88.489 88.0092 88.3878 88.064 88.2705Z" fill="#455A64"/>
<path d="M165.35 76.48C166.094 76.2799 166.776 75.8939 167.33 75.3582C167.983 74.7059 168.453 73.8936 168.693 73.0025C168.868 72.4086 168.918 71.7846 168.839 71.1703C168.76 70.5561 168.553 69.9651 168.233 69.4352H168.373C168.32 69.6502 168.224 69.8526 168.092 70.0307C167.961 70.2087 167.795 70.359 167.605 70.4728C167.202 70.7068 166.74 70.8162 166.275 70.7869C165.779 70.7711 165.304 70.5849 164.929 70.2597C164.554 69.9054 164.285 69.4525 164.155 68.9528C164.027 68.4232 164.005 67.8733 164.09 67.3351C164.176 66.7968 164.368 66.281 164.654 65.8174C165.288 64.8444 166.061 63.9694 166.948 63.2205L167.033 63.4112C165.64 63.5791 164.232 63.5678 162.843 63.3775C162.1 63.2578 161.386 62.999 160.739 62.6147C160.073 62.192 159.519 61.6147 159.124 60.9321C158.696 60.2305 158.531 59.3995 158.658 58.5875C158.847 57.7708 159.288 57.0345 159.921 56.4842C160.521 55.9233 161.199 55.4241 161.8 54.8632C162.41 54.308 162.842 53.5836 163.039 52.7823C163.139 52.3883 163.125 51.9742 163 51.5876C162.856 51.2079 162.573 50.8971 162.209 50.7182C161.469 50.348 160.554 50.5892 159.702 50.7743C158.849 50.9594 157.901 51.223 156.965 50.8977C156.496 50.7358 156.099 50.4141 155.843 49.989C155.601 49.5699 155.453 49.1027 155.411 48.6205C155.159 46.691 156.353 44.9073 155.972 43.0732C155.88 42.6264 155.678 42.2098 155.383 41.8617C155.077 41.5138 154.693 41.2445 154.261 41.0764C153.368 40.7373 152.405 40.6218 151.457 40.7399C150.418 40.8732 149.393 41.0984 148.394 41.413C147.38 41.7196 146.324 41.8691 145.264 41.8561C144.187 41.8298 143.164 41.3804 142.415 40.6053C141.729 39.8102 141.28 38.8385 141.119 37.8008C140.716 35.8097 140.805 33.8185 140.385 31.9563C140.223 31.0371 139.803 30.1831 139.173 29.494C138.525 28.8553 137.665 28.4762 136.756 28.4283C135.858 28.4011 134.961 28.4897 134.086 28.6919C133.218 28.8844 132.34 29.0249 131.455 29.1126C130.575 29.1932 129.689 29.0625 128.869 28.7312C128.1 28.386 127.374 27.9531 126.704 27.4411C126.066 26.9583 125.399 26.5144 124.708 26.1118C124.054 25.7259 123.317 25.501 122.559 25.4556C121.828 25.4548 121.106 25.6157 120.445 25.9267C119.783 26.2128 119.16 26.5661 118.543 26.8859C117.943 27.2191 117.307 27.4844 116.648 27.6767C116.016 27.8448 115.366 27.9352 114.713 27.9459C113.525 27.9394 112.34 27.8419 111.168 27.6543C110.157 27.4902 109.134 27.4151 108.111 27.4299C107.252 27.4773 106.406 27.6668 105.609 27.9908C104.473 28.366 103.528 29.1714 102.979 30.2344C102.82 30.6158 102.718 31.0183 102.676 31.4291C102.676 31.4291 102.676 31.3225 102.676 31.115C102.677 30.9837 102.698 30.8533 102.737 30.728C102.775 30.5488 102.832 30.3739 102.906 30.2063C103.172 29.6624 103.543 29.1764 103.997 28.776C104.451 28.3756 104.98 28.0688 105.553 27.873C106.362 27.5477 107.218 27.3581 108.088 27.3121C109.121 27.2916 110.153 27.3592 111.173 27.5141C112.337 27.6957 113.513 27.7857 114.69 27.7833C115.327 27.7713 115.961 27.679 116.575 27.5084C117.221 27.3172 117.844 27.0538 118.431 26.7232C119.043 26.4035 119.665 26.0445 120.338 25.7472C121.031 25.4265 121.785 25.2563 122.548 25.248C123.339 25.2951 124.108 25.5276 124.792 25.9267C125.493 26.3329 126.169 26.7806 126.817 27.2673C127.473 27.765 128.185 28.1865 128.937 28.5237C129.719 28.8371 130.565 28.9601 131.405 28.8826C132.28 28.7908 133.149 28.6484 134.007 28.4564C134.905 28.2443 135.828 28.1537 136.75 28.1871C137.721 28.2281 138.642 28.6278 139.336 29.3089C140.007 30.033 140.457 30.9342 140.631 31.9058C141.063 33.8129 140.974 35.8321 141.372 37.756C141.525 38.7344 141.951 39.6498 142.6 40.3978C143.298 41.117 144.251 41.5321 145.253 41.5532C146.282 41.5612 147.307 41.4157 148.293 41.1213C149.308 40.7992 150.35 40.5702 151.406 40.437C152.397 40.3166 153.402 40.4398 154.334 40.796C154.804 40.984 155.223 41.2799 155.557 41.6598C155.885 42.0429 156.107 42.505 156.202 43.0003C156.578 45.0139 155.372 46.7695 155.641 48.5756C155.677 49.0165 155.811 49.4438 156.034 49.8264C156.25 50.1957 156.59 50.4775 156.993 50.6228C157.806 50.9145 158.715 50.6845 159.573 50.4882C160.01 50.3811 160.454 50.3025 160.902 50.2527C161.367 50.1922 161.839 50.2641 162.265 50.4602C162.693 50.6691 163.024 51.0346 163.191 51.481C163.333 51.9162 163.35 52.3825 163.241 52.8272C163.035 53.691 162.574 54.4728 161.917 55.0707C161.295 55.6316 160.616 56.1308 160.038 56.6861C159.44 57.1959 159.022 57.8839 158.844 58.6492C158.724 59.3993 158.878 60.1673 159.275 60.8143C159.648 61.4558 160.172 61.9968 160.801 62.3904C161.42 62.7613 162.103 63.0125 162.815 63.1308C164.183 63.3247 165.571 63.3398 166.943 63.1756H167.263L167.027 63.3888C166.159 64.122 165.404 64.978 164.783 65.9296C164.508 66.3685 164.322 66.8577 164.236 67.3689C164.15 67.88 164.167 68.4031 164.284 68.908C164.402 69.3758 164.651 69.8001 165.002 70.1307C165.341 70.4341 165.776 70.6088 166.231 70.6243C166.646 70.6807 167.068 70.5899 167.424 70.3675C167.779 70.1452 168.046 69.8054 168.177 69.4071L168.216 69.2277L168.311 69.3847C168.638 69.9332 168.846 70.5439 168.922 71.1776C168.998 71.8112 168.941 72.4539 168.755 73.0642C168.499 73.969 168.007 74.7897 167.33 75.4424C166.909 75.8406 166.413 76.1513 165.872 76.3566C165.58 76.4464 165.35 76.48 165.35 76.48Z" fill="#CDCDCD"/>
<path d="M87.8513 135.71C87.9354 136.832 98.3288 196.943 101.487 207.157C104.213 215.963 116.827 226.44 127.288 215.969C137.283 205.979 141.4 161.102 141.4 161.102L117.904 162.196L117.579 135.71C117.579 135.71 100.191 129.456 86.5107 135.71" fill="#FCAD85"/>
<path d="M91.3175 102.338C91.1085 101.652 91.0511 100.928 91.1492 100.218C91.306 99.3991 91.6348 98.6229 92.1139 97.9407C92.7892 97.0546 93.5563 96.2424 94.4024 95.5176C95.4729 94.5966 96.3977 93.5187 97.1451 92.3205C97.9828 90.9134 98.5248 89.3504 98.7381 87.7268C98.9775 85.9249 98.799 84.0921 98.2164 82.3703C97.5695 80.5821 96.7682 78.8536 95.8214 77.2045C94.906 75.5967 94.1669 73.8948 93.6171 72.1284C93.1311 70.5082 93.0962 68.7862 93.5162 67.1476C94.3687 64.0123 96.2421 61.5387 97.19 59.1437C98.0848 57.2859 98.3562 55.189 97.964 53.1646C97.8434 52.6213 97.637 52.1006 97.3527 51.6221C97.1563 51.2968 97.0161 51.151 96.9993 51.1678C97.274 51.8338 97.4898 52.5226 97.6443 53.2263C97.8942 55.1776 97.546 57.1589 96.6459 58.9081C95.67 61.1966 93.7349 63.6084 92.7645 66.9513C92.2927 68.7197 92.3121 70.5833 92.8206 72.3415C93.3685 74.1722 94.1211 75.9352 95.0642 77.5971C95.9879 79.2108 96.774 80.8995 97.4144 82.6451C97.9771 84.2471 98.1689 85.9558 97.9752 87.6427C97.7939 89.1702 97.3096 90.6461 96.5506 91.984C95.8532 93.1433 94.9917 94.1956 93.9929 95.1082C93.1469 95.8922 92.3941 96.7711 91.7493 97.7275C91.2683 98.4783 90.9617 99.3274 90.8519 100.212C90.7822 100.781 90.8495 101.358 91.0482 101.895C91.1021 102.062 91.1943 102.213 91.3175 102.338Z" fill="#263238"/>
<path d="M47.4223 87.1045C46.8332 88.4639 45.8604 89.622 44.6231 90.4369C43.3857 91.2518 41.9376 91.6882 40.456 91.6926C38.9738 91.6557 37.5226 91.2604 36.2264 90.5405C34.9302 89.8206 33.8277 88.7976 33.013 87.5588C31.4085 85.0388 30.836 81.9977 31.4144 79.0669C31.6556 77.7488 32.0987 76.4363 31.9753 75.107C31.7622 73.228 30.388 71.6687 29.9169 69.8346C29.0755 66.5253 31.493 63.0309 34.6396 61.7072C37.7862 60.3835 41.3703 60.793 44.6852 61.7072" fill="#263238"/>
<path d="M95.3556 48.8511C98.3844 51.8968 97.229 55.9016 95.8155 58.6107C94.4021 61.3198 92.7026 64.0682 92.6689 67.125C92.6353 70.1819 94.3516 73.0929 95.2098 76.0993C96.2962 79.939 95.9759 84.0404 94.3067 87.6649C93.0615 90.3572 91.1096 92.6793 89.8196 95.366C88.5295 98.0527 88.092 101.44 89.8196 103.864C89.0061 103.691 88.2444 103.33 87.5956 102.81C86.9468 102.29 86.4291 101.625 86.084 100.868C85.4079 99.3464 85.106 97.6847 85.2034 96.0222C85.338 89.729 88.35 83.6097 87.5984 77.3613C87.1609 73.7267 85.4558 70.238 85.6914 66.5866C85.927 62.9352 88.0864 59.71 89.6177 56.3839C91.1489 53.0578 92.0912 48.9072 90.0215 45.8728" fill="#263238"/>
<path d="M87.9014 36.9084C91.6145 37.3907 95.2996 39.3314 97.0945 42.6183C98.8893 45.9051 98.2723 50.5605 95.2042 52.7143C92.31 54.7392 88.2099 54.0717 85.2372 52.1534C82.9934 50.7791 81.2918 48.6734 80.4191 46.1912C80.0011 44.9525 79.8879 43.6313 80.089 42.3395C80.2902 41.0477 80.7997 39.8235 81.5745 38.7705C83.1843 36.7233 86.1234 35.7193 88.5633 36.6391" fill="#263238"/>
<path d="M90.9363 36.5274C89.2985 32.0122 85.2825 28.5964 80.7561 26.9922C76.2297 25.3881 71.2209 25.4105 66.5207 26.3023C61.8204 27.1942 57.2715 28.8993 52.7788 30.5988C49.5088 31.8384 46.1659 33.1228 43.5016 35.3944C40.8374 37.666 39.0762 40.7397 37.8927 43.9929C35.6491 50.0954 35.5538 54.5657 38.1843 60.5168C39.3061 63.1081 38.3975 66.008 39.4239 68.6441C40.4504 71.2803 45.2123 74.427 43.7316 76.8388" fill="#263238"/>
<path d="M93.331 53.1854C93.2581 44.6374 88.1764 33.8795 79.6452 34.3226L52.7784 39.5838C51.5282 39.649 50.3478 40.1806 49.4703 41.0736C48.5929 41.9667 48.0821 43.1562 48.0389 44.4074L45.9355 106.358L77.6428 113.582C77.9289 108.624 77.6428 96.5424 77.6428 96.5705C77.6428 96.5985 88.6195 95.3477 91.6651 81.2749C93.1459 74.275 93.4151 62.6813 93.331 53.1854Z" fill="#FFBE9D"/>
<path d="M90.5488 62.5142C90.3076 62.7385 88.9839 61.6392 87.0264 61.5382C85.0688 61.4372 83.5769 62.3403 83.3749 62.0991C83.2796 61.9869 83.532 61.5663 84.1826 61.1456C85.0624 60.6066 86.0862 60.3502 87.1161 60.4108C88.1418 60.457 89.1253 60.8327 89.9206 61.4821C90.4815 61.9701 90.6666 62.4244 90.5488 62.5142Z" fill="#263238"/>
<path d="M71.2151 61.9926C70.9795 62.2169 69.6502 61.1232 67.6927 61.0222C65.7352 60.9213 64.2432 61.8243 64.0469 61.5831C63.9459 61.4709 64.1983 61.0559 64.849 60.6352C65.7292 60.0924 66.756 59.8357 67.788 59.9004C68.8133 59.949 69.796 60.3244 70.5925 60.9717C71.1478 61.4541 71.3497 61.8916 71.2151 61.9926Z" fill="#263238"/>
<path d="M77.519 73.3106C77.519 73.1984 78.7417 73.0525 80.7329 72.9067C81.2321 72.9067 81.7145 72.8114 81.8154 72.4748C81.889 71.9597 81.8008 71.4345 81.563 70.9716C81.1592 69.7377 80.7348 68.4401 80.2898 67.079C78.5286 61.5486 77.2834 56.983 77.4853 56.9381C77.6872 56.8932 79.3194 61.2962 81.0807 66.8322C81.5013 68.1952 81.9108 69.4965 82.2922 70.7585C82.4492 71.3194 82.7409 72.0037 82.4436 72.7384C82.3627 72.9107 82.2432 73.0621 82.0944 73.1807C81.9456 73.2994 81.7714 73.3822 81.5855 73.4227C81.304 73.4856 81.0153 73.5101 80.7273 73.4956C78.7754 73.4788 77.519 73.4227 77.519 73.3106Z" fill="#263238"/>
<path d="M77.6428 96.5715C70.9521 96.3096 64.4652 94.1971 58.9033 90.469C58.9033 90.469 63.4241 100.515 77.7045 99.9537L77.6428 96.5715Z" fill="#EB996E"/>
<path d="M72.398 52.7046C72.1737 53.2318 70.233 52.8729 67.9109 53.0243C65.5888 53.1758 63.6986 53.703 63.4237 53.2094C63.3003 52.9738 63.6481 52.4915 64.4277 52.0147C65.4612 51.4351 66.6135 51.0995 67.7966 51.0333C68.9797 50.9672 70.1622 51.1724 71.2538 51.6333C72.0895 52.0147 72.4709 52.4578 72.398 52.7046Z" fill="#263238"/>
<path d="M90.0831 53.3605C89.7129 53.7868 88.4004 53.2539 86.7683 53.1417C85.1361 53.0296 83.7506 53.282 83.459 52.7996C83.3356 52.564 83.5768 52.1321 84.1994 51.7395C85.0335 51.2785 85.9858 51.0756 86.9354 51.1565C87.885 51.2374 88.7893 51.5984 89.5334 52.1938C90.0831 52.6818 90.2458 53.153 90.0831 53.3605Z" fill="#263238"/>
<path d="M76.4538 77.7708C76.1306 77.3139 75.6963 76.9469 75.1918 76.7045C74.6874 76.4621 74.1295 76.3523 73.5708 76.3854C73.1654 76.4002 72.7671 76.4968 72.3998 76.6693C72.0326 76.8418 71.704 77.0868 71.4338 77.3894C71.1733 77.6809 71.0084 78.0453 70.9612 78.4334C70.9141 78.8215 70.987 79.2147 71.1702 79.5601C71.4489 79.9015 71.8221 80.1533 72.243 80.2839C72.664 80.4146 73.1141 80.4184 73.5372 80.2948C74.4149 80.0349 75.2326 79.6041 75.9434 79.0272C76.1609 78.894 76.3512 78.7208 76.5043 78.5168C76.5762 78.4185 76.6177 78.3013 76.6237 78.1797C76.6297 78.0581 76.5999 77.9374 76.5379 77.8325" fill="#EB996E"/>
<path d="M72.0224 74.3828C72.3197 74.3828 72.2131 76.3628 73.8397 77.8604C75.4663 79.3579 77.5808 79.257 77.5808 79.543C77.5808 79.6664 77.0929 79.902 76.1954 79.8796C75.0338 79.8316 73.9261 79.377 73.0656 78.5951C72.24 77.8405 71.7393 76.7949 71.669 75.6785C71.641 74.8428 71.9102 74.3604 72.0224 74.3828Z" fill="#263238"/>
<path d="M91.1775 40.3411C90.2464 44.7946 83.1063 45.1255 78.692 44.015C77.0929 45.8381 75.0609 47.2298 72.7831 48.0619C70.5052 48.8941 68.0547 49.14 65.6569 48.777C65.0184 48.6136 64.3491 48.6136 63.7106 48.777C63.0858 49.0907 62.554 49.5625 62.1681 50.1455C60.1362 52.5473 57.2869 54.1118 54.1698 54.5373C53.6964 56.7606 52.5693 58.7916 50.9333 60.3697C49.2972 61.9478 47.2269 63.0009 44.988 63.3938C44.988 63.3938 43.5689 62.5917 44.4271 56.8819C45.2853 51.172 45.3077 39.2025 45.3077 39.2025L61.2483 33.0327L80.027 30.6152C80.027 30.6152 92.748 32.8027 91.1775 40.3411Z" fill="#263238"/>
<path d="M38.3969 61.1631C38.5203 61.1911 38.4305 59.5926 39.586 57.2368C40.2878 55.8323 41.3076 54.6109 42.5643 53.6695C44.1938 52.4595 46.146 51.7606 48.1732 51.6615H48.42L48.4929 51.4204C49.1884 49.1768 50.4 46.7818 52.537 45.1159C54.674 43.4501 57.8542 42.7938 60.3895 44.2409L60.8045 44.4821L60.9952 44.0222C61.0625 43.8595 61.1355 43.6856 61.2028 43.5118C62.0446 41.6534 63.3773 40.0598 65.0575 38.9025C66.7376 37.7452 68.7016 37.0679 70.7379 36.9437C71.6578 36.9215 72.5774 36.9986 73.4807 37.1737C74.4016 37.3916 75.3593 37.403 76.2852 37.2073C77.1316 36.9109 77.887 36.4008 78.4783 35.7266C78.9811 35.1706 79.5456 34.6738 80.1609 34.2458C81.1153 33.6424 82.1885 33.2519 83.3074 33.1009C84.4264 32.9499 85.5647 33.0419 86.6449 33.3708C87.4376 33.6536 88.2019 34.0104 88.9277 34.4365C88.9277 34.4365 88.7819 34.2514 88.4397 33.971C87.9243 33.5905 87.3579 33.2846 86.757 33.0623C85.6282 32.653 84.422 32.502 83.2271 32.6205C82.0321 32.7389 80.879 33.1237 79.8525 33.7466C78.4895 34.5038 77.6089 36.1136 76.1113 36.5511C74.6137 36.9886 72.7459 36.0631 70.7099 36.1865C68.5141 36.2904 66.3901 37.0012 64.5741 38.2399C62.758 39.4787 61.3211 41.1968 60.4231 43.2033C60.3502 43.394 60.2717 43.5791 60.1988 43.7642L60.8045 43.5454C57.8598 41.8627 54.2982 42.7097 52.0434 44.5102C49.9721 46.2629 48.4947 48.6142 47.8143 51.2409L48.1396 50.9885C45.9777 51.1154 43.9057 51.898 42.1997 53.232C40.9031 54.2518 39.8749 55.5726 39.2046 57.0798C38.7679 58.0323 38.4894 59.0496 38.38 60.0918C38.3239 60.4472 38.3296 60.8096 38.3969 61.1631Z" fill="#455A64"/>
<path d="M63.7715 47.5323C64.112 47.7547 64.4933 47.9073 64.8933 47.981C65.9907 48.2697 67.1245 48.3963 68.2586 48.3568C70.1527 48.3079 72.0162 47.8681 73.7323 47.065C75.4485 46.262 76.9801 45.113 78.2313 43.6902L77.7097 43.7855L78.164 44.0211C80.127 44.9748 82.3346 45.3055 84.4909 44.969C86.2366 44.6911 87.8809 43.9665 89.2641 42.8657C90.1878 42.1349 90.9725 41.2438 91.5806 40.2351C91.8352 39.8854 92.0078 39.4828 92.0854 39.0572C91.9507 38.9619 91.2104 40.7062 88.9051 42.3889C87.5661 43.3529 86.0126 43.9766 84.3787 44.2062C82.3808 44.4717 80.349 44.146 78.5342 43.2695L78.1135 43.0508L77.8106 42.8937L77.5919 43.1461C75.1945 45.8506 71.8351 47.5111 68.2306 47.7735C65.4822 47.9754 63.8051 47.3752 63.7715 47.5323Z" fill="#455A64"/>
<path d="M72.236 39.5856C72.236 39.838 74.3225 39.7707 76.7232 40.4775C79.1238 41.1842 80.8289 42.306 80.9747 42.1041C81.1206 41.9021 79.5332 40.4214 76.9587 39.6698C74.3842 38.9182 72.1912 39.3781 72.236 39.5856Z" fill="#455A64"/>
<path d="M77.6429 39.4275C77.8167 39.5901 78.5739 39.0292 79.5275 38.4235C80.481 37.8177 81.2999 37.3465 81.2101 37.1222C81.1204 36.8978 80.0884 37.0324 79.0563 37.7167C78.0243 38.401 77.469 39.276 77.6429 39.4275Z" fill="#455A64"/>
<path d="M55.1119 46.4324C55.1904 46.668 57.0189 46.1856 59.2737 46.3931C61.5285 46.6007 63.2617 47.341 63.3739 47.1223C63.486 46.9035 61.8146 45.7481 59.3466 45.5518C56.8787 45.3555 55.0165 46.2361 55.1119 46.4324Z" fill="#455A64"/>
<path d="M50.7539 53.815C50.7539 54.0282 53.4182 54.2918 56.5592 53.3719C59.7002 52.4521 61.8372 50.8199 61.7082 50.6516C61.5791 50.4833 59.3356 51.7117 56.3236 52.5642C53.3116 53.4168 50.7483 53.5682 50.7539 53.815Z" fill="#455A64"/>
<path d="M40.7532 58.7C40.9327 58.8739 42.3237 57.4772 44.5673 56.8434C46.8109 56.2096 48.7291 56.5854 48.7852 56.3442C48.8413 56.1031 46.8389 55.2842 44.3317 56.0358C41.8245 56.7873 40.5569 58.599 40.7532 58.7Z" fill="#455A64"/>
<path d="M42.1826 38.306C42.2499 38.306 42.435 37.8404 42.9791 37.1113C43.7913 36.1142 44.8193 35.3144 45.9855 34.7723C48.9077 33.3477 53.5183 32.4615 58.5326 32.6858C62.8374 32.9517 67.0911 33.7621 71.192 35.0977C74.3666 36.0848 76.3017 36.8084 76.3522 36.6906C75.9594 36.3983 75.5244 36.1676 75.0622 36.0063C74.2096 35.6193 72.9588 35.1033 71.3827 34.5312C67.266 33.0099 62.9473 32.1046 58.5663 31.8445C53.4173 31.6201 48.717 32.6129 45.705 34.2451C44.494 34.8682 43.4628 35.7912 42.7099 36.9262C42.4156 37.3316 42.2338 37.8076 42.1826 38.306Z" fill="#455A64"/>
<path d="M40.5957 45.9554C40.7528 46.0171 41.1903 44.2334 43.0075 42.074C45.4374 39.3143 48.6862 37.4039 52.2791 36.6221C56.4802 35.6798 60.4625 36.0612 63.2726 36.3921C66.0827 36.7231 67.8495 37.0989 67.8775 36.953C67.9056 36.8072 66.1949 36.308 63.3623 35.7864C59.6419 35.0347 55.8088 35.0347 52.0884 35.7864C47.7022 36.7792 44.2359 39.3256 42.5532 41.6814C41.839 42.5938 41.2713 43.6118 40.8705 44.699C40.6895 45.0931 40.5958 45.5217 40.5957 45.9554Z" fill="#455A64"/>
<path d="M34.2468 73.9114C34.3253 73.7824 32.8895 73.0196 30.8815 71.4996C29.7058 70.6236 28.7305 69.5069 28.0209 68.2239C27.5978 67.4652 27.3553 66.619 27.3125 65.7512C27.2697 64.8835 27.4277 64.0175 27.7741 63.2208C28.1201 62.4197 28.6208 61.6948 29.2473 61.0875C29.8739 60.4802 30.6141 60.0024 31.4255 59.6816C32.7909 59.184 34.2704 59.0886 35.6883 59.4067C38.1506 59.9676 39.3566 61.1455 39.4463 61.0109C39.4463 60.9716 39.2219 60.6519 38.6386 60.1976C37.8 59.5661 36.848 59.1015 35.8342 58.829C34.2998 58.3988 32.6714 58.4418 31.1619 58.9524C30.2404 59.2931 29.3971 59.8165 28.6829 60.4912C27.9687 61.1659 27.3982 61.9779 27.0057 62.8786C26.6117 63.7885 26.4369 64.7782 26.4954 65.768C26.5538 66.7579 26.8439 67.7201 27.3422 68.5773C28.1341 69.9289 29.226 71.0803 30.5337 71.9427C31.3831 72.5337 32.2777 73.0569 33.2092 73.5076C33.843 73.8217 34.2188 73.9619 34.2468 73.9114Z" fill="#455A64"/>
<path d="M33.5849 73.9907C33.3061 74.3642 33.0867 74.7786 32.9343 75.2191C32.4155 76.3696 31.9696 77.5517 31.5994 78.7583C31.016 80.5711 30.7152 82.4629 30.7076 84.3672C30.6852 86.7309 31.3602 89.0487 32.6483 91.0307C33.3154 92.0264 34.1826 92.8723 35.1946 93.5145C36.2067 94.1566 37.3414 94.581 38.5264 94.7606C39.4976 94.8989 40.4877 94.8053 41.4158 94.4875C42.3439 94.1697 43.1836 93.6367 43.8661 92.9321C44.8164 92.0145 45.4123 90.7909 45.5488 89.477C45.6252 89.0039 45.5629 88.5188 45.3693 88.0804C45.2908 88.0804 45.3693 88.5852 45.2235 89.4321C44.9116 90.8919 44.054 92.1775 42.8259 93.0262C41.5978 93.8748 40.0919 94.2223 38.6162 93.9978C37.5483 93.8129 36.5289 93.4134 35.6198 92.8234C34.7107 92.2334 33.9307 91.4652 33.3269 90.5651C32.1349 88.7028 31.4987 86.5391 31.4928 84.328C31.4723 82.5006 31.7045 80.6792 32.1827 78.9154C32.9792 75.8865 33.7252 74.0412 33.5849 73.9907Z" fill="#455A64"/>
<path d="M55.5718 47.4199C57.3442 50.9479 55.9868 55.2219 54.1751 58.7275C52.3635 62.2331 50.0414 65.7106 49.8899 69.6537C49.6375 76.261 55.5381 82.1055 54.7248 88.668C54.4452 90.6228 53.5861 92.449 52.2584 93.9107C50.9306 95.3724 49.1952 96.4026 47.2762 96.8682C50.4059 94.7649 50.6864 90.1656 49.5197 86.5927C48.3531 83.0198 42.5422 73.608 41.7065 69.9342C38.902 57.5945 40.0911 56.1586 44.4044 51.8229" fill="#263238"/>
<path d="M43.6807 56.215C43.6807 56.316 44.5444 56.5179 45.9691 56.3104C47.8377 56.0226 49.5781 55.1842 50.9679 53.9024C52.3576 52.6205 53.3336 50.9534 53.7711 49.1141C54.0908 47.7119 53.9562 46.8201 53.8553 46.8201C53.7543 46.8201 53.6309 47.6726 53.1822 48.9403C52.613 50.59 51.6504 52.0762 50.3777 53.2703C49.0835 54.4381 47.5271 55.2769 45.8401 55.7158C44.5444 56.058 43.6807 56.0804 43.6807 56.215Z" fill="#455A64"/>
<path d="M48.818 92.9414C48.818 92.9414 48.9862 92.8685 49.2554 92.6609C49.6419 92.3434 49.9902 91.982 50.2931 91.584C51.4166 90.0819 52.0086 88.2488 51.9758 86.3733C51.9643 85.068 51.633 83.7854 51.011 82.6378C50.2463 81.3918 49.3245 80.2495 48.2683 79.2388C47.16 78.1758 46.2552 76.9194 45.5984 75.5312C44.9433 74.0325 44.642 72.4031 44.7178 70.7693C44.7854 69.1345 45.2493 67.5407 46.0696 66.1251C46.8758 64.796 47.7973 63.5403 48.8236 62.3727C50.6466 60.3655 52.1591 58.0968 53.3107 55.642C54.0786 53.9745 54.5312 52.1794 54.6456 50.3472C54.7208 49.6783 54.6714 49.0012 54.4998 48.3504C54.3203 48.3167 54.7466 51.2895 52.7554 55.3896C51.5467 57.7477 50.0158 59.9262 48.2066 61.8623C47.1265 63.0512 46.1612 64.3395 45.3236 65.71C44.4211 67.2448 43.9124 68.979 43.8428 70.7581C43.7624 72.5264 44.0946 74.2892 44.8132 75.907C45.5167 77.3837 46.4908 78.7155 47.6849 79.8333C48.7103 80.7844 49.6145 81.8582 50.3772 83.0304C50.9689 84.0714 51.3035 85.2386 51.3532 86.435C51.4383 88.1973 50.9717 89.9424 50.0183 91.427C49.3228 92.431 48.7619 92.8797 48.818 92.9414Z" fill="#455A64"/>
<path d="M42.2393 55.7494C42.2001 55.7158 41.8579 55.9569 41.3307 56.5178C40.5988 57.3212 40.0021 58.238 39.5639 59.2326C38.3916 61.7117 37.8812 65.7165 39.1152 69.7605C40.2458 73.1358 42.0532 76.2448 44.4268 78.8975C46.1992 80.9391 47.45 82.0441 47.5286 81.9712C47.6071 81.8982 46.5302 80.625 44.898 78.5104C43.2658 76.3959 41.1175 73.3558 39.9172 69.5081C38.8803 66.2308 38.9473 62.7037 40.1079 59.4681C41.0615 57.0058 42.3683 55.8616 42.2393 55.7494Z" fill="#455A64"/>
<path d="M97.7675 181.395C96.9652 179.203 96.6646 176.86 96.8878 174.537C97.1111 172.214 97.8525 169.971 99.0575 167.973C105.059 158.275 103.92 144.533 91.7659 126.702C91.6089 126.472 91.4574 126.237 91.3172 126.001C89.5616 123.101 76.1002 100.907 54.5002 98.7248C50.0691 98.2817 44.8809 99.482 41.5604 102.449C37.3986 106.168 32.5861 112.125 30.5445 118.659C27.0894 129.641 23.5221 153.317 28.2336 167.961C31.5148 178.164 41.0444 198.811 46.5243 210.371C48.953 215.508 42.183 220.265 47.8592 220.511H107.342C105.491 211.98 99.5062 186.319 97.7675 181.395Z" fill="#5B737C"/>
<path d="M73.7783 156.94C73.7783 156.94 125.582 173.105 133.844 171.041C142.106 168.977 190.001 106.735 190.001 106.735L172.484 93.7671L128.707 137.584L86.8471 122.608L73.7783 156.94Z" fill="#FFBE9D"/>
<path d="M133.12 137.989C132.995 137.969 132.871 137.941 132.75 137.905L131.718 137.607L127.921 136.485C124.718 135.515 120.293 134.18 115.424 132.649C110.555 131.118 106.169 129.643 103.017 128.515C101.441 127.954 100.168 127.483 99.2983 127.141L98.2943 126.748C98.1746 126.709 98.0598 126.657 97.9521 126.591C98.076 126.616 98.1979 126.65 98.3167 126.692L99.3376 127.034L103.084 128.319C106.248 129.396 110.64 130.832 115.514 132.369L127.982 136.295L131.752 137.518L132.767 137.871C132.889 137.896 133.008 137.935 133.12 137.989Z" fill="#EB996E"/>
<path d="M167.155 99.0963C167.155 99.0963 166.14 95.9328 167.155 93.1171C167.773 91.6655 168.594 90.3094 169.595 89.0899C169.885 88.7166 170.25 88.4077 170.665 88.1829C171.081 87.9582 171.539 87.8225 172.011 87.7845C172.482 87.7465 172.956 87.8071 173.402 87.9623C173.849 88.1175 174.258 88.364 174.604 88.6861L183.472 77.8048C183.472 77.8048 187.701 75.0003 190.32 79.2182C190.32 79.2182 190.92 76.4811 192.934 78.0516C194.948 79.6221 193.944 84.0531 193.944 84.0531C193.944 84.0531 196.361 84.4514 195.351 90.4978C195.351 90.4978 196.473 92.7133 195.598 96.7405C194.723 100.768 189.109 109.641 187.499 111.643L182.255 118.795" fill="#FFBE9D"/>
<path d="M182.25 118.795C182.275 118.748 182.303 118.703 182.334 118.66L182.598 118.279C182.844 117.931 183.198 117.443 183.641 116.815L187.567 111.374C188.42 110.252 189.25 108.9 190.175 107.448C191.101 105.995 192.004 104.413 192.918 102.703C193.367 101.839 193.827 100.947 194.242 100.016C194.7 99.0723 195.075 98.0908 195.363 97.0824C195.63 96.026 195.77 94.9413 195.778 93.8517C195.806 92.7264 195.616 91.6065 195.218 90.5536V90.5088V90.4695C195.415 89.3385 195.482 88.1887 195.42 87.0424C195.38 86.4652 195.251 85.8976 195.038 85.3598C194.944 85.0972 194.795 84.8576 194.602 84.6566C194.409 84.4555 194.175 84.2976 193.916 84.1931L193.771 84.1538L193.799 84.0192C193.943 83.3023 194.024 82.5741 194.04 81.843C194.072 81.0854 193.981 80.3277 193.771 79.5994C193.641 79.1771 193.429 78.7845 193.148 78.4439C192.855 78.1256 192.487 77.8864 192.077 77.7484C191.893 77.6967 191.699 77.6967 191.516 77.7484C191.328 77.8248 191.161 77.9439 191.028 78.0962C190.762 78.4255 190.571 78.8081 190.467 79.218L190.377 79.5489L190.203 79.2628C189.886 78.6926 189.447 78.1991 188.918 77.8172C188.389 77.4353 187.782 77.1744 187.141 77.0529C185.884 76.9208 184.619 77.2173 183.551 77.8943H183.585L175.839 87.3678L174.975 88.4222L174.762 88.6802L174.711 88.7475C174.38 88.7756 174.616 88.7475 174.543 88.7475H174.509L174.386 88.641C174.223 88.5072 174.046 88.3907 173.859 88.2932C173.137 87.9054 172.297 87.8014 171.503 88.0016C170.766 88.1856 170.115 88.6173 169.658 89.2243C169.203 89.7852 168.794 90.3854 168.424 90.9519C168.072 91.4898 167.759 92.0521 167.487 92.6345C167.254 93.1464 167.079 93.6825 166.965 94.2331C166.804 95.1134 166.759 96.0109 166.831 96.9029C166.876 97.4683 166.956 98.0303 167.072 98.5856C167.111 98.7651 167.139 98.8997 167.167 99.0119C167.183 99.059 167.193 99.1081 167.195 99.1577C167.172 99.1128 167.154 99.0659 167.139 99.0175L167.022 98.5968C166.888 98.0433 166.795 97.481 166.741 96.9141C166.648 96.011 166.681 95.0994 166.836 94.205C166.945 93.6418 167.116 93.0925 167.347 92.5672C167.618 91.9853 167.929 91.423 168.278 90.8846C168.652 90.3124 169.061 89.7291 169.506 89.1346C169.988 88.4905 170.674 88.0295 171.453 87.8277C172.298 87.6099 173.194 87.716 173.965 88.125C174.164 88.2293 174.352 88.3533 174.526 88.4951L174.655 88.6017H174.689C174.616 88.6017 174.857 88.6017 174.532 88.6017L174.582 88.54L174.795 88.2764L175.654 87.2219L183.366 77.7204C184.487 76.9987 185.821 76.6839 187.146 76.8286C187.83 76.9546 188.477 77.2294 189.042 77.6337C189.607 78.0379 190.076 78.5616 190.416 79.1675L190.147 79.2124C190.258 78.7499 190.468 78.3172 190.764 77.9447C190.93 77.7531 191.14 77.6048 191.375 77.5129C191.622 77.4371 191.886 77.4371 192.133 77.5129C192.596 77.6637 193.011 77.9324 193.339 78.2925C193.651 78.6647 193.886 79.0957 194.029 79.5601C194.249 80.3135 194.344 81.098 194.309 81.8822C194.295 82.6363 194.21 83.3874 194.057 84.1258L193.939 83.9519C194.247 84.0616 194.527 84.2389 194.758 84.4708C194.989 84.7028 195.165 84.9835 195.274 85.2924C195.501 85.8603 195.637 86.4603 195.678 87.0705C195.743 88.2396 195.672 89.4124 195.464 90.5648V90.4807C195.874 91.5734 196.065 92.7359 196.025 93.9021C196.014 95.0148 195.869 96.1222 195.593 97.2002C195.303 98.2208 194.928 99.2152 194.472 100.173C194.045 101.11 193.58 102.001 193.125 102.865C192.2 104.582 191.258 106.163 190.321 107.61C189.384 109.057 188.549 110.381 187.674 111.537C185.991 113.825 184.611 115.659 183.663 116.927C183.198 117.544 182.839 118.049 182.581 118.363L182.3 118.733C182.284 118.754 182.267 118.775 182.25 118.795Z" fill="#EB996E"/>
<path d="M185.267 85.7467C186.088 84.6575 186.984 83.6267 187.948 82.6618C188.845 81.6357 189.812 80.6724 190.842 79.7788C190.025 80.8713 189.129 81.9024 188.161 82.8637C187.268 83.8947 186.301 84.8583 185.267 85.7467Z" fill="#EB996E"/>
<path d="M171.705 93.1111C172.13 92.195 172.619 91.3103 173.169 90.4637C173.632 89.5695 174.161 88.7108 174.751 87.8948C174.419 88.8499 173.972 89.7614 173.421 90.6095C172.95 91.508 172.374 92.3476 171.705 93.1111Z" fill="#EB996E"/>
<path d="M190.494 90.3518C190.427 90.307 191.296 88.787 192.294 86.8743C193.293 84.9617 194.044 83.3743 194.123 83.408C194.043 83.7856 193.915 84.1513 193.741 84.4961C193.467 85.1524 193.057 86.0442 192.552 87.0089C192.048 87.9737 191.554 88.8206 191.173 89.4152C190.992 89.7582 190.764 90.0736 190.494 90.3518Z" fill="#EB996E"/>
<path d="M193.137 96.4926C193.403 95.2177 193.761 93.9636 194.208 92.7403C194.564 91.4872 195.014 90.2628 195.554 89.0776C195.288 90.3526 194.93 91.6067 194.483 92.83C194.127 94.0831 193.677 95.3074 193.137 96.4926Z" fill="#EB996E"/>
<path d="M56.4012 100.435C56.4012 100.435 70.7489 102.264 80.3906 111.608C94.5868 125.372 98.0924 126.191 98.098 126.326C98.1036 126.46 76.0886 161.892 76.0886 161.892L56.4012 152.318L44.7627 117.733L56.4012 100.435Z" fill="#5B737C"/>
<path d="M73.5425 159.683C73.4043 159.68 73.2669 159.661 73.1331 159.627L71.972 159.408C71.4672 159.318 70.8503 159.189 70.1379 159.004C69.4256 158.819 68.6179 158.651 67.7373 158.376L66.3519 157.966C65.8695 157.826 65.3815 157.641 64.8655 157.473C63.8335 157.142 62.7622 156.704 61.6292 156.267C59.1889 155.256 56.8104 154.102 54.5058 152.812C52.2151 151.496 50.005 150.044 47.8873 148.465C46.9282 147.713 46.0027 147.018 45.1894 146.3C44.7799 145.946 44.3761 145.621 44.0059 145.279C43.6357 144.937 43.3048 144.612 42.9458 144.314C42.2559 143.703 41.6894 143.091 41.1734 142.575C40.6574 142.059 40.2255 141.6 39.889 141.213L39.1037 140.326C39.0039 140.23 38.9172 140.12 38.8457 140.001C38.9535 140.089 39.0548 140.184 39.1486 140.287L39.9675 141.134C40.3209 141.51 40.7583 141.964 41.2856 142.463C41.8128 142.962 42.4074 143.585 43.0861 144.146L44.1517 145.111C44.5275 145.447 44.937 145.767 45.3465 146.115C46.1654 146.821 47.0908 147.511 48.05 148.246C50.1671 149.808 52.3712 151.248 54.6517 152.559C56.9446 153.843 59.3078 154.996 61.7301 156.014C62.8519 156.463 63.9232 156.901 64.9497 157.243C65.4545 157.417 65.9424 157.602 66.4192 157.753L67.799 158.18C68.6684 158.466 69.4817 158.656 70.1828 158.847C70.8839 159.038 71.4953 159.189 71.9945 159.301L73.1163 159.571C73.2608 159.598 73.4032 159.635 73.5425 159.683Z" fill="#263238"/>
<path d="M91.4973 214.236C91.3685 214.245 91.2392 214.245 91.1103 214.236L89.9885 214.169C89.5118 214.169 88.9284 214.096 88.2554 214.012C87.5823 213.928 86.8083 213.86 85.9669 213.709C85.1256 213.557 84.1945 213.423 83.2129 213.204C82.2314 212.985 81.1881 212.744 80.0888 212.464C75.3388 211.189 70.7742 209.304 66.5095 206.855C65.5392 206.294 64.6025 205.733 63.7724 205.172C62.9423 204.611 62.157 204.089 61.4671 203.585C60.7772 203.08 60.1658 202.603 59.633 202.188C59.1001 201.773 58.6458 201.392 58.2868 201.066L57.4623 200.343C57.363 200.261 57.271 200.171 57.1875 200.073C57.3017 200.134 57.4073 200.209 57.5016 200.298L58.3598 200.982C58.73 201.285 59.1843 201.65 59.7283 202.053C60.2724 202.457 60.8782 202.934 61.5849 203.411C62.2916 203.888 63.0488 204.437 63.9014 204.964C64.7539 205.492 65.6682 206.047 66.6442 206.613C70.9087 209.021 75.4547 210.892 80.1785 212.183C81.2722 212.464 82.3043 212.744 83.2858 212.946C84.2674 213.148 85.1817 213.333 86.023 213.479C86.8643 213.625 87.6272 213.726 88.3002 213.827C88.9733 213.928 89.551 213.989 90.0222 214.034L91.144 214.157C91.2643 214.17 91.3829 214.197 91.4973 214.236Z" fill="#263238"/>
<path d="M98.099 126.327L97.9363 126.282L97.482 126.12C97.2353 126.03 96.997 125.92 96.7697 125.789C96.4502 125.621 96.1411 125.433 95.8442 125.228C93.9591 123.953 92.1893 122.515 90.555 120.931C88.4292 118.996 86.0117 116.568 83.1624 114.055C81.7377 112.81 80.1616 111.587 78.5519 110.291C76.9421 108.996 75.2426 107.694 73.459 106.421C70.1557 103.968 66.5421 101.963 62.7123 100.459C59.5697 99.2699 56.2398 98.6526 52.8798 98.636C50.6141 98.6368 48.3635 99.0062 46.2164 99.7297L45.218 100.106C44.932 100.218 44.702 100.335 44.5057 100.42L44.0626 100.61C44.0135 100.634 43.9629 100.655 43.9111 100.672C43.9111 100.672 43.956 100.638 44.0514 100.588L44.4776 100.364C44.6683 100.274 44.8983 100.145 45.1844 100.021L46.1771 99.6232C48.3269 98.8535 50.5909 98.4515 52.8742 98.4341C56.2657 98.4144 59.6322 99.0151 62.8076 100.206C66.6668 101.707 70.3076 103.718 73.6328 106.186C75.4165 107.464 77.1104 108.777 78.7257 110.067C80.3411 111.357 81.9116 112.591 83.3419 113.853C86.1856 116.388 88.5919 118.828 90.6952 120.78C92.3126 122.368 94.0551 123.824 95.9059 125.133C96.1967 125.335 96.4981 125.523 96.8089 125.693C97.0338 125.824 97.2661 125.942 97.5044 126.047L97.9475 126.232C98.0028 126.255 98.0539 126.288 98.099 126.327Z" fill="#263238"/>
<path d="M35.716 128.726C35.6464 128.509 35.5976 128.286 35.5701 128.059C35.4916 127.627 35.4075 126.993 35.3233 126.214C35.1073 124.165 35.0417 122.102 35.127 120.044C35.2074 117.996 35.4342 115.957 35.8057 113.941C35.9515 113.167 36.0918 112.545 36.2039 112.118C36.2469 111.894 36.3127 111.674 36.4003 111.462C36.3994 111.691 36.3712 111.919 36.3161 112.141C36.2376 112.573 36.131 113.201 36.0132 113.975C35.3817 118.007 35.2198 122.099 35.5309 126.169C35.587 126.948 35.6431 127.577 35.6823 128.014C35.7257 128.249 35.737 128.489 35.716 128.726Z" fill="#263238"/>
<path d="M70.1211 209.462C70.0426 209.462 65.8695 196.668 60.7934 180.856C55.7174 165.045 51.6677 152.161 51.7462 152.133C51.8248 152.105 55.9978 164.927 61.0739 180.766C66.15 196.606 70.2277 209.434 70.1211 209.462Z" fill="#263238"/>
<path d="M69.2175 219.535C69.139 219.535 68.1238 216.579 66.9739 212.883C65.8241 209.187 64.9155 206.152 64.994 206.152C65.0725 206.152 66.0821 209.102 67.2376 212.804C68.393 216.506 69.2904 219.513 69.2175 219.535Z" fill="#263238"/>
<g opacity="0.3">
<path opacity="0.3" d="M78.3044 158.337C73.4134 162.902 48.9472 151.269 39.1484 140.343C39.6073 142.923 40.865 145.293 42.7438 147.119C47.2309 151.488 51.7181 154.837 56.9512 158.987C63.2893 164.035 70.2219 168.708 78.1249 170.508C86.0279 172.309 94.632 170.542 100.157 164.613C92.6969 162.532 83.7562 159.874 78.3044 158.337Z" fill="black"/>
</g>
<path d="M34.684 127.055C34.684 127.106 34.2409 126.921 33.5229 126.814C33.1015 126.751 32.6742 126.738 32.2497 126.775C31.7314 126.822 31.2209 126.933 30.7297 127.106C30.243 127.287 29.7797 127.526 29.3499 127.818C28.9985 128.058 28.6766 128.338 28.3908 128.654C27.9028 129.215 27.6953 129.607 27.6504 129.579C27.7538 129.188 27.9457 128.825 28.2113 128.519C28.4903 128.171 28.8126 127.86 29.1704 127.594C30.0583 126.947 31.1136 126.569 32.2105 126.505C32.6545 126.483 33.0995 126.518 33.5342 126.612C33.9474 126.666 34.3417 126.818 34.684 127.055Z" fill="#FAFAFA"/>
<path d="M84.1657 117.072C83.6004 116.622 82.9804 116.245 82.3204 115.95C80.4828 115.2 78.4511 115.068 76.5319 115.574C74.0808 116.135 71.5232 117.852 69.3076 120.303C67.0921 122.754 65.129 125.861 62.5769 128.761C61.356 130.197 59.9244 131.439 58.331 132.446C56.8272 133.355 55.1815 134.005 53.4624 134.37C51.9111 134.712 50.3179 134.823 48.7341 134.701L48.1732 134.667L47.6123 134.594C47.2589 134.538 46.9056 134.499 46.569 134.432C45.9208 134.301 45.2804 134.135 44.6508 133.932C42.7378 133.345 40.9569 132.393 39.4064 131.128C38.9811 130.786 38.5835 130.411 38.2173 130.006L37.9257 129.703C37.8921 129.669 37.8621 129.631 37.8359 129.591C37.8359 129.591 37.8752 129.619 37.9481 129.681L38.2566 129.967C38.6414 130.344 39.0499 130.696 39.4794 131.021C41.0399 132.24 42.8149 133.155 44.7125 133.719C45.3548 133.923 46.0084 134.09 46.67 134.218C47.0009 134.28 47.3487 134.314 47.702 134.364L48.2293 134.437L48.7902 134.465C50.349 134.574 51.9155 134.455 53.44 134.112C55.1278 133.749 56.743 133.106 58.2188 132.21C59.7854 131.215 61.194 129.989 62.3974 128.576C64.9158 125.704 66.8509 122.563 69.1281 120.123C71.4054 117.683 73.9911 115.9 76.4983 115.378C78.4578 114.881 80.5266 115.047 82.382 115.849C82.8766 116.076 83.3418 116.363 83.7675 116.702L84.0816 116.982L84.1657 117.072Z" fill="#FAFAFA"/>
<path d="M83.6891 146.351C83.6474 146.44 83.5967 146.525 83.5377 146.603C83.4311 146.766 83.2853 147.013 83.0609 147.305C82.443 148.145 81.7584 148.935 81.0136 149.666C78.5528 152.104 75.5253 153.892 72.2027 154.871C68.8801 155.85 65.3664 155.989 61.9769 155.275C60.9666 155.066 59.9744 154.777 59.0098 154.411C58.6621 154.288 58.404 154.159 58.2246 154.086C58.1333 154.048 58.0452 154.003 57.9609 153.951C58.3294 154.044 58.6911 154.162 59.0435 154.305C60.0252 154.629 61.0278 154.888 62.0442 155.079C65.4007 155.726 68.8636 155.559 72.1421 154.591C75.4205 153.623 78.4187 151.882 80.8846 149.515C81.6351 148.803 82.3378 148.042 82.988 147.237C83.204 146.928 83.4381 146.632 83.6891 146.351Z" fill="#FAFAFA"/>
<path d="M54.6405 163.296C54.5921 163.303 54.543 163.303 54.4946 163.296H54.074C53.8442 163.283 53.6139 163.283 53.3841 163.296C53.0729 163.292 52.7619 163.309 52.453 163.346C50.4631 163.536 48.5627 164.265 46.9562 165.455C45.8509 166.26 44.9119 167.271 44.191 168.433C43.3355 169.75 42.9138 171.301 42.9851 172.87C43.0467 173.693 43.3535 174.478 43.8657 175.125C44.401 175.809 45.1698 176.273 46.0251 176.426C46.4662 176.48 46.9139 176.436 47.3357 176.296C47.7576 176.156 48.1433 175.925 48.465 175.618C49.1469 174.985 49.5922 174.138 49.727 173.218C49.9242 171.363 49.4507 169.498 48.3921 167.962C47.4367 166.509 46.1483 165.306 44.6341 164.451C43.272 163.663 41.7717 163.144 40.2143 162.92C38.8541 162.732 37.4744 162.732 36.1142 162.92C34.1356 163.203 32.2108 163.781 30.4043 164.636C29.7593 164.933 29.2825 165.197 28.946 165.36L28.5702 165.556C28.486 165.601 28.4412 165.623 28.4355 165.618L28.5533 165.534L28.9179 165.309C29.2376 165.118 29.7144 164.844 30.3538 164.53C32.1555 163.633 34.0856 163.022 36.0749 162.718C37.4552 162.507 38.8584 162.494 40.2423 162.679C41.8341 162.899 43.3688 163.422 44.7631 164.221C46.3177 165.092 47.6424 166.32 48.6277 167.805C49.7267 169.4 50.2164 171.337 50.0075 173.263C49.8648 174.25 49.3853 175.157 48.6501 175.832C48.2988 176.168 47.8768 176.422 47.4149 176.574C46.9529 176.726 46.4628 176.774 45.9803 176.712C45.0549 176.548 44.2234 176.047 43.647 175.304C43.108 174.6 42.7933 173.75 42.7439 172.864C42.6769 171.239 43.1222 169.634 44.0171 168.276C44.7566 167.088 45.7229 166.057 46.8609 165.242C48.5039 164.05 50.4457 163.337 52.4698 163.183C52.7855 163.164 53.102 163.164 53.4177 163.183C53.6485 163.182 53.879 163.197 54.1076 163.228L54.5283 163.284C54.566 163.283 54.6038 163.286 54.6405 163.296Z" fill="#FAFAFA"/>
<path d="M97.4762 181.228L97.3079 181.352L96.8031 181.682C96.1427 182.094 95.4528 182.455 94.739 182.765C93.6121 183.269 92.4325 183.645 91.2222 183.887C89.6191 184.218 87.9726 184.285 86.348 184.083C85.3923 183.96 84.4523 183.736 83.5436 183.416C82.5739 183.053 81.6541 182.568 80.8064 181.974C78.9204 180.659 77.4508 178.832 76.5717 176.707C76.0988 175.558 75.8421 174.332 75.8145 173.09C75.8018 172.447 75.862 171.806 75.994 171.177C76.2927 169.88 76.9271 168.685 77.8337 167.711C78.2931 167.203 78.8379 166.78 79.4434 166.46C80.059 166.121 80.7442 165.93 81.4458 165.899C82.1617 165.885 82.8677 166.068 83.4875 166.426C84.0833 166.8 84.5897 167.3 84.9706 167.891C85.3516 168.483 85.5978 169.151 85.6918 169.848C85.9354 171.189 85.7159 172.574 85.0692 173.774C84.3936 174.896 83.4237 175.811 82.2647 176.421C81.1651 176.993 79.9757 177.373 78.7479 177.543C77.5858 177.72 76.4057 177.746 75.2367 177.622C74.1368 177.526 73.0467 177.338 71.978 177.061C70.0643 176.553 68.2117 175.839 66.4532 174.929C63.9265 173.596 61.509 172.066 59.2233 170.352C58.4044 169.758 57.7818 169.287 57.3555 168.961L56.8787 168.591C56.8223 168.551 56.7698 168.506 56.7217 168.457C56.784 168.487 56.8424 168.524 56.8956 168.569L57.3948 168.917L59.285 170.263C61.6025 171.935 64.0395 173.434 66.5766 174.75C68.3255 175.639 70.1645 176.338 72.0621 176.836C73.1163 177.113 74.1911 177.304 75.276 177.408C76.4234 177.522 77.5805 177.49 78.7199 177.313C79.919 177.142 81.0789 176.762 82.147 176.191C83.2589 175.607 84.1884 174.728 84.8336 173.65C85.449 172.506 85.6567 171.187 85.4226 169.909C85.3369 169.254 85.1075 168.625 84.7507 168.069C84.3939 167.512 83.9185 167.041 83.3585 166.69C82.785 166.357 82.1312 166.188 81.4683 166.202C80.8138 166.223 80.1729 166.393 79.5949 166.701C78.4603 167.336 77.5406 168.295 76.9531 169.455C76.653 170.012 76.4285 170.606 76.2856 171.222C76.1581 171.828 76.0998 172.447 76.1118 173.067C76.1343 174.276 76.3816 175.471 76.8409 176.59C77.4634 178.095 78.3877 179.457 79.5569 180.592C80.7261 181.726 82.1153 182.609 83.6389 183.186C84.5212 183.506 85.4349 183.732 86.3649 183.859C87.9683 184.069 89.5952 184.02 91.1829 183.713C92.384 183.482 93.5572 183.125 94.6829 182.647C95.3952 182.348 96.0883 182.005 96.7582 181.621L97.2798 181.312C97.3414 181.276 97.4074 181.248 97.4762 181.228Z" fill="#FAFAFA"/>
<path d="M63.0255 190.219C62.7025 190.243 62.3782 190.243 62.0552 190.219C61.7467 190.219 61.3653 190.219 60.9334 190.219C60.5015 190.219 59.9911 190.219 59.4358 190.275C58.8805 190.331 58.2804 190.348 57.6354 190.438C56.9903 190.527 56.3004 190.628 55.5825 190.752C52.464 191.347 49.4572 192.423 46.6699 193.943C46.0361 194.308 45.4247 194.644 44.8806 195.003C44.3366 195.362 43.8318 195.699 43.3831 196.018C42.9343 196.338 42.5417 196.658 42.194 196.927C41.8462 197.196 41.5546 197.437 41.319 197.645C41.0828 197.864 40.8317 198.067 40.5674 198.251C40.771 197.998 40.9983 197.765 41.2461 197.555C41.4648 197.337 41.7453 197.079 42.0874 196.798C42.4295 196.518 42.8053 196.181 43.2597 195.856C43.714 195.53 44.1964 195.155 44.7516 194.801C45.3069 194.448 45.8734 194.083 46.5409 193.708C49.3477 192.147 52.3933 191.061 55.5544 190.494C56.2836 190.376 56.9735 190.252 57.6297 190.202C58.286 190.151 58.8918 190.095 59.4526 190.073C60.0135 190.051 60.5127 190.073 60.9558 190.073C61.3304 190.07 61.7048 190.087 62.0776 190.123C62.3956 190.13 62.7126 190.162 63.0255 190.219Z" fill="#FAFAFA"/>
<path d="M101.486 198.312C101.4 198.401 101.307 198.481 101.206 198.553C101.009 198.704 100.735 198.94 100.348 199.204C99.278 199.973 98.1532 200.663 96.9823 201.268C93.1023 203.287 88.8145 204.399 84.4422 204.519C80.0699 204.64 75.7273 203.766 71.7421 201.963C70.5388 201.427 69.3765 200.802 68.2645 200.095C67.8663 199.854 67.5802 199.63 67.3783 199.495C67.2729 199.427 67.1734 199.35 67.0811 199.265C67.1971 199.31 67.3065 199.371 67.4064 199.445C67.6195 199.568 67.9224 199.77 68.3262 200.006C69.4554 200.669 70.6242 201.263 71.8262 201.784C75.7984 203.518 80.1043 204.355 84.437 204.235C88.7698 204.115 93.0226 203.04 96.8925 201.088C98.0663 200.503 99.2016 199.844 100.292 199.114C100.684 198.867 100.97 198.648 101.178 198.514C101.271 198.433 101.375 198.365 101.486 198.312Z" fill="#FAFAFA"/>
<path d="M69.4194 104.692C69.4194 104.692 69.4194 104.748 69.4194 104.849L69.3297 105.315C69.1697 105.903 68.936 106.468 68.6342 106.997C67.8658 108.394 66.1663 110.054 63.6759 111.4C62.3213 112.14 60.9088 112.769 59.4524 113.279C57.7748 113.886 55.9962 114.164 54.2136 114.098C52.2152 114.034 50.2999 113.283 48.7898 111.973C48.0132 111.256 47.414 110.369 47.0398 109.381C46.6385 108.361 46.5449 107.246 46.7706 106.173C47.0081 105.113 47.5888 104.162 48.4224 103.466C49.2561 102.77 50.2962 102.369 51.3811 102.325C51.8986 102.339 52.4081 102.457 52.8785 102.673C53.349 102.889 53.7708 103.198 54.1183 103.582C54.8053 104.307 55.2042 105.258 55.2401 106.257C55.238 106.731 55.1337 107.199 54.9343 107.628C54.7349 108.058 54.4451 108.44 54.0846 108.747C53.4104 109.313 52.6038 109.699 51.7401 109.869C50.2094 110.154 48.6354 110.109 47.1239 109.735C44.9325 109.263 42.866 108.332 41.0607 107.003C40.3908 106.531 39.7756 105.985 39.2266 105.376C39.2726 105.406 39.3158 105.44 39.3556 105.477L39.7033 105.792C40.1577 106.191 40.6333 106.565 41.128 106.913C42.9313 108.191 44.9778 109.084 47.1408 109.538C48.624 109.889 50.1648 109.922 51.6616 109.634C52.4898 109.474 53.2628 109.103 53.9051 108.557C54.2351 108.271 54.5 107.918 54.6819 107.521C54.8638 107.125 54.9585 106.693 54.9596 106.257C54.9207 105.329 54.5483 104.447 53.9107 103.772C53.5886 103.417 53.1978 103.132 52.7621 102.932C52.3263 102.732 51.8546 102.623 51.3755 102.611C50.356 102.659 49.3802 103.039 48.598 103.695C47.8157 104.35 47.2703 105.245 47.0454 106.24C46.8375 107.257 46.9271 108.313 47.3034 109.28C47.6665 110.227 48.2422 111.077 48.9861 111.765C50.4446 113.032 52.2938 113.761 54.2248 113.829C55.9752 113.9 57.7229 113.635 59.3738 113.049C60.8125 112.55 62.2097 111.939 63.5525 111.221C66.0316 109.908 67.7255 108.293 68.5108 106.941C68.9259 106.242 69.2322 105.484 69.4194 104.692Z" fill="#FAFAFA"/>
<path d="M67.4235 215.986C66.9232 216.052 66.4193 216.088 65.9147 216.093C63.4905 216.257 61.1237 216.906 58.954 218C58.5147 218.251 58.0615 218.478 57.5967 218.678C57.9746 218.335 58.3972 218.044 58.8531 217.815C59.9287 217.212 61.074 216.743 62.2633 216.418C63.45 216.09 64.6727 215.911 65.9035 215.885C66.4124 215.85 66.9237 215.884 67.4235 215.986Z" fill="#FAFAFA"/>
<path d="M88.7375 218.509C88.5039 218.587 88.2636 218.643 88.0196 218.677C87.3627 218.8 86.7 218.89 86.034 218.946C81.6096 219.334 77.159 218.599 73.0942 216.809C72.3202 216.461 71.7088 216.153 71.2993 215.917C71.0787 215.808 70.8701 215.677 70.6768 215.525C70.9108 215.595 71.1365 215.691 71.3498 215.811C71.7761 216.018 72.3987 216.299 73.1727 216.618C77.2387 218.288 81.6304 219.013 86.0172 218.739C86.8585 218.688 87.5372 218.626 88.0027 218.565C88.2448 218.518 88.4913 218.499 88.7375 218.509Z" fill="#FAFAFA"/>
<path d="M109.894 131.005C109.894 131.005 112.889 125.486 116.064 126.433C119.238 127.381 119.659 128.01 119.659 128.01C119.659 128.01 121.577 125.328 124.892 127.853C124.892 127.853 128.672 125.328 132.296 128.01C132.296 128.01 135.605 126.007 137.495 128.666C139.385 131.324 143.172 137.78 142.7 145.19C142.229 152.599 139.442 176.936 139.442 176.936L113.977 181.379C113.977 181.379 119.659 158.421 117.309 156.251C112.592 151.904 110.455 142.789 110.455 142.789L104.846 133.815C104.846 133.815 105.967 129.086 108.946 132.082C111.056 134.244 113.054 136.513 114.931 138.88L114.302 132.71C114.302 132.71 110.208 134.157 109.894 131.005Z" fill="#FCAD85"/>
<path d="M114.078 130.096C114.264 130.637 114.355 131.206 114.347 131.778C114.443 132.345 114.443 132.923 114.347 133.489C114.162 132.948 114.07 132.379 114.078 131.806C113.982 131.24 113.982 130.662 114.078 130.096Z" fill="#7C5142"/>
<path d="M122.391 135.464C122.307 135.464 121.987 133.719 121.241 131.655C120.495 129.591 119.626 128.026 119.704 127.987C119.97 128.278 120.187 128.609 120.349 128.968C120.807 129.8 121.197 130.666 121.516 131.56C121.837 132.451 122.089 133.366 122.267 134.297C122.367 134.677 122.408 135.071 122.391 135.464Z" fill="#7C5142"/>
<path d="M127.304 133.238C127.038 132.168 126.662 131.128 126.182 130.136C125.624 129.189 124.968 128.304 124.225 127.494C125.15 128.144 125.909 129.002 126.44 130C126.971 130.998 127.259 132.107 127.281 133.238H127.304Z" fill="#7C5142"/>
<path d="M134.461 132.844C134.377 132.872 133.962 131.582 133.272 130.074C132.582 128.565 131.903 127.398 131.976 127.353C133.222 128.965 134.073 130.845 134.461 132.844Z" fill="#7C5142"/>
<path d="M117.819 156.917C117.828 156.965 117.828 157.015 117.819 157.063C117.819 157.175 117.819 157.315 117.819 157.489C117.819 157.865 117.819 158.42 117.819 159.138C117.752 161.157 117.565 163.171 117.258 165.168C116.792 168.13 116.069 171.046 115.099 173.884C114.033 177.098 112.603 180.531 111.246 184.176C109.948 187.594 108.985 191.129 108.368 194.732C107.86 197.673 107.783 200.671 108.138 203.634C108.386 205.631 108.918 207.582 109.72 209.428C109.834 209.722 109.967 210.009 110.118 210.286L110.438 210.903C110.511 211.06 110.578 211.183 110.629 211.29C110.651 211.333 110.67 211.378 110.685 211.425C110.651 211.387 110.623 211.346 110.601 211.301L110.387 210.931L110.045 210.325C109.881 210.053 109.738 209.768 109.619 209.473C108.771 207.631 108.204 205.672 107.936 203.662C107.551 200.678 107.61 197.654 108.11 194.688C108.716 191.063 109.682 187.508 110.993 184.075C112.356 180.418 113.798 176.991 114.863 173.8C115.85 170.98 116.6 168.084 117.107 165.14C117.424 163.15 117.636 161.145 117.741 159.133C117.741 158.437 117.78 157.887 117.797 157.489C117.797 157.315 117.797 157.175 117.797 157.063C117.797 157.013 117.805 156.964 117.819 156.917Z" fill="#7C5142"/>
<path d="M161.76 134.274C161.76 134.274 169.73 162.14 171.329 171.45C172.927 180.761 180.073 204.919 194.695 200.134C209.318 195.35 211.988 183.089 211.455 169.801C210.922 156.514 203.681 125.244 203.681 125.244L184.796 138.055L181.43 123.853L161.76 134.274Z" fill="#FCAD85"/>
<path d="M164.576 97.446C164.576 97.446 160.218 94.1423 157.155 99.095C157.155 99.095 155.147 96.7 152.792 98.5341C150.436 100.368 152.326 104.749 152.326 104.749C152.326 104.749 149.673 104.423 150.851 111.48C150.851 111.48 147.486 113.678 150.083 118.771C152.27 123.062 159.876 131.896 161.76 134.252L164.565 138.885L181.134 125.244C181.134 125.244 184.835 118.648 183.658 115.35C182.951 113.668 182.006 112.096 180.853 110.683C180.515 110.24 180.088 109.872 179.6 109.603C179.111 109.334 178.572 109.17 178.017 109.121C177.461 109.072 176.902 109.14 176.374 109.321C175.847 109.501 175.362 109.789 174.953 110.167L164.576 97.446Z" fill="#FCAD85"/>
<path d="M162.809 106.735C162.691 106.858 161.469 105.052 159.96 102.937C159.203 101.866 158.501 100.907 157.985 100.223C157.682 99.8691 157.405 99.4942 157.155 99.1008C157.532 99.3813 157.864 99.7158 158.142 100.094C158.703 100.744 159.438 101.692 160.195 102.769C160.953 103.846 161.614 104.839 162.08 105.574L162.809 106.735Z" fill="#7C5142"/>
<path d="M178.329 115.339C178.295 115.367 178.054 115.058 177.672 114.553C177.291 114.049 176.758 113.364 176.197 112.579C175.458 111.67 174.867 110.65 174.447 109.556C174.515 109.522 175.289 110.868 176.433 112.411C177.169 113.315 177.805 114.297 178.329 115.339Z" fill="#7C5142"/>
<path d="M156.353 112.113C156.047 111.773 155.785 111.397 155.573 110.991C155.13 110.29 154.552 109.309 153.963 108.187C153.374 107.065 152.898 106.016 152.572 105.253C152.371 104.85 152.217 104.425 152.112 103.986C152.368 104.355 152.584 104.75 152.757 105.164C153.128 105.91 153.638 106.931 154.227 108.052C154.816 109.174 155.349 110.178 155.753 110.907C155.989 111.29 156.19 111.694 156.353 112.113Z" fill="#7C5142"/>
<path d="M153.722 118.795C153.529 118.462 153.371 118.111 153.251 117.746C152.982 117.089 152.595 116.192 152.129 115.199C151.541 114.023 151.104 112.777 150.828 111.492C151.025 111.823 151.185 112.175 151.305 112.541C151.568 113.197 151.961 114.094 152.427 115.087C153.019 116.261 153.454 117.507 153.722 118.795Z" fill="#7C5142"/>
<path d="M196.327 176.937C196.309 176.895 196.294 176.852 196.282 176.808C196.248 176.702 196.209 176.573 196.164 176.416C196.058 176.04 195.918 175.535 195.732 174.89C195.362 173.544 194.829 171.631 194.179 169.281C192.855 164.553 190.931 158.063 188.777 150.867C186.624 143.671 184.728 137.164 183.455 132.419C182.815 130.047 182.333 128.123 181.985 126.81C181.828 126.165 181.705 125.649 181.615 125.273L181.525 124.875C181.516 124.829 181.516 124.781 181.525 124.735C181.548 124.777 181.565 124.822 181.576 124.869C181.576 124.97 181.643 125.099 181.693 125.262C181.794 125.632 181.94 126.143 182.12 126.782L183.673 132.391C184.997 137.125 186.921 143.609 189.08 150.811C191.24 158.013 193.124 164.508 194.403 169.253C195.037 171.626 195.525 173.549 195.867 174.862C196.024 175.512 196.148 176.023 196.243 176.399C196.277 176.561 196.305 176.69 196.333 176.803C196.338 176.847 196.336 176.893 196.327 176.937Z" fill="#7C5142"/>
<path d="M224.26 200.102C224.302 199.985 224.351 199.871 224.406 199.76L224.871 198.767C225.437 197.483 225.894 196.155 226.24 194.796C227.143 191.268 227.457 185.878 226.122 179.472C225.397 175.984 224.448 172.546 223.278 169.18C222.078 165.528 220.676 161.653 219.537 157.463C218.399 153.273 217.518 148.746 217.692 144.001C217.866 139.256 219.274 134.466 220.827 129.743C222.381 125.021 223.974 120.365 224.456 115.721C224.988 111.235 224.087 106.696 221.882 102.753C219.829 98.9672 217.243 95.7308 215.308 92.3823C213.511 89.2717 212.187 85.9105 211.382 82.4096C210.216 77.3352 210.13 72.0724 211.129 66.9626C211.485 65.0942 212.026 63.266 212.745 61.5051C212.719 61.6282 212.687 61.7499 212.649 61.8697C212.565 62.1277 212.459 62.4699 212.318 62.913C211.916 64.256 211.582 65.6189 211.32 66.9963C210.397 72.0809 210.533 77.3012 211.718 82.3311C212.541 85.7813 213.87 89.0908 215.661 92.1523C217.591 95.4672 220.188 98.6867 222.28 102.518C224.541 106.537 225.47 111.169 224.933 115.749C224.451 120.489 222.841 125.155 221.293 129.895C219.745 134.634 218.348 139.335 218.169 144.018C217.989 148.702 218.864 153.183 219.986 157.345C221.108 161.507 222.487 165.388 223.677 169.051C224.836 172.439 225.773 175.9 226.481 179.41C227.782 185.861 227.406 191.307 226.442 194.846C226.076 196.208 225.586 197.534 224.978 198.806C224.765 199.221 224.591 199.541 224.467 199.782C224.412 199.897 224.342 200.005 224.26 200.102Z" fill="#263238"/>
<path d="M217.934 95.6519C217.934 95.6519 214.007 83.0991 221.052 75.7458C221.106 75.6858 221.176 75.6421 221.254 75.6198C221.332 75.5975 221.414 75.5974 221.492 75.6196C221.569 75.6419 221.639 75.6854 221.694 75.7454C221.748 75.8054 221.784 75.8794 221.798 75.9589C222.174 78.0342 222.645 84.3499 217.934 95.6519Z" fill="#E90038"/>
<path d="M220.289 79.9304C220.281 80.7095 220.192 81.4857 220.026 82.2469C219.768 83.8398 219.465 85.7132 219.128 87.7829C218.792 89.8526 218.5 91.7092 218.248 93.3245C218.181 94.0987 218.042 94.8649 217.833 95.613C217.764 94.8351 217.789 94.0518 217.906 93.2797C218.035 91.8438 218.287 89.8694 218.64 87.7044C218.994 85.5393 219.375 83.5874 219.684 82.1796C219.798 81.409 220.001 80.6543 220.289 79.9304Z" fill="#263238"/>
<path d="M222.55 125.274C222.55 125.274 224.95 112.334 234.615 109.131C234.693 109.103 234.778 109.097 234.859 109.115C234.94 109.133 235.015 109.174 235.074 109.233C235.133 109.292 235.174 109.366 235.192 109.448C235.21 109.529 235.204 109.614 235.175 109.692C234.536 111.678 232.001 117.483 222.55 125.274Z" fill="#E90038"/>
<path d="M231.983 112.475C231.607 113.157 231.166 113.801 230.665 114.398L227.3 118.886L223.935 123.373C223.511 124.027 223.029 124.641 222.493 125.207C222.794 124.485 223.182 123.803 223.649 123.176C224.434 121.971 225.578 120.372 226.907 118.594C228.237 116.816 229.482 115.296 230.407 114.197C230.865 113.564 231.394 112.986 231.983 112.475Z" fill="#263238"/>
<path d="M219.935 157.72C219.935 157.72 218.477 144.646 226.795 138.773C226.86 138.725 226.937 138.696 227.017 138.689C227.097 138.682 227.178 138.698 227.25 138.735C227.322 138.772 227.382 138.828 227.423 138.897C227.465 138.966 227.486 139.046 227.485 139.126C227.462 141.235 226.716 147.523 219.935 157.72Z" fill="#E90038"/>
<path d="M225.247 142.733C225.088 143.502 224.853 144.254 224.546 144.976C223.985 146.491 223.334 148.275 222.611 150.243L220.687 155.51C220.471 156.257 220.189 156.983 219.846 157.681C219.923 156.904 220.094 156.139 220.356 155.403C220.76 154.018 221.383 152.128 222.145 150.069C222.908 148.011 223.649 146.143 224.221 144.847C224.485 144.107 224.829 143.398 225.247 142.733Z" fill="#263238"/>
<path d="M227.217 190.365C227.217 190.365 226.229 177.245 234.749 171.676C234.816 171.629 234.894 171.603 234.974 171.598C235.055 171.594 235.135 171.613 235.206 171.652C235.277 171.691 235.335 171.749 235.374 171.82C235.413 171.891 235.432 171.971 235.428 172.052C235.327 174.155 234.357 180.414 227.217 190.365Z" fill="#E90038"/>
<path d="M233.061 175.58C232.874 176.335 232.613 177.07 232.282 177.773L230.156 182.967L228.052 188.167C227.808 188.905 227.499 189.62 227.127 190.304C227.234 189.535 227.434 188.781 227.721 188.06C228.176 186.691 228.843 184.829 229.701 182.799C230.56 180.768 231.345 178.951 231.945 177.65C232.239 176.92 232.613 176.226 233.061 175.58Z" fill="#263238"/>
<path d="M212.291 84.6197C212.291 84.6197 200.63 78.5284 200.4 68.3538C200.397 68.273 200.417 68.193 200.457 68.1227C200.497 68.0524 200.555 67.9946 200.626 67.9556C200.697 67.9167 200.778 67.8982 200.858 67.9021C200.939 67.9061 201.017 67.9324 201.084 67.978C202.817 69.1559 207.646 73.3009 212.291 84.6197Z" fill="#E90038"/>
<path d="M202.823 71.8481C203.367 72.4063 203.853 73.0169 204.276 73.671L207.563 78.2199L210.861 82.7519C211.362 83.3474 211.807 83.9877 212.19 84.6645C211.592 84.1691 211.056 83.6042 210.592 82.9819C209.666 81.8601 208.449 80.3064 207.165 78.4947C205.88 76.683 204.77 75.0677 203.99 73.8561C203.526 73.2331 203.135 72.5595 202.823 71.8481Z" fill="#263238"/>
<path d="M224.816 111.588C224.816 111.588 212.807 106.22 211.96 96.0789C211.952 95.9986 211.967 95.9177 212.002 95.8451C212.037 95.7726 212.091 95.7111 212.159 95.6676C212.227 95.624 212.306 95.6001 212.387 95.5985C212.467 95.5968 212.547 95.6175 212.616 95.6582C214.417 96.7464 219.465 100.566 224.816 111.588Z" fill="#E90038"/>
<path d="M214.591 99.4438C215.167 99.9679 215.69 100.549 216.15 101.177C217.177 102.422 218.394 103.892 219.706 105.513L223.273 109.837C223.812 110.4 224.296 111.013 224.721 111.666C224.096 111.204 223.531 110.668 223.038 110.067C222.051 109.024 220.738 107.526 219.347 105.827C217.956 104.127 216.75 102.551 215.898 101.39C215.389 100.794 214.95 100.141 214.591 99.4438Z" fill="#263238"/>
<path d="M217.906 141.667C217.906 141.667 209.661 131.419 213.525 121.996C213.554 121.921 213.604 121.855 213.668 121.806C213.733 121.757 213.81 121.727 213.891 121.72C213.972 121.713 214.053 121.729 214.125 121.766C214.197 121.803 214.257 121.859 214.299 121.929C215.41 123.718 218.158 129.428 217.906 141.667Z" fill="#E90038"/>
<path d="M214.344 126.177C214.621 126.902 214.822 127.654 214.944 128.42C215.286 130.002 215.69 131.853 216.139 133.906C216.587 135.959 216.997 137.804 217.345 139.38C217.568 140.125 217.718 140.889 217.793 141.663C217.442 140.967 217.179 140.23 217.008 139.47C216.604 138.085 216.116 136.155 215.656 134.007C215.196 131.859 214.832 129.907 214.602 128.488C214.432 127.729 214.345 126.954 214.344 126.177Z" fill="#263238"/>
<path d="M226.071 177.071C226.071 177.071 214.152 171.496 213.479 161.366C213.472 161.286 213.487 161.205 213.524 161.133C213.56 161.061 213.616 161 213.684 160.958C213.753 160.916 213.833 160.894 213.913 160.895C213.994 160.896 214.073 160.919 214.141 160.962C215.925 162.051 220.906 165.966 226.071 177.071Z" fill="#E90038"/>
<path d="M216.06 164.726C216.625 165.261 217.137 165.849 217.591 166.481L221.074 170.879L224.568 175.265C225.093 175.839 225.566 176.459 225.982 177.116C225.355 176.646 224.79 176.099 224.299 175.489C223.329 174.429 222.056 172.909 220.681 171.187C219.307 169.465 218.135 167.867 217.316 166.7C216.824 166.091 216.403 165.429 216.06 164.726Z" fill="#263238"/>
<path d="M249.814 125.341C249.829 125.438 249.829 125.536 249.814 125.633C249.814 125.863 249.814 126.138 249.814 126.474C249.781 127.265 249.73 128.331 249.674 129.666C249.517 132.47 249.304 136.396 249.046 141.057V141.085C248.193 145.842 245.77 151.12 242.511 156.229C240.122 159.999 237.62 163.431 235.461 166.623C233.496 169.411 231.729 172.332 230.172 175.367C229.148 177.422 228.32 179.568 227.698 181.778C227.485 182.563 227.328 183.18 227.238 183.595C227.204 183.812 227.146 184.025 227.064 184.229C227.069 184.01 227.096 183.792 227.143 183.579C227.199 183.152 227.328 182.53 227.513 181.733C228.07 179.484 228.855 177.299 229.858 175.21C231.381 172.139 233.128 169.184 235.085 166.37C237.228 163.156 239.718 159.718 242.096 155.966C245.333 150.867 247.745 145.668 248.631 140.984V141.012C248.962 136.34 249.237 132.431 249.433 129.632C249.539 128.303 249.624 127.237 249.691 126.446C249.725 126.115 249.753 125.84 249.775 125.61C249.775 125.519 249.789 125.429 249.814 125.341Z" fill="#263238"/>
<path d="M242.719 155.264C242.719 155.264 247.767 143.116 241.412 135.156C241.364 135.092 241.298 135.042 241.223 135.012C241.147 134.983 241.065 134.976 240.985 134.991C240.906 135.006 240.832 135.043 240.773 135.098C240.713 135.153 240.671 135.224 240.649 135.302C240.089 137.333 239.056 143.581 242.719 155.264Z" fill="#E90038"/>
<path d="M241.799 139.39C242.016 140.14 242.149 140.911 242.197 141.69C242.377 143.115 242.573 145.095 242.73 147.299C242.887 149.503 242.966 151.478 242.966 152.908C243.013 153.689 242.964 154.472 242.82 155.241C242.686 154.474 242.618 153.698 242.618 152.919C242.506 151.304 242.383 149.414 242.242 147.31C242.102 145.207 241.962 143.328 241.85 141.701C241.754 140.935 241.737 140.16 241.799 139.39Z" fill="#263238"/>
<path d="M227.081 184.543C227.081 184.543 231.125 172.024 224.154 164.603C224.099 164.543 224.03 164.5 223.952 164.477C223.874 164.455 223.792 164.455 223.714 164.477C223.636 164.499 223.566 164.543 223.512 164.603C223.458 164.663 223.422 164.737 223.408 164.816C223.009 166.886 222.482 173.196 227.081 184.543Z" fill="#E90038"/>
<path d="M224.877 168.799C225.147 169.523 225.335 170.276 225.438 171.042C225.73 172.45 226.089 174.408 226.425 176.578C226.762 178.749 226.986 180.723 227.11 182.159C227.217 182.932 227.234 183.715 227.16 184.492C226.955 183.742 226.821 182.974 226.762 182.198C226.526 180.6 226.246 178.721 225.937 176.651C225.629 174.581 225.337 172.725 225.096 171.104C224.946 170.345 224.873 169.572 224.877 168.799Z" fill="#263238"/>
<path d="M249.152 140.418C249.152 140.418 259.927 132.869 258.839 122.745C258.834 122.664 258.807 122.587 258.761 122.521C258.715 122.455 258.651 122.404 258.577 122.372C258.503 122.341 258.421 122.33 258.342 122.343C258.262 122.355 258.188 122.389 258.127 122.442C256.551 123.872 252.321 128.612 249.152 140.418Z" fill="#E90038"/>
<path d="M256.887 126.524C256.671 127.275 256.37 128 255.99 128.683C255.373 129.979 254.481 131.757 253.438 133.687C252.394 135.616 251.396 137.338 250.633 138.555C250.252 139.236 249.793 139.871 249.265 140.445C249.554 139.723 249.911 139.03 250.33 138.376L253.017 133.457C254.015 131.611 254.924 129.945 255.692 128.521C256.024 127.817 256.424 127.149 256.887 126.524Z" fill="#263238"/>
<path d="M231.428 172.13C231.428 172.13 244.429 170.105 247.912 160.536C247.937 160.461 247.941 160.381 247.924 160.304C247.907 160.227 247.87 160.156 247.816 160.098C247.762 160.041 247.693 159.999 247.618 159.977C247.542 159.956 247.461 159.955 247.385 159.975C245.36 160.542 239.488 162.909 231.428 172.13Z" fill="#E90038"/>
<path d="M244.497 163.071C243.972 163.648 243.383 164.164 242.742 164.608C241.62 165.506 240.033 166.711 238.255 167.973C236.477 169.235 234.805 170.352 233.577 171.098C232.939 171.557 232.245 171.934 231.513 172.219C232.096 171.704 232.722 171.24 233.386 170.834L237.969 167.598L242.54 164.35C243.146 163.857 243.802 163.428 244.497 163.071Z" fill="#263238"/>
<path d="M216.049 196.058L219.773 220.513L234.665 220.49L239.685 196.058H216.049Z" fill="#455A64"/>
<path d="M237.503 205.493L237.379 205.582C237.252 205.664 237.121 205.739 236.987 205.807C236.456 206.061 235.888 206.228 235.304 206.3C234.384 206.426 233.448 206.339 232.567 206.048C231.379 205.672 230.345 204.92 229.622 203.905C229.224 203.295 228.996 202.591 228.96 201.864C228.92 201.454 228.992 201.041 229.17 200.67C229.348 200.299 229.625 199.985 229.97 199.76C230.364 199.562 230.806 199.475 231.246 199.511C231.687 199.547 232.109 199.703 232.466 199.962C233.205 200.505 233.713 201.306 233.891 202.206C234.085 203.112 234.147 204.041 234.076 204.965C234.022 205.926 233.818 206.873 233.47 207.77C233.106 208.719 232.514 209.564 231.748 210.232C230.95 210.935 229.943 211.355 228.882 211.427C227.823 211.447 226.783 211.145 225.898 210.563C225.041 210.027 224.282 209.348 223.654 208.555C223.015 207.795 222.624 206.857 222.533 205.868C222.494 205.384 222.57 204.898 222.753 204.448C222.936 203.998 223.222 203.597 223.587 203.277C223.964 202.997 224.415 202.833 224.884 202.804C225.353 202.775 225.82 202.883 226.229 203.114C226.619 203.306 226.96 203.585 227.223 203.931C227.487 204.276 227.667 204.679 227.749 205.106C227.861 205.866 227.742 206.642 227.407 207.333C227.072 208.024 226.536 208.599 225.87 208.981C224.771 209.574 223.496 209.757 222.275 209.497C221.37 209.31 220.504 208.972 219.711 208.499C219.214 208.205 218.734 207.881 218.275 207.529C218.112 207.41 217.958 207.279 217.815 207.136C217.996 207.228 218.167 207.337 218.326 207.461C218.651 207.675 219.134 208.022 219.79 208.359C220.575 208.8 221.428 209.109 222.314 209.273C223.479 209.495 224.686 209.296 225.718 208.712C226.32 208.354 226.802 207.824 227.101 207.19C227.401 206.557 227.505 205.849 227.401 205.156C227.325 204.782 227.163 204.43 226.928 204.129C226.694 203.827 226.393 203.584 226.049 203.417C225.702 203.221 225.306 203.129 224.908 203.152C224.509 203.176 224.127 203.315 223.806 203.552C223.489 203.836 223.243 204.189 223.086 204.584C222.93 204.98 222.867 205.406 222.903 205.829C222.995 206.738 223.363 207.597 223.957 208.291C224.553 209.042 225.27 209.688 226.077 210.204C226.893 210.74 227.85 211.019 228.826 211.006C229.801 210.933 230.724 210.539 231.451 209.884C232.17 209.26 232.725 208.468 233.066 207.579C233.404 206.717 233.603 205.806 233.655 204.881C233.729 203.996 233.674 203.104 233.492 202.234C233.344 201.42 232.893 200.692 232.23 200.198C231.929 199.971 231.572 199.831 231.197 199.794C230.822 199.756 230.445 199.822 230.105 199.985C229.809 200.175 229.572 200.444 229.42 200.76C229.267 201.077 229.205 201.43 229.241 201.78C229.275 202.457 229.488 203.113 229.858 203.681C230.534 204.656 231.508 205.387 232.634 205.762C233.482 206.062 234.387 206.169 235.282 206.076C236.049 206.004 236.799 205.807 237.503 205.493Z" fill="#263238"/>
<path d="M66.7932 65.3616C66.7147 65.3616 66.6137 65.154 66.5688 64.868C66.524 64.5819 66.5688 64.3519 66.6361 64.3351C66.7035 64.3183 66.8156 64.5426 66.8605 64.8287C66.9054 65.1148 66.8717 65.3503 66.7932 65.3616Z" fill="#7C5142"/>
<path d="M69.0981 67.4599C69.0139 67.4599 68.9578 67.2243 68.9747 66.9439C68.9915 66.6634 69.0644 66.4335 69.1429 66.4391C69.2215 66.4447 69.2775 66.6746 69.2663 66.9551C69.2551 67.2355 69.1766 67.4655 69.0981 67.4599Z" fill="#7C5142"/>
<path d="M66.0421 69.3044C65.9636 69.2708 66.0028 69.0352 66.115 68.7828C66.2272 68.5304 66.3898 68.3565 66.4628 68.3902C66.5357 68.4238 66.4964 68.6538 66.3842 68.9062C66.272 69.1586 66.115 69.3381 66.0421 69.3044Z" fill="#7C5142"/>
<path d="M91.7916 67.4516C91.7355 67.5077 91.5616 67.4516 91.4046 67.2721C91.2475 67.0927 91.169 66.9412 91.2251 66.8851C91.2812 66.829 91.4551 66.8851 91.6121 67.0646C91.7692 67.2441 91.8477 67.3787 91.7916 67.4516Z" fill="#7C5142"/>
<path d="M88.8263 69.4987C88.7477 69.465 88.7589 69.2799 88.8263 69.078C88.8936 68.8761 89.0394 68.7471 89.1123 68.7807C89.1852 68.8144 89.1796 68.9995 89.1123 69.1958C89.045 69.3921 88.8992 69.5267 88.8263 69.4987Z" fill="#7C5142"/>
<path d="M105.249 62.8919C105.249 62.8919 105.071 63.2924 104.537 63.6964C103.83 64.2092 102.991 64.4951 102.124 64.5185C101.251 64.532 100.392 64.2838 99.649 63.8042C99.0966 63.4231 98.8551 63.0747 98.8989 63.0284C99.8869 63.5875 100.983 63.909 102.105 63.9686C103.219 63.8525 104.292 63.4849 105.249 62.8919Z" fill="#CC937F"/>
<path d="M106.43 62.1599C106.511 62.2727 105.608 62.8106 104.302 62.9733C103.918 63.0624 103.52 63.0855 103.132 63.0413C102.743 62.9972 102.372 62.8866 102.041 62.7161C102.025 62.5858 103.058 62.6462 104.236 62.4427C105.415 62.2391 106.315 62.0419 106.43 62.1599Z" fill="#CC937F"/>
<path d="M123.922 59.2959C123.038 59.7406 122.012 60.0732 120.928 60.2663C119.843 60.4593 118.733 60.5074 117.686 60.4065C117.675 60.3184 119.115 60.2762 120.819 59.9685C122.523 59.6609 123.846 59.198 123.922 59.2959Z" fill="#CC937F"/>
<path d="M123.369 59.9808C122.752 60.6908 121.873 61.2268 120.869 61.5046C119.865 61.7824 118.794 61.7863 117.823 61.5156C118.797 61.4316 119.766 61.2939 120.724 61.1036C121.632 60.7753 122.515 60.4003 123.369 59.9808Z" fill="#CC937F"/>
<path d="M115.27 41.5344C114.672 41.9721 114.024 42.2828 113.346 42.4567C111.749 42.9961 110.105 43.3219 108.438 43.4299C106.772 43.5428 105.088 43.4325 103.41 43.1004C102.715 43.0363 102.023 42.8152 101.362 42.4462C101.335 42.2299 104.539 43.0029 108.391 42.7221C112.242 42.4413 115.214 41.3217 115.27 41.5344Z" fill="#CC937F"/>
<path d="M115.875 38.4422C111.617 39.759 107.142 40.3084 102.692 40.0609C102.674 39.9212 105.698 39.8147 109.298 39.3726C112.898 38.9306 115.838 38.3049 115.875 38.4422Z" fill="#CC937F"/>
</g>
<defs>
<filter id="filter0_d_25_3959" x="0.296875" y="0" width="268.619" height="228.512" filterUnits="userSpaceOnUse" color-interpolation-filters="sRGB">
<feFlood flood-opacity="0" result="BackgroundImageFix"/>
<feColorMatrix in="SourceAlpha" type="matrix" values="0 0 0 0 0 0 0 0 0 0 0 0 0 0 0 0 0 0 127 0" result="hardAlpha"/>
<feOffset dy="-2"/>
<feGaussianBlur stdDeviation="5"/>
<feComposite in2="hardAlpha" operator="out"/>
<feColorMatrix type="matrix" values="0 0 0 0 0 0 0 0 0 0 0 0 0 0 0 0 0 0 0.15 0"/>
<feBlend mode="normal" in2="BackgroundImageFix" result="effect1_dropShadow_25_3959"/>
<feBlend mode="normal" in="SourceGraphic" in2="effect1_dropShadow_25_3959" result="shape"/>
</filter>
</defs>
</svg>
