<svg width="259" height="246" viewBox="0 0 259 246" fill="none" xmlns="http://www.w3.org/2000/svg">
<rect x="32" y="21" width="206" height="128" rx="10.3306" fill="#D9DEDF"/>
<rect x="23.8609" y="12.8609" width="222.278" height="144.278" rx="12.9133" stroke="#9BB8C6" stroke-width="1.72177"/>
<path d="M117 1L133.146 13L148 1" stroke="#9BB8C6" stroke-width="1.72177" stroke-linecap="round"/>
<path d="M248.836 245.611C248.318 245.691 247.97 245.79 247.622 245.79C243.403 245.79 239.184 245.785 234.965 245.774L163.103 245.65L91.2394 245.528C67.2676 245.486 43.2961 245.442 19.3249 245.395C19.1141 245.373 18.9047 245.329 18.6982 245.262C18.76 244.997 18.7797 244.712 18.8898 244.485C24.4341 233.106 29.9814 221.73 35.5317 210.355C35.8101 209.784 36.1404 209.518 36.7134 209.524C44.3686 209.605 52.0238 209.671 59.679 209.723C66.1244 209.765 72.5699 209.79 79.0154 209.798C93.7147 209.798 108.414 209.781 123.113 209.747C130.974 209.737 138.835 209.728 146.694 209.721C163.213 209.692 179.733 209.658 196.253 209.619C207.311 209.591 218.369 209.569 229.427 209.453C230.618 209.44 231.185 209.874 231.763 211.08C237.057 222.118 242.416 233.112 247.76 244.11C247.934 244.467 248.22 244.745 248.453 245.062C248.543 245.193 248.634 245.326 248.836 245.611Z" fill="#455A64"/>
<path d="M133.921 210.209H134.325C134.441 210.229 134.557 210.26 134.674 210.266C139.219 210.462 143.769 210.588 148.309 210.875C151.1 211.05 153.88 211.449 156.661 211.782C158.33 211.982 159.986 212.306 161.657 212.469C163.853 212.681 166.065 212.734 168.26 212.957C172.616 213.41 176.972 213.878 181.314 214.448C186.132 215.081 190.907 216.003 195.588 217.393C198.027 218.116 200.441 218.932 202.629 220.325C203.362 220.78 204.058 221.359 204.702 222.049C205.96 223.431 205.964 225.075 204.749 226.505C204.247 227.081 203.703 227.574 203.127 227.973C201.106 229.414 198.834 230.278 196.533 231.049C192.3 232.466 187.958 233.377 183.589 234.157C183.199 234.227 182.988 234.4 182.834 234.755C181.524 237.806 179.383 240.136 177.034 242.274C175.038 244.091 172.6 244.61 170.076 244.794C167.441 244.983 164.847 244.591 162.315 243.866C158.223 242.689 154.149 241.438 150.079 240.169C146.777 239.139 143.431 238.42 139.983 238.293C135.292 238.112 130.599 238.496 125.95 239.439C122.637 240.116 119.335 240.869 116.031 241.6C112.436 242.396 108.831 243.086 105.136 242.938C103.195 242.86 101.281 242.592 99.4291 241.937C98.2573 241.522 97.1848 240.892 96.5295 239.762C95.5896 238.138 94.7687 236.436 93.8797 234.779C93.7629 234.575 93.603 234.435 93.4259 234.381C92.3641 234.141 91.2917 233.957 90.2282 233.725C86.6196 232.937 83.0361 232.043 79.6138 230.553C78.0543 229.874 76.5343 229.102 75.3168 227.817C73.7833 226.198 73.7842 224.419 75.3168 222.785C76.3015 221.733 77.4868 220.997 78.7436 220.388C82.9753 218.339 87.4754 217.266 91.9927 216.258C94.3632 215.727 96.7677 215.415 99.1068 214.675C106.363 212.379 113.828 211.319 121.357 210.767C125.132 210.49 128.921 210.434 132.704 210.276C133.112 210.256 133.519 210.23 133.921 210.209Z" fill="#3B4D56"/>
<path d="M190.358 245.678C189.621 242.619 188.876 239.564 188.147 236.503C186.087 227.848 184.03 219.19 181.977 210.531C181.922 210.302 181.877 210.071 181.827 209.833C182.68 209.707 182.678 209.709 182.892 210.588C185.482 221.284 188.073 231.98 190.665 242.675C190.907 243.675 191.141 244.676 191.381 245.678H190.358Z" fill="#E90038"/>
<path d="M171.167 245.672C170.975 244.408 170.792 243.142 170.59 241.881C168.924 231.415 167.255 220.949 165.584 210.483C165.55 210.268 165.533 210.049 165.504 209.801H166.375C166.672 211.609 166.97 213.406 167.265 215.205C168.889 225.119 170.513 235.034 172.136 244.949C172.165 245.188 172.184 245.43 172.192 245.672H171.167Z" fill="#E90038"/>
<path d="M209.549 245.681C207.953 240.672 206.357 235.664 204.761 230.655C202.628 223.927 200.501 217.197 198.378 210.464C198.314 210.261 198.259 210.053 198.199 209.834C199.036 209.715 199.037 209.715 199.316 210.586C202.962 221.971 206.607 233.357 210.251 244.743C210.337 245.049 210.409 245.362 210.469 245.681H209.549Z" fill="#E90038"/>
<path d="M94.6064 245.652C95.2206 241.825 95.8349 237.997 96.4497 234.17C97.7417 226.139 99.035 218.109 100.329 210.078C100.342 209.999 100.359 209.922 100.382 209.801H101.262C101.004 211.492 100.755 213.154 100.494 214.815C98.9103 224.939 97.3243 235.065 95.7362 245.192C95.7051 245.35 95.6687 245.506 95.627 245.659L94.6064 245.652Z" fill="#E90038"/>
<path d="M151.872 245.667C151.648 242.535 151.424 239.401 151.198 236.27C150.811 231.025 150.42 225.78 150.024 220.535C149.775 217.221 149.526 213.908 149.276 210.595C149.257 210.352 149.244 210.11 149.226 209.816H150.107C150.172 210.619 150.242 211.445 150.307 212.27C150.992 220.866 151.676 229.461 152.36 238.055C152.539 240.31 152.708 242.565 152.886 244.82C152.909 245.103 152.959 245.383 152.996 245.664L151.872 245.667Z" fill="#E90038"/>
<path d="M113.696 245.656C114.028 241.739 114.364 237.822 114.689 233.903C115.195 227.812 115.696 221.72 116.192 215.627C116.351 213.698 116.505 211.771 116.665 209.802H117.56C117.486 210.809 117.415 211.815 117.337 212.819C116.975 217.469 116.611 222.121 116.247 226.772C115.766 232.886 115.284 239 114.801 245.115C114.78 245.297 114.752 245.477 114.718 245.655L113.696 245.656Z" fill="#E90038"/>
<path d="M132.887 245.662C132.874 244.194 132.846 242.727 132.849 241.258C132.865 230.989 132.884 220.721 132.907 210.452C132.907 210.25 132.907 210.054 132.907 209.807H133.81C133.843 221.755 133.875 233.707 133.908 245.662H132.887Z" fill="#E90038"/>
<path d="M228.742 245.687C226.073 239.017 223.403 232.348 220.734 225.678C218.68 220.549 216.626 215.423 214.571 210.299C214.514 210.157 214.472 210.004 214.42 209.848C214.965 209.666 215.283 209.801 215.549 210.461C220.177 221.95 224.82 233.431 229.478 244.903C229.582 245.159 229.669 245.426 229.763 245.687H228.742Z" fill="#E90038"/>
<path d="M75.3955 245.36C75.485 244.949 75.5674 244.575 75.6578 244.206C78.4108 232.935 81.1594 221.663 83.9035 210.388C84.0879 209.63 84.4478 209.725 84.9384 209.803C84.8542 210.184 84.779 210.553 84.6913 210.919L76.6524 244.45C76.4053 245.47 76.4053 245.472 75.3955 245.36Z" fill="#E90038"/>
<path d="M56.3965 245.336C56.4556 245.138 56.5066 244.95 56.5666 244.765C60.2578 233.357 63.9436 221.95 67.6241 210.542C67.8452 209.853 68.1093 209.589 68.7476 209.811C68.6992 209.98 68.658 210.161 68.5972 210.341C64.9638 221.73 61.3293 233.117 57.6936 244.503C57.3749 245.494 57.3731 245.494 56.3965 245.336Z" fill="#E90038"/>
<path d="M52.2558 209.81C52.1958 209.983 52.1448 210.15 52.0767 210.309C47.5411 221.722 43.0054 233.136 38.4697 244.55C38.0937 245.496 38.0937 245.496 37.1367 245.337C37.1985 245.163 37.2513 244.996 37.3158 244.835C41.9177 233.37 46.516 221.902 51.1108 210.432C51.3856 209.765 51.6963 209.627 52.2558 209.81Z" fill="#E90038"/>
<path d="M179.42 174.959L180.619 192.403H212.263V174.959H179.42Z" fill="#FFBE9D"/>
<path d="M133.109 203.681C132.399 196.855 130.087 191.718 153.903 186.8C159.75 185.577 172.986 185.834 178.906 185.785C190.478 185.687 202.355 185.528 212.716 185.381C221.85 185.171 230.989 185.457 240.092 186.238C252.324 187.657 260.152 193.283 257.547 203.681C253.767 218.702 210.502 213.919 192.985 213.919C175.469 213.919 134.895 221.063 133.109 203.681Z" fill="#263238"/>
<path opacity="0.4" d="M137.818 195.24C137.818 195.24 143.005 189.43 154.943 194.017C166.882 198.604 169.622 204.781 185.451 209.797L180.815 213.613L152.68 208.219L138.711 200.989L137.818 195.24Z" fill="black"/>
<path opacity="0.4" d="M250.538 194.359C247.972 193.17 245.177 192.554 242.349 192.554C239.52 192.554 236.725 193.17 234.159 194.359C224.912 198.347 218.771 205.368 207.358 209.136L208.178 212.439L250.11 200.206L250.538 194.359Z" fill="black"/>
<path d="M198.539 218.506C198.539 218.506 189.463 224.047 186.515 229.919C185.855 231.203 182.466 229.344 183.628 226.188C185.561 220.965 185.696 222.286 187.298 217.821C188.644 214.029 189.439 211.264 190.454 208.206C190.487 208.125 190.528 208.047 190.576 207.974C190.751 207.712 191.021 207.527 191.328 207.459C191.636 207.391 191.958 207.444 192.228 207.607L198.552 211.558L207.347 209.956L208.46 218.09L198.539 218.506Z" fill="#FFB573"/>
<path d="M198.539 218.506C198.539 218.506 189.463 224.047 186.515 229.919C185.855 231.203 182.466 229.344 183.628 226.188C185.561 220.965 185.696 222.286 187.298 217.821C188.644 214.029 189.439 211.264 190.454 208.206C190.487 208.125 190.528 208.047 190.576 207.974C190.751 207.712 191.021 207.527 191.328 207.459C191.636 207.391 191.958 207.444 192.228 207.607L198.552 211.558L207.347 209.956L208.46 218.09L198.539 218.506Z" fill="#F0B699"/>
<path d="M253.866 196.219C251.089 193.565 246.759 192.916 238.502 196.219C230.246 199.522 214.564 207.778 201.806 210.58L203.53 218.836C203.53 218.836 243.322 216.145 251.713 211.497C260.104 206.849 256.9 199.155 253.866 196.219Z" fill="#263238"/>
<path d="M191.358 218.506C191.358 218.506 200.447 224.047 203.395 229.919C204.043 231.203 207.444 229.344 206.282 226.188C204.337 220.965 204.214 222.286 202.612 217.821C201.266 214.029 200.484 211.264 199.456 208.206C199.432 208.124 199.395 208.045 199.346 207.974C199.171 207.712 198.902 207.527 198.594 207.459C198.286 207.391 197.964 207.444 197.695 207.607L191.358 211.558L182.563 209.956L181.45 218.09L191.358 218.506Z" fill="#FFBE9D"/>
<path d="M136.509 196.219C139.285 193.565 143.603 192.916 151.86 196.219C160.117 199.522 175.811 207.778 188.557 210.58L186.82 218.836C186.82 218.836 147.04 216.145 138.649 211.497C130.258 206.849 133.475 199.155 136.509 196.219Z" fill="#263238"/>
<path d="M167.823 171.852C167.823 171.852 169.609 175.069 147.493 185.051L142.833 182.604C142.299 182.113 141.607 181.83 140.882 181.805C140.157 181.78 139.447 182.016 138.882 182.47C138.35 182.898 137.979 183.494 137.828 184.16C137.677 184.826 137.755 185.523 138.05 186.139L139.444 189.112C139.723 189.703 140.186 190.187 140.764 190.492C141.342 190.797 142.004 190.905 142.649 190.8L148.496 188.525C148.496 188.525 168.997 182.298 173.438 176.72L167.823 171.852Z" fill="#FFBE9D"/>
<path d="M176.02 134.972C173.121 136.049 171.482 138.715 169.904 151.522C168.326 164.329 166.699 173.675 162.834 175.987C164.537 178.255 166.508 180.309 168.705 182.103C168.705 182.103 171.641 181.296 174.051 175.02C176.461 168.745 178.393 158.201 179.507 152.525C180.363 148.134 182.442 132.611 176.02 134.972Z" fill="#E90038"/>
<path opacity="0.1" d="M179.408 142.483L177.769 141.174L174.1 145.149C174.1 145.149 171.041 155.486 174.503 172.525C176.13 166.274 177.451 159.216 178.32 154.801C179.087 150.74 179.452 146.614 179.408 142.483Z" fill="black"/>
<path d="M177.01 134.617C176.244 134.759 175.547 135.154 175.032 135.74C174.517 136.326 174.214 137.068 174.173 137.847C173.928 142.593 173.879 153.528 176.79 170.335C177.439 174.139 178.16 178.078 178.16 178.078H213.939C213.96 164.711 215.665 151.399 219.016 138.458C219.13 138.008 219.151 137.539 219.08 137.081C219.008 136.622 218.845 136.182 218.599 135.788C218.354 135.394 218.031 135.054 217.651 134.787C217.27 134.521 216.84 134.334 216.386 134.238C210.27 132.892 196.301 130.935 177.01 134.617Z" fill="#E90038"/>
<path d="M191.371 143.62C204.006 143.62 208.08 135.902 209.144 133.089C200.593 132.201 191.965 132.374 183.456 133.602C182.722 136.355 181.866 143.62 191.371 143.62Z" fill="#FFBE9D"/>
<path opacity="0.1" d="M217.107 139.816L215.052 140.403C215.052 140.403 211.553 148.268 214.929 162.274C215.604 155.547 216.67 148.865 218.122 142.262L217.107 139.816Z" fill="black"/>
<path d="M180.913 109.554C180.278 110.932 179.865 112.401 179.689 113.908C179.689 118.141 183.995 124.832 199.078 122.018C207.09 120.526 211.554 117.235 212.716 113.223C214.992 105.382 213.279 99.8657 207.102 97.3826C207.689 86.3736 185.867 90.0432 181.634 95.7801C177.145 101.688 182.356 105.358 180.913 109.554Z" fill="#263238"/>
<path d="M201.315 117.04C200.446 121.663 199.578 130.104 202.832 133.162C202.832 133.162 196.997 140.354 189.866 142.409C186.196 139.021 188.496 133.247 188.496 133.247C193.633 132.024 193.474 128.183 192.569 124.575L201.315 117.04Z" fill="#FFBE9D"/>
<path opacity="0.2" d="M193.035 128.416C193.082 127.119 192.925 125.823 192.57 124.575L199.604 118.52C199.791 119.557 199.82 120.617 199.689 121.663C199.408 124.55 195.934 127.584 193.035 128.416Z" fill="black"/>
<path d="M204.496 108.661C203.102 116.245 202.673 119.486 198.38 122.948C191.872 128.135 182.845 124.783 181.952 116.93C181.132 109.872 183.53 98.6916 191.395 96.502C193.123 96.0258 194.944 95.9985 196.686 96.4227C198.427 96.8468 200.032 97.7084 201.347 98.9259C202.663 100.143 203.646 101.677 204.203 103.38C204.761 105.084 204.874 106.901 204.533 108.661H204.496Z" fill="#FFBE9D"/>
<path d="M200.386 96.6852C190.123 98.9359 207.162 115.193 206.086 123.596C211.089 114.128 211.676 94.2388 200.386 96.6852Z" fill="#263238"/>
<path d="M188.104 110.141C187.069 111.61 185.834 112.927 184.435 114.055C184.736 114.41 185.111 114.694 185.533 114.888C185.956 115.083 186.416 115.182 186.881 115.181L188.104 110.141Z" fill="#F0B699"/>
<path d="M187.676 118.777C187.329 118.741 186.985 118.675 186.649 118.581C186.601 118.567 186.56 118.535 186.535 118.491C186.51 118.448 186.503 118.397 186.514 118.348C186.52 118.325 186.53 118.304 186.544 118.285C186.559 118.266 186.577 118.25 186.597 118.239C186.618 118.227 186.641 118.22 186.664 118.218C186.688 118.216 186.712 118.219 186.734 118.226C187.479 118.45 188.267 118.497 189.033 118.363C189.8 118.229 190.525 117.918 191.15 117.455C191.186 117.421 191.235 117.402 191.285 117.402C191.335 117.402 191.383 117.421 191.419 117.455C191.453 117.49 191.472 117.536 191.472 117.584C191.472 117.632 191.453 117.678 191.419 117.712C190.358 118.542 189.015 118.924 187.676 118.777Z" fill="#263238"/>
<path d="M204.434 97.1383C206.881 103.083 198.392 98.9731 190.979 100.576C184.141 102.031 180.337 105.994 181.707 99.8294C183.432 92.172 200.483 87.7439 204.434 97.1383Z" fill="#263238"/>
<path d="M195.176 109.848C195.127 109.836 195.082 109.815 195.042 109.786C195.002 109.756 194.968 109.719 194.943 109.676C194.643 109.156 194.234 108.708 193.744 108.362C193.255 108.015 192.695 107.779 192.105 107.67C192.057 107.66 192.011 107.641 191.97 107.612C191.93 107.583 191.896 107.546 191.87 107.504C191.845 107.461 191.829 107.414 191.823 107.364C191.817 107.315 191.821 107.265 191.836 107.218C191.853 107.139 191.896 107.068 191.958 107.017C192.02 106.966 192.098 106.937 192.179 106.936C193.584 107.249 194.812 108.095 195.604 109.297C195.648 109.382 195.657 109.48 195.629 109.571C195.602 109.663 195.54 109.74 195.457 109.786C195.417 109.816 195.372 109.837 195.323 109.848C195.274 109.859 195.224 109.858 195.176 109.848Z" fill="#263238"/>
<path d="M190.919 110.593C190.948 110.592 190.976 110.599 191.002 110.611C191.027 110.624 191.049 110.643 191.066 110.667C191.251 110.872 191.481 111.031 191.737 111.133C191.994 111.235 192.271 111.276 192.546 111.254C192.604 111.247 192.663 111.261 192.71 111.295C192.758 111.329 192.791 111.38 192.803 111.437C192.814 111.494 192.802 111.553 192.77 111.601C192.738 111.649 192.688 111.682 192.631 111.694C192.283 111.731 191.932 111.684 191.606 111.556C191.28 111.428 190.99 111.224 190.76 110.96C190.721 110.921 190.699 110.869 190.699 110.814C190.699 110.759 190.721 110.706 190.76 110.667C190.779 110.643 190.803 110.624 190.831 110.611C190.858 110.599 190.889 110.592 190.919 110.593Z" fill="#263238"/>
<path d="M184.85 109.003C184.905 109.015 184.955 109.04 184.997 109.077C185.173 109.292 185.398 109.461 185.654 109.57C185.91 109.678 186.188 109.723 186.465 109.7C186.522 109.693 186.579 109.709 186.624 109.743C186.67 109.777 186.701 109.828 186.71 109.884C186.715 109.911 186.715 109.939 186.709 109.967C186.703 109.994 186.692 110.02 186.676 110.042C186.66 110.065 186.639 110.085 186.616 110.099C186.592 110.114 186.566 110.124 186.538 110.129C186.191 110.159 185.842 110.105 185.52 109.971C185.198 109.837 184.914 109.626 184.691 109.358C184.67 109.34 184.654 109.317 184.642 109.292C184.631 109.266 184.625 109.239 184.625 109.211C184.625 109.183 184.631 109.156 184.642 109.131C184.654 109.105 184.67 109.083 184.691 109.064C184.739 109.033 184.794 109.012 184.85 109.003Z" fill="#263238"/>
<path d="M184.226 106.826C184.18 106.819 184.135 106.801 184.097 106.774C184.058 106.746 184.027 106.709 184.006 106.667C183.977 106.629 183.956 106.585 183.945 106.538C183.934 106.491 183.934 106.442 183.943 106.394C183.952 106.347 183.971 106.302 183.999 106.263C184.027 106.223 184.063 106.19 184.104 106.166C184.584 105.833 185.136 105.619 185.714 105.543C186.293 105.466 186.882 105.529 187.431 105.725C187.519 105.768 187.588 105.841 187.624 105.932C187.66 106.022 187.661 106.123 187.627 106.214C187.589 106.303 187.518 106.374 187.429 106.41C187.339 106.447 187.239 106.447 187.15 106.41C186.712 106.255 186.242 106.208 185.782 106.275C185.322 106.341 184.885 106.517 184.508 106.789C184.467 106.816 184.42 106.833 184.371 106.84C184.323 106.846 184.273 106.841 184.226 106.826Z" fill="#263238"/>
<path d="M224.374 171.914C224.374 171.914 222.625 172.599 243.762 183.131L248.386 179.877C248.785 179.599 249.255 179.442 249.741 179.425C250.227 179.408 250.708 179.53 251.126 179.779C251.602 180.048 251.979 180.463 252.199 180.964C252.42 181.464 252.472 182.023 252.349 182.556L251.456 186.225C251.325 186.759 251.026 187.236 250.603 187.586C250.18 187.937 249.656 188.141 249.107 188.17L242.649 186.947C242.649 186.947 223.42 181.369 219.897 176.623C219.86 176.647 222.674 171.167 224.374 171.914Z" fill="#FFBE9D"/>
<path d="M216.752 134.483C219.651 135.56 221.278 138.226 222.868 151.033C224.458 163.84 226.073 173.186 229.95 175.498C228.248 177.766 226.276 179.82 224.079 181.614C224.079 181.614 221.143 180.806 218.733 174.531C216.324 168.256 214.391 157.712 213.278 152.036C212.421 147.645 210.342 132.122 216.752 134.483Z" fill="#E90038"/>
<path d="M65.0169 235.23L54.1667 237.728C54.1667 237.728 49.7471 234.192 52.8806 230.696C56.0141 227.2 65.0169 235.23 65.0169 235.23Z" fill="#CA977D"/>
<path d="M86.3701 80.6637C85.0555 79.9206 83.5691 79.5346 82.0589 79.5443C80.5488 79.5539 79.0675 79.9587 77.7624 80.7186C76.4572 81.4784 75.3738 82.5667 74.6199 83.8752C73.8659 85.1837 73.4677 86.6669 73.4649 88.1771C73.0331 88.0214 72.573 87.9602 72.1155 87.9975C71.6581 88.0349 71.2139 88.17 70.8131 88.3936C70.1483 88.8361 69.6118 89.4458 69.2574 90.1615C68.6279 91.3386 68.2846 92.6475 68.2554 93.982C68.2262 95.3166 68.512 96.6392 69.0895 97.8427C67.645 99.2332 66.524 100.924 65.8061 102.796C65.0881 104.668 64.7907 106.675 64.9351 108.675C65.1216 110.689 65.7449 112.637 66.7616 114.385C67.7784 116.133 69.164 117.638 70.822 118.796C67.7901 122.115 64.776 125.956 63.8655 130.375C62.9551 134.795 63.9009 139.749 67.0211 143.007C69.063 145.141 71.8827 146.419 74.7819 146.984C77.6812 147.55 80.6689 147.475 83.6212 147.201C88.7877 146.719 98.3296 148.765 102.895 146.317C107.461 143.869 111.385 139.926 113.06 135.016C114.735 130.106 109.524 121.077 105.909 117.338C109.029 114.337 111.531 110.925 112.309 106.664C113.087 102.404 111.778 97.6173 108.367 94.9567C108.761 93.519 108.776 92.0036 108.411 90.5582C108.045 89.1129 107.311 87.787 106.28 86.7097C105.245 85.6511 103.95 84.882 102.525 84.4788C101.1 84.0756 99.5941 84.0524 98.1572 84.4116C98.0798 83.1329 97.624 81.9062 96.8479 80.8872C96.0717 79.8681 95.0102 79.1028 93.7981 78.6884C92.5861 78.2739 91.2782 78.2291 90.0406 78.5596C88.803 78.89 87.6916 79.5809 86.8475 80.5444C86.9447 80.4604 86.2729 80.7477 86.3701 80.6637Z" fill="#263238"/>
<path opacity="0.7" d="M74.0925 107.889C74.0094 109.428 74.3009 110.966 74.9421 112.368C75.5833 113.77 76.555 114.997 77.774 115.941C77.2684 116.162 76.8245 116.503 76.4809 116.934C76.1374 117.366 75.9047 117.875 75.8032 118.417C75.7016 118.96 75.7343 119.519 75.8983 120.045C76.0623 120.572 76.3527 121.05 76.7442 121.439C74.4372 121.589 72.5854 123.441 71.4053 125.417C70.2728 127.256 69.6279 129.354 69.5314 131.511C69.4453 133.68 70.1559 135.806 71.5291 137.487C74.0173 140.395 78.2292 141.022 82.0522 141.173C86.5856 141.346 91.1254 141.124 95.6203 140.51C98.6654 140.068 101.22 139.476 103.576 137.487C105.931 135.498 107.416 132.44 107.191 129.372C106.965 126.305 104.888 123.371 101.958 122.434C102.577 121.236 103.209 120.003 103.341 118.659C103.474 117.316 102.997 115.826 101.834 115.124C102.411 114.856 102.925 114.472 103.344 113.995C103.763 113.518 104.078 112.958 104.27 112.352C104.641 111.14 104.824 109.877 104.813 108.609C104.871 106.894 104.813 104.981 103.584 103.77C102.661 102.846 101.286 102.563 99.9913 102.36C92.3675 101.171 84.2708 101.356 77.3011 104.676C75.9001 105.365 74.1897 106.351 74.0925 107.889Z" fill="#263238"/>
<path d="M171.621 191.547C171.028 188.864 169.632 188.595 169.632 188.595C168.306 187.145 166.786 189.505 166.786 189.505L164.032 192.926C160.987 193.536 156.727 195.967 156.727 195.967L134.213 183.19C133.599 176.07 132.466 173.091 131.547 167.628C130.628 162.166 129.285 156.623 128.004 151.236C126.974 146.918 125.617 142.799 123.142 139.303C122.572 138.517 121.846 137.856 121.01 137.363C120.173 136.869 119.244 136.553 118.28 136.435C115.038 136.051 111.863 135.232 108.84 133.999C105.662 132.674 101.742 131.348 99.559 128.364C97.3757 125.381 97.2962 121.377 97.3227 117.669H82.296C82.3269 121.377 82.2651 125.377 80.0862 128.364C77.9073 131.352 73.9606 132.682 70.805 133.999C67.7821 135.232 64.6067 136.051 61.3648 136.435C60.4009 136.553 59.4718 136.869 58.6354 137.363C57.7989 137.856 57.0731 138.517 56.5032 139.303C54.0061 142.803 52.6493 146.922 51.6416 151.236C50.3599 156.623 48.3455 162.17 47.413 167.628C46.4804 173.086 45.4321 177.096 45.4321 183.19L22.7639 195.967C22.7639 195.967 18.5034 193.536 15.4583 192.926L12.7049 189.505C12.7049 189.505 11.1978 187.145 9.85865 188.595C9.85865 188.595 8.46205 188.864 7.86983 191.547C7.2776 194.23 6.54395 199.224 6.54395 199.224L8.48416 205.217C8.5927 205.554 8.80312 205.85 9.08646 206.063C9.36979 206.276 9.71213 206.395 10.0664 206.406L17.0715 206.636C17.0715 206.636 22.1186 204.006 24.4257 203.683C26.6355 203.378 44.4642 199.215 55.195 191.932C56.306 191.173 57.094 190.027 57.4048 188.719L63.8044 162.148C63.8044 162.148 63.3624 169.533 66.8981 175.438C70.4338 181.342 70.3366 193.801 70.3366 193.801C70.3366 193.801 77.0323 198.707 89.7828 198.707C102.533 198.707 109.229 193.801 109.229 193.801C109.229 193.801 109.123 181.347 112.668 175.438C116.212 169.529 115.761 162.148 115.761 162.148L122.121 188.714C122.432 190.023 123.22 191.169 124.331 191.927C135.062 199.211 152.912 203.374 155.1 203.679C157.407 204.002 162.454 206.631 162.454 206.631L169.46 206.401C169.814 206.391 170.156 206.271 170.439 206.058C170.723 205.845 170.933 205.55 171.042 205.213L172.982 199.22C172.982 199.22 172.208 194.234 171.621 191.547ZM11.0608 196.537C11.0129 195.613 10.8737 194.697 10.6454 193.801L10.8973 192.639L12.5193 195.896L11.0608 196.537ZM168.399 196.537L166.94 195.896L168.562 192.639L168.814 193.801C168.589 194.697 168.453 195.614 168.408 196.537H168.399Z" fill="#FFBE9D"/>
<g style="mix-blend-mode:multiply" opacity="0.5">
<path d="M51.708 194.04C51.845 193.965 51.982 193.89 52.1146 193.81C51.9705 193.87 51.834 193.948 51.708 194.04Z" fill="#B88B83"/>
</g>
<g style="mix-blend-mode:multiply" opacity="0.5">
<path d="M57.3472 188.714L63.7468 162.144L63.5832 155.015L55.8357 187.83C55.8357 187.83 55.102 191.755 52.8701 193.373C53.6612 192.904 54.4258 192.427 55.155 191.932C56.2604 191.169 57.0419 190.022 57.3472 188.714Z" fill="#B88B83"/>
</g>
<g style="mix-blend-mode:multiply" opacity="0.5">
<path d="M127.761 194.04C127.624 193.965 127.487 193.89 127.354 193.81C127.499 193.87 127.635 193.948 127.761 194.04Z" fill="#B88B83"/>
</g>
<g style="mix-blend-mode:multiply" opacity="0.5">
<path d="M122.121 188.714L115.722 162.144L115.885 155.015L123.633 187.83C123.633 187.83 124.366 191.755 126.598 193.373C125.807 192.904 125.043 192.427 124.313 191.932C123.208 191.169 122.427 190.022 122.121 188.714Z" fill="#B88B83"/>
</g>
<g style="mix-blend-mode:multiply" opacity="0.5">
<path d="M102.759 131.215C101.497 130.485 100.391 129.515 99.502 128.36C97.2922 125.372 97.2392 121.372 97.2657 117.664H82.239C82.2883 119.391 82.216 121.119 82.0225 122.835C82.3849 123.162 82.7517 123.485 83.1362 123.79C85.5363 125.709 88.297 127.128 91.255 127.962C92.0417 128.179 92.9565 128.466 93.2173 129.235C93.5046 130.079 92.8107 130.919 92.1257 131.489C89.8271 133.398 87.0473 134.638 84.0908 135.073C89.3576 135.328 94.6241 134.567 99.6036 132.832C100.744 132.486 101.813 131.938 102.759 131.215Z" fill="#B88B83"/>
</g>
<path d="M67.9347 190.178C67.9347 190.178 64.5834 201.757 65.0165 206.618L38.026 201.553C38.026 201.553 25.5672 198.115 22.1154 208.713C18.6637 219.311 33.9997 226.038 33.9997 226.038C33.9997 226.038 58.7496 235.633 82.1116 238.068C82.1116 238.068 104.594 241.073 114.901 239.641C114.901 239.641 119.289 241.144 122.025 240.715C122.025 240.715 123.85 238.837 123.85 234.864C123.85 232.446 120.2 231.425 120.2 231.425C120.2 231.425 144.795 225.521 151.773 217.358C158.752 209.195 150.341 202.199 150.341 202.199C150.341 202.199 143.111 196.723 130.652 202.428L114.331 206.406C114.331 206.406 114.148 195.526 111.284 190.691L67.9347 190.178Z" fill="#455A64"/>
<g style="mix-blend-mode:multiply" opacity="0.3">
<path d="M34.0118 226.055C34.0118 226.055 58.7615 235.65 82.1236 238.086C82.1236 238.086 86.6316 238.687 92.5273 239.221L98.5999 235.504C92.5406 238.802 84.4571 236.879 84.4571 236.879C84.4571 236.879 50.6825 229.136 37.3088 224.19C23.935 219.245 22.1319 208.722 22.1319 208.722C18.6934 219.324 34.0118 226.055 34.0118 226.055Z" fill="#625772"/>
</g>
<g style="mix-blend-mode:multiply" opacity="0.3">
<path d="M154.027 207.577C154.027 207.577 153.391 215.064 146.859 218.051C140.327 221.039 114.101 229.348 114.101 229.348L118.295 240.525C119.527 240.793 120.793 240.863 122.047 240.733C122.047 240.733 123.872 238.854 123.872 234.881C123.872 232.464 120.222 231.443 120.222 231.443C120.222 231.443 144.817 225.538 151.795 217.375C154.938 213.694 154.947 210.246 154.027 207.577Z" fill="#625772"/>
</g>
<g style="mix-blend-mode:multiply" opacity="0.3">
<path d="M94.3612 218.966C96.297 216.434 99.6648 212.695 103.642 210.883L107.236 209.168C107.236 209.168 93.9767 211.899 73.2355 208.973C73.2355 208.973 80.877 210.604 83.6216 218.104C71.6887 218.794 55.1328 213.645 55.1328 213.645C57.0288 215.05 83.4404 227.134 83.4404 227.134L85.058 223.872L85.2038 223.076C85.8756 224.071 87.0733 225.078 89.2168 225.246C93.6364 225.591 92.5448 221.547 92.5448 221.547L92.5934 221.463L93.2563 220.977L110.011 215.501C111.779 214.317 127.354 209.358 127.354 209.358C115.213 211.373 94.3612 218.966 94.3612 218.966Z" fill="#625772"/>
</g>
<path d="M8.09557 204.139L1.55013 200.837C1.55013 200.837 0.904875 194.287 0.259613 193.05C-0.38565 191.812 3.88809 191.331 4.16653 198.208L6.48682 199.224L8.09557 204.139Z" fill="#FFBE9D"/>
<path d="M12.7841 206.499C12.0714 205.363 11.4336 204.182 10.8748 202.963C10.2525 201.754 9.8528 200.442 9.69479 199.091C9.66311 198.709 9.75115 198.326 9.94671 197.995C10.0654 197.821 10.2331 197.686 10.4285 197.606C10.6078 197.532 10.7999 197.493 10.9942 197.491C11.1921 197.496 11.3866 197.545 11.5633 197.634C11.7399 197.724 11.8943 197.852 12.0151 198.009C12.2378 198.276 12.4223 198.574 12.5631 198.892C12.8548 199.511 13.0625 200.148 13.3189 200.753C13.5752 201.359 13.8537 201.982 14.3707 202.278H14.2603C14.6097 202.193 14.9662 202.139 15.3254 202.119C15.6811 202.091 16.0389 202.107 16.3905 202.167C16.7445 202.226 17.0865 202.342 17.4026 202.512C17.7081 202.692 17.9705 202.936 18.1716 203.228C17.9444 202.966 17.6662 202.752 17.354 202.601C17.0403 202.467 16.7079 202.382 16.3684 202.349C15.6876 202.299 15.0035 202.373 14.3487 202.565H14.2912L14.2382 202.539C13.919 202.365 13.6508 202.11 13.4603 201.801C13.2696 201.523 13.1068 201.227 12.9741 200.917C12.7001 200.298 12.4792 199.666 12.1919 199.083C11.9046 198.499 11.5289 197.911 10.9897 197.925C10.8505 197.926 10.7127 197.953 10.5831 198.004C10.4672 198.049 10.3672 198.128 10.2959 198.23C10.1546 198.484 10.0916 198.775 10.1147 199.065C10.1534 199.712 10.2797 200.352 10.4903 200.965C10.6848 201.596 10.9058 202.219 11.1533 202.835C11.6438 204.086 12.1963 205.301 12.7841 206.499Z" fill="#85645E"/>
<path d="M14.1689 202.34C14.4952 202.035 14.8608 201.774 15.2562 201.566C15.6381 201.357 16.0338 201.174 16.4406 201.018C16.8428 200.859 17.2582 200.731 17.6693 200.612C18.0803 200.492 18.509 200.404 18.9289 200.316C18.5134 200.431 18.1024 200.55 17.6958 200.691C17.2892 200.833 16.8914 200.987 16.5025 201.173C16.1157 201.348 15.742 201.55 15.3843 201.779C15.0305 201.996 14.7054 202.258 14.4164 202.556L14.1689 202.34Z" fill="#85645E"/>
<path d="M13.3115 201.235C14.3838 200.721 15.4177 200.13 16.4052 199.467C17.4066 198.812 18.3433 198.063 19.2029 197.231C18.3803 198.106 17.476 198.901 16.5025 199.604C15.5284 200.315 14.5048 200.956 13.4397 201.522L13.3115 201.235Z" fill="#85645E"/>
<path d="M10.5837 206.423C10.1152 205.257 9.65119 204.09 9.21365 202.91C8.77611 201.73 8.32973 200.559 7.88777 199.374V199.348V199.321C7.85683 198.11 7.84357 196.904 7.88777 195.688C7.88777 195.083 7.9408 194.477 7.99383 193.872C8.02035 193.567 8.05571 193.266 8.10432 192.961C8.14258 192.64 8.2259 192.326 8.35182 192.029C8.40093 191.923 8.48111 191.835 8.58162 191.777C8.61791 191.758 8.65658 191.745 8.69653 191.737H8.75842H8.88657C9.05911 191.737 9.23061 191.764 9.39484 191.817C9.71039 191.938 9.9838 192.148 10.1815 192.422C10.5346 192.942 10.7686 193.534 10.8666 194.155C10.9726 194.752 11.0419 195.356 11.0743 195.962L11.2113 197.77C10.9992 196.585 10.8666 195.366 10.6147 194.208C10.4994 193.638 10.2628 193.1 9.92077 192.63C9.75251 192.424 9.52851 192.27 9.2755 192.188C9.15113 192.149 9.02138 192.129 8.891 192.13C8.70537 192.157 8.78051 192.104 8.69653 192.232C8.59623 192.495 8.52941 192.77 8.49765 193.05C8.45787 193.337 8.42695 193.637 8.40485 193.934C8.36066 194.53 8.33856 195.127 8.3253 195.728C8.28995 196.93 8.28111 198.137 8.29879 199.334V199.277C8.71423 200.461 9.09431 201.663 9.48324 202.857C9.87216 204.05 10.2213 205.221 10.5837 206.423Z" fill="#85645E"/>
<path d="M9.83691 188.595C9.96539 188.573 10.097 188.578 10.2233 188.61C10.3496 188.642 10.4679 188.7 10.5706 188.781C10.7814 188.947 10.9458 189.164 11.0479 189.413C11.1467 189.653 11.2178 189.903 11.26 190.159C11.2886 190.41 11.3019 190.663 11.2998 190.915C11.2985 191.167 11.2793 191.418 11.2423 191.667C11.2157 191.913 11.1714 192.156 11.1098 192.396C11.007 192.877 10.8591 193.348 10.6678 193.801C10.6678 193.306 10.7518 192.825 10.7915 192.343C10.7915 192.1 10.8402 191.861 10.849 191.622C10.8747 191.386 10.8851 191.148 10.8799 190.911C10.9056 190.447 10.8609 189.982 10.7474 189.532C10.7026 189.304 10.5927 189.095 10.4311 188.928C10.2695 188.762 10.0631 188.646 9.83691 188.595Z" fill="#85645E"/>
<path d="M10.8975 192.639C11.5849 193.643 12.1923 194.7 12.7139 195.799L12.515 195.68C12.7523 195.666 12.9884 195.638 13.2222 195.596C13.4601 195.552 13.6948 195.493 13.9249 195.419C14.1543 195.344 14.3774 195.25 14.5922 195.14C14.8122 195.015 15.0182 194.867 15.2066 194.698C14.9272 195.142 14.5227 195.492 14.0442 195.706C13.8083 195.817 13.5627 195.905 13.3105 195.971C13.0544 196.038 12.7924 196.079 12.5283 196.095H12.3913L12.325 195.967C11.7605 194.898 11.2831 193.785 10.8975 192.639Z" fill="#85645E"/>
<path d="M115.722 162.148C115.427 157.525 114.184 153.012 112.071 148.889C108.637 142.445 108.178 133.734 108.178 133.734L108.094 133.699C107.342 133.412 106.591 133.116 105.853 132.815C105.115 132.515 104.311 132.117 103.568 131.715C103.568 131.715 104.487 153.371 89.7391 153.371C74.9908 153.371 75.9101 131.715 75.9101 131.715C75.1676 132.117 74.3986 132.479 73.6252 132.815C72.8518 133.151 72.1358 133.429 71.3845 133.699L71.3005 133.734C71.3005 133.734 70.8585 142.445 67.4068 148.889C65.2941 153.012 64.0515 157.525 63.7562 162.148C63.7562 162.148 63.1159 181.965 66.6516 187.869C70.1872 193.774 70.2884 193.801 70.2884 193.801C70.2884 193.801 76.9841 198.707 89.7347 198.707C102.485 198.707 109.181 193.801 109.181 193.801C109.181 193.801 108.527 195.317 112.071 189.408C115.616 183.499 115.722 162.148 115.722 162.148Z" fill="#E90038"/>
<g style="mix-blend-mode:multiply" opacity="0.7">
<path d="M89.7351 173.475H72.2158C75.9548 180.18 89.7351 179.946 89.7351 179.946C89.7351 179.946 103.515 180.18 107.254 173.475H89.7351Z" fill="#F9A1BC"/>
</g>
<path d="M171.373 204.139L177.901 200.837C177.901 200.837 178.546 194.287 179.191 193.05C179.837 191.812 175.563 191.331 175.284 198.208L172.964 199.224L171.373 204.139Z" fill="#FFBE9D"/>
<path d="M166.684 206.499C167.272 205.301 167.824 204.086 168.328 202.857C168.575 202.244 168.796 201.621 168.991 200.987C169.201 200.374 169.328 199.734 169.367 199.087C169.387 198.797 169.324 198.507 169.185 198.252C169.114 198.15 169.014 198.071 168.898 198.026C168.768 197.975 168.631 197.948 168.491 197.947C167.952 197.947 167.563 198.539 167.289 199.105C167.015 199.67 166.781 200.32 166.507 200.939C166.374 201.249 166.212 201.545 166.021 201.823C165.83 202.132 165.562 202.387 165.243 202.561L165.19 202.587H165.133C164.807 202.489 164.472 202.423 164.134 202.388C163.794 202.355 163.452 202.355 163.113 202.388C162.773 202.421 162.441 202.506 162.127 202.64C161.815 202.792 161.537 203.005 161.31 203.268C161.51 202.975 161.772 202.73 162.079 202.552C162.395 202.382 162.737 202.266 163.091 202.207C163.442 202.147 163.8 202.131 164.156 202.159C164.515 202.179 164.871 202.232 165.221 202.318H165.11C165.628 202.022 165.897 201.376 166.158 200.793C166.419 200.21 166.626 199.551 166.918 198.932C167.059 198.614 167.243 198.316 167.466 198.048C167.587 197.891 167.741 197.763 167.918 197.674C168.095 197.584 168.289 197.536 168.487 197.531C168.681 197.533 168.873 197.572 169.053 197.646C169.248 197.725 169.416 197.861 169.534 198.035C169.724 198.364 169.807 198.744 169.773 199.122C169.615 200.473 169.215 201.785 168.593 202.994C168.033 204.202 167.395 205.373 166.684 206.499Z" fill="#85645E"/>
<path d="M165.077 202.556C164.788 202.258 164.463 201.996 164.109 201.779C163.75 201.549 163.375 201.347 162.986 201.173C162.599 200.992 162.202 200.832 161.797 200.691C161.391 200.55 160.98 200.431 160.564 200.316C161.006 200.404 161.404 200.497 161.824 200.612C162.244 200.727 162.651 200.859 163.053 201.018C163.459 201.175 163.855 201.358 164.237 201.566C164.632 201.774 164.998 202.035 165.324 202.34L165.077 202.556Z" fill="#85645E"/>
<path d="M166.016 201.531C164.951 200.965 163.927 200.324 162.953 199.613C161.98 198.909 161.076 198.115 160.253 197.24C161.112 198.072 162.049 198.821 163.051 199.476C164.038 200.139 165.072 200.729 166.144 201.244L166.016 201.531Z" fill="#85645E"/>
<path d="M168.885 206.423C169.248 205.221 169.615 204.019 170.008 202.826C170.401 201.632 170.777 200.43 171.188 199.246V199.303C171.188 198.106 171.188 196.899 171.161 195.697C171.161 195.096 171.126 194.499 171.082 193.903C171.082 193.606 171.029 193.306 170.989 193.019C170.957 192.739 170.89 192.464 170.79 192.201C170.706 192.073 170.79 192.126 170.591 192.099C170.462 192.099 170.334 192.118 170.211 192.157C169.958 192.239 169.734 192.393 169.566 192.599C169.224 193.07 168.986 193.607 168.868 194.177C168.62 195.335 168.488 196.554 168.275 197.739L168.412 195.931C168.445 195.325 168.514 194.721 168.62 194.124C168.718 193.503 168.952 192.911 169.305 192.391C169.503 192.117 169.776 191.907 170.092 191.786C170.256 191.733 170.428 191.706 170.6 191.706H170.728H170.79C170.83 191.714 170.869 191.727 170.905 191.746C171.006 191.804 171.086 191.892 171.135 191.998C171.261 192.295 171.344 192.609 171.382 192.93C171.431 193.235 171.466 193.536 171.493 193.841C171.546 194.446 171.577 195.052 171.599 195.657C171.625 196.873 171.599 198.079 171.599 199.29V199.321V199.348C171.184 200.532 170.715 201.708 170.273 202.883C169.831 204.059 169.354 205.257 168.885 206.423Z" fill="#85645E"/>
<path d="M169.631 188.595C169.41 188.651 169.209 188.768 169.053 188.934C168.896 189.1 168.79 189.308 168.748 189.532C168.634 189.982 168.589 190.447 168.615 190.911C168.61 191.148 168.62 191.386 168.646 191.622C168.646 191.861 168.681 192.1 168.703 192.343C168.743 192.824 168.814 193.306 168.827 193.801C168.636 193.348 168.488 192.877 168.385 192.396C168.323 192.156 168.279 191.912 168.253 191.667C168.216 191.418 168.196 191.167 168.195 190.915C168.191 190.663 168.204 190.41 168.235 190.159C168.277 189.903 168.348 189.653 168.447 189.413C168.549 189.164 168.713 188.947 168.924 188.781C169.024 188.704 169.138 188.648 169.259 188.616C169.38 188.584 169.507 188.577 169.631 188.595Z" fill="#85645E"/>
<path d="M168.572 192.639C168.188 193.794 167.71 194.916 167.144 195.993L167.078 196.122H166.941C166.677 196.105 166.415 196.064 166.159 195.998C165.907 195.932 165.661 195.843 165.425 195.733C164.947 195.519 164.542 195.168 164.263 194.725C164.451 194.894 164.657 195.042 164.877 195.167C165.092 195.277 165.315 195.37 165.544 195.445C165.774 195.52 166.009 195.579 166.247 195.622C166.481 195.665 166.717 195.693 166.954 195.706L166.755 195.825C167.276 194.717 167.883 193.651 168.572 192.639Z" fill="#85645E"/>
<path d="M103.567 230.396C100.557 230.316 97.5521 230.471 95.4042 230.396C93.2563 230.32 86.923 228.279 86.1672 228.389C86.1672 228.389 86.0125 235.902 83.458 238.258C88.4256 238.872 106.104 240.91 114.912 239.664C114.912 239.664 119.301 241.166 122.037 240.737C122.037 240.737 123.862 238.859 123.862 234.886C123.862 232.468 120.211 231.447 120.211 231.447C120.211 231.447 115.381 229.463 114.09 229.353C112.8 229.242 106.573 230.475 103.567 230.396Z" fill="#FFBE9D"/>
<g style="mix-blend-mode:multiply" opacity="0.4">
<path d="M92.5275 239.222L98.6 235.505C92.5408 238.802 84.4573 236.879 84.4573 236.879C84.2058 237.39 83.8695 237.855 83.4629 238.254C85.2175 238.47 88.5498 238.859 92.5275 239.222Z" fill="#B88B83"/>
</g>
<path d="M81.544 220.434C85.4068 219.576 87.5194 221.618 87.5194 221.618C87.5194 221.618 89.2872 222.582 93.2648 220.973C93.2648 220.973 91.2804 226.568 94.3653 230.254L86.1758 228.371L74.5566 223.019L81.544 220.434Z" fill="#CA977D"/>
<path d="M41.0664 208.514C45.1192 209.279 48.9775 210.825 52.7695 212.408C56.5616 213.99 60.2829 215.802 63.96 217.64L66.7001 219.059C67.6194 219.532 68.4989 220.049 69.4447 220.46C71.3054 221.344 73.1793 222.184 75.0355 223.068L80.6131 225.719L86.1685 228.402L80.5202 225.918L74.8852 223.39C73.0069 222.555 71.1374 221.689 69.2635 220.84C68.3177 220.434 67.4161 219.912 66.5057 219.452L63.7567 218.051C60.0972 216.186 56.3936 214.396 52.637 212.748C50.763 211.899 48.8582 211.126 46.9445 210.383C45.0299 209.627 43.066 209.003 41.0664 208.514Z" fill="white"/>
<path d="M93.2568 220.977L97.4201 219.523L101.588 218.1L105.764 216.69L109.945 215.303C113.883 213.57 117.901 212.098 122.002 210.764C124.048 210.11 126.117 209.535 128.189 208.996C130.262 208.457 132.384 208.059 134.505 207.75C132.401 208.165 130.317 208.658 128.251 209.23C126.186 209.802 124.138 210.429 122.108 211.113C120.081 211.79 118.064 212.511 116.058 213.274C114.064 214.043 112.08 214.825 110.104 215.669L105.91 217.022L101.712 218.348L97.5041 219.674L93.2568 220.977Z" fill="white"/>
<path d="M65.0146 206.636C66.2521 206.843 67.472 207.117 68.6918 207.418C69.9116 207.719 71.1093 208.077 72.3114 208.443C73.5136 208.81 74.6892 209.243 75.8471 209.712C77.0104 210.18 78.1465 210.712 79.2502 211.307C78.0923 210.83 76.9299 210.37 75.7543 209.95C74.5787 209.531 73.3987 209.124 72.2186 208.757C71.0386 208.39 69.832 208.019 68.6343 207.666C67.4366 207.312 66.2212 206.976 65.0146 206.636Z" fill="white"/>
<path d="M114.343 206.424C113.123 206.905 111.912 207.387 110.701 207.886C109.49 208.386 108.288 208.872 107.099 209.416C105.911 209.959 104.722 210.49 103.564 211.082C102.396 211.667 101.261 212.316 100.165 213.026C101.192 212.208 102.289 211.482 103.444 210.856C104.585 210.211 105.778 209.663 106.98 209.115C108.182 208.567 109.393 208.099 110.626 207.648C111.859 207.197 113.079 206.777 114.343 206.424Z" fill="white"/>
<path d="M114.343 206.424C113.278 206.455 112.217 206.463 111.152 206.472L107.97 206.508C106.905 206.508 105.844 206.534 104.783 206.552L101.597 206.636C102.649 206.468 103.714 206.371 104.774 206.295C105.835 206.22 106.9 206.203 107.965 206.176C109.03 206.15 110.091 206.176 111.156 206.22C112.221 206.264 113.282 206.318 114.343 206.424Z" fill="white"/>
<path d="M65.0146 206.636C66.5615 206.636 68.1084 206.671 69.6552 206.751C71.2021 206.83 72.749 206.963 74.2826 207.104C75.8162 207.246 77.3763 207.449 78.8922 207.679C80.4081 207.909 81.9462 208.187 83.4577 208.514C82.6887 208.426 81.9285 208.302 81.1595 208.218C80.3905 208.134 79.6259 208.019 78.8569 207.935C77.3233 207.754 75.7897 207.573 74.2516 207.431C72.7136 207.29 71.1579 207.135 69.6376 206.989C68.1172 206.843 66.5571 206.755 65.0146 206.636Z" fill="white"/>
<path d="M76.8412 95.1824C77.9108 98.1436 77.8489 101.016 76.3683 103.779C76.2711 103.469 76.165 102.4 75.4844 102.32C75.1495 102.307 74.8186 102.396 74.5354 102.575C74.2521 102.755 74.0298 103.015 73.8978 103.323C73.6429 103.944 73.553 104.62 73.637 105.286C73.7116 106.439 73.9375 107.577 74.3088 108.671C74.5567 109.556 75.0339 110.359 75.6921 111C76.0254 111.315 76.4414 111.528 76.8914 111.615C77.3415 111.702 77.807 111.659 78.2334 111.491C78.326 114.441 79.2771 117.741 81.4288 119.762C83.5805 121.783 86.8269 123.387 89.7772 123.294C92.7275 123.202 95.2358 121.047 97.8046 119.254C99.8253 117.103 100.574 113.743 100.482 110.792C100.482 111.424 101.724 111.473 102.307 111.234C102.871 110.935 103.301 110.435 103.514 109.833C104.347 108.039 104.709 106.061 104.565 104.088C104.541 103.503 104.39 102.93 104.123 102.408C103.841 101.905 103.262 101.175 102.753 101.458C102.4 101.653 102.4 101.653 101.534 102.444L101.702 102.064C101.304 100.592 101.525 99.3148 101.781 97.8121C102.037 96.3094 101.825 94.462 100.482 93.7416C99.779 93.366 98.9437 93.4013 98.1526 93.366C95.5186 93.2458 92.9905 92.2943 90.9309 90.6479C89.963 89.8701 88.8935 88.8801 87.6737 89.1187C86.719 89.3044 86.0914 90.1839 85.3976 90.8601C84.6065 91.6145 83.6448 92.1664 82.5943 92.4689C81.5439 92.7713 80.4359 92.8152 79.3648 92.597C79.401 92.94 79.3612 93.2869 79.248 93.6128C79.1349 93.9387 78.9514 94.2357 78.7104 94.4825C78.4694 94.7294 78.177 94.9201 77.8539 95.0411C77.5308 95.1621 77.1851 95.2103 76.8412 95.1824Z" fill="#FFBE9D"/>
<path opacity="0.7" d="M111.276 106.067C111.404 105.046 111.311 104.009 111.002 103.027C110.964 104.119 110.717 105.193 110.273 106.191C110.469 105.353 110.469 104.48 110.273 103.641C110.041 105.273 109.483 106.842 108.633 108.255C109.036 107.528 109.277 106.721 109.338 105.892C109.399 105.063 109.279 104.23 108.987 103.451C108.929 104.649 108.687 105.831 108.271 106.956C108.525 105.981 108.383 104.945 107.877 104.074C108.06 105.833 107.735 107.608 106.94 109.188C107.368 105.152 106.3 101.1 103.939 97.7984C105.565 98.6092 106.826 100 107.475 101.696C107.363 100.864 107.06 100.069 106.591 99.3718C107.346 99.9708 107.964 100.724 108.403 101.582C108.093 99.9003 107.357 98.3267 106.264 97.0117C107.505 98.1338 108.55 99.454 109.358 100.919C109.369 100.132 109.219 99.3511 108.916 98.6249C109.474 99.1745 109.953 99.7992 110.339 100.481C110.232 100.129 110.158 99.7683 110.118 99.4027C110.013 99.0194 109.88 98.6443 109.72 98.2801C109.4 97.5624 108.985 96.8906 108.487 96.2825C109.763 97.3782 110.706 98.8099 111.21 100.415C111.774 102.254 111.797 104.216 111.276 106.067Z" fill="#D6D6D6"/>
<path opacity="0.7" d="M101.155 85.0125C102.935 85.1264 104.61 85.8912 105.862 87.1611C107.114 88.431 107.855 90.1171 107.943 91.8982C107.701 90.7726 107.156 89.7348 106.366 88.8973C107.103 90.1414 107.414 91.5926 107.25 93.0296C107.169 92.324 106.91 91.6507 106.495 91.0742C106.08 90.4977 105.524 90.0373 104.881 89.737L106.092 91.9468C105.714 91.4329 105.202 91.0337 104.611 90.7933C105.495 91.7524 105.734 93.1357 105.937 94.4306C105.698 93.7482 105.323 93.1217 104.833 92.5897C104.344 92.0577 103.751 91.6314 103.091 91.3369C103.917 92.0971 104.258 93.2373 104.558 94.3157C103.549 92.8884 102.207 91.7278 100.65 90.9341C99.0924 90.1403 97.3652 89.737 95.6172 89.7591C96.481 89.4251 97.4214 89.3409 98.3308 89.516C99.2386 89.6869 100.118 89.9845 100.943 90.4C100.239 89.6073 99.3935 88.9524 98.4501 88.4686C99.6275 88.6685 100.767 89.0502 101.827 89.6C100.568 88.2344 98.8204 87.4224 96.9652 87.3416C98.9777 87.0244 101.039 87.3443 102.861 88.2564C102.29 87.6122 101.551 87.1406 100.726 86.8952C101.748 86.768 102.783 86.9824 103.67 87.5051C103.196 86.9196 102.549 86.4989 101.822 86.303C101.084 86.1236 100.328 86.0214 99.5683 85.998C101.226 85.6388 102.958 85.9064 104.43 86.7494C103.534 85.8598 102.394 85.2554 101.155 85.0125Z" fill="#D6D6D6"/>
<path opacity="0.7" d="M78.7739 81.7907C79.769 81.2531 80.8621 80.9212 81.9882 80.8149C83.1142 80.7086 84.2501 80.83 85.3282 81.1719C84.2737 81.1729 83.2272 81.3553 82.2345 81.7111C82.9219 81.6244 83.62 81.7141 84.2631 81.9719C83.4291 81.999 82.6143 82.2296 81.8898 82.6437C83.5503 82.3621 85.2574 82.6306 86.7513 83.4083C84.875 83.2289 83 83.764 81.5009 84.9065C82.371 84.6088 83.2941 84.4973 84.2101 84.5795C83.5393 84.8003 82.9049 85.119 82.3273 85.5253C83.875 85.0305 85.5307 84.9815 87.1049 85.3838C85.1259 85.7803 83.2243 86.4952 81.4743 87.5008C79.7224 88.5151 78.2741 89.9801 77.2801 91.7436C77.4863 90.3685 78.1422 89.1003 79.1452 88.1372C78.3147 88.9571 77.6103 89.8954 77.0547 90.9216C77.2641 89.4322 78.0088 88.07 79.1496 87.0898C78.2876 87.4926 77.5367 88.0994 76.9619 88.8576C77.2219 88.0053 77.7112 87.2409 78.3762 86.6478C76.9916 87.4891 75.9087 88.7468 75.2825 90.241C75.304 89.2305 75.5382 88.2359 75.97 87.3221C76.4018 86.4082 77.0214 85.5957 77.7884 84.9375C76.3702 86.0306 75.1834 87.3947 74.2969 88.9505C74.402 87.4822 74.865 86.0621 75.6454 84.814C76.4258 83.566 77.4999 82.528 78.7739 81.7907Z" fill="#D6D6D6"/>
<path opacity="0.7" d="M66.1392 108.516C66.5876 111.161 67.8193 113.61 69.6749 115.548C69.0382 114.572 68.5969 113.482 68.3755 112.339C68.7356 113.158 69.2765 113.885 69.9578 114.465C69.2718 113.475 68.8379 112.332 68.6937 111.137C69.4438 112.631 70.5355 113.927 71.8803 114.92C70.0964 113.136 69.0233 110.764 68.8617 108.246C69.3703 110.187 70.5042 111.907 72.088 113.139C71.2382 112.199 70.6499 111.053 70.382 109.815C71.2054 111.36 72.3709 112.697 73.7896 113.722C72.3931 111.995 71.5663 109.878 71.423 107.662C71.2798 105.446 71.8271 103.24 72.9896 101.347C71.8075 102.578 70.9283 104.067 70.4218 105.696C70.2828 104.47 70.5666 103.234 71.2262 102.191C70.4608 103.076 69.8806 104.106 69.5202 105.219C69.3729 104.177 69.4914 103.115 69.8646 102.132C70.2378 101.148 70.8537 100.275 71.6549 99.5928C69.6845 101.176 68.3355 103.403 67.8452 105.882C67.6767 104.605 67.8458 103.307 68.3357 102.116C67.6657 103.136 67.0747 104.206 66.5679 105.316C66.6348 104.98 66.6674 104.638 66.6651 104.295C66.7993 103.544 67.0561 102.82 67.4253 102.152C67.5667 101.9 67.9071 101.555 67.9026 101.268C66.1878 102.996 65.8077 106.231 66.1392 108.516Z" fill="#D6D6D6"/>
<path d="M79.9268 100.587C80.0074 99.9171 80.2807 99.2846 80.7134 98.7665C81.1462 98.2303 81.7157 97.8211 82.3619 97.582C83.0115 97.3476 83.7119 97.2911 84.3905 97.4185C85.0519 97.5391 85.6651 97.8457 86.1584 98.3024C85.5931 97.9993 84.9721 97.8143 84.3331 97.7588C83.7135 97.6986 83.0883 97.7786 82.5038 97.9928C81.9193 98.207 81.3905 98.55 80.9565 98.9963C80.5099 99.4521 80.1597 99.9932 79.9268 100.587Z" fill="#4E342E"/>
<path d="M87.5738 105.237C87.2467 104.455 86.3496 104.052 85.501 104.013C84.6546 104.038 83.8144 104.167 82.9995 104.397C82.178 104.624 81.306 104.587 80.5068 104.291C80.9488 104.994 81.7532 105.175 82.5752 105.175C83.3938 105.115 84.2074 105 85.0104 104.83C85.828 104.742 86.9108 104.742 87.5738 105.237Z" fill="#4E342E"/>
<path d="M99.5413 100.587C99.3057 99.9925 98.9525 99.4513 98.5027 98.9963C98.0687 98.55 97.5399 98.207 96.9554 97.9928C96.3709 97.7786 95.7457 97.6986 95.1261 97.7588C94.4871 97.8143 93.8661 97.9993 93.3008 98.3024C93.7941 97.8457 94.4073 97.5391 95.0686 97.4185C95.7473 97.2911 96.4477 97.3476 97.0972 97.582C97.7434 97.8211 98.313 98.2303 98.7457 98.7665C99.1817 99.2836 99.458 99.9162 99.5413 100.587Z" fill="#4E342E"/>
<path d="M91.8955 105.237C92.2226 104.455 93.1197 104.052 93.9683 104.013C94.8147 104.038 95.6549 104.167 96.4698 104.397C97.2913 104.624 98.1633 104.587 98.9625 104.291C98.5205 104.994 97.7161 105.175 96.8941 105.175C96.0755 105.115 95.2619 105 94.4589 104.83C93.6412 104.742 92.5584 104.742 91.8955 105.237Z" fill="#4E342E"/>
<g style="mix-blend-mode:multiply" opacity="0.5">
<path d="M87.9937 111.168C88.445 111.465 88.971 111.629 89.5112 111.641C90.0514 111.652 90.5839 111.512 91.0477 111.234C91.6664 110.854 92.2321 110.209 92.9525 110.293C92.4945 111.04 91.8829 111.682 91.1582 112.176C90.7926 112.416 90.3727 112.562 89.9366 112.599C89.5005 112.636 89.062 112.563 88.6611 112.388C87.8567 111.977 87.2512 111.141 86.5176 110.62C86.9728 110.222 87.6446 110.929 87.9937 111.168Z" fill="#B88B83"/>
</g>
<path d="M74.8262 104.706C76.0577 106.17 76.7544 108.009 76.8017 109.921C76.541 109.015 76.2802 108.127 75.9488 107.27C75.6173 106.412 75.2328 105.559 74.8262 104.706Z" fill="#85645E"/>
<path d="M103.091 103.708C102.659 104.612 102.294 105.547 101.999 106.505C101.716 107.468 101.504 108.45 101.367 109.444C101.27 108.423 101.376 107.392 101.681 106.412C101.969 105.427 102.448 104.508 103.091 103.708Z" fill="#85645E"/>
<path d="M85.0811 114.465C86.6366 114.747 88.216 114.878 89.7968 114.854C91.3761 114.813 92.9479 114.621 94.4904 114.279C91.4991 115.57 88.1209 115.637 85.0811 114.465Z" fill="#85645E"/>
<g style="mix-blend-mode:multiply" opacity="0.5">
<path d="M87.5918 116.056C89.0051 116.55 90.5514 116.503 91.9319 115.923C91.7348 116.319 91.4402 116.657 91.076 116.907C90.7118 117.157 90.2899 117.309 89.8502 117.351C89.396 117.339 88.9519 117.214 88.5577 116.988C88.1635 116.762 87.8316 116.442 87.5918 116.056Z" fill="#B88B83"/>
</g>
<g style="mix-blend-mode:multiply" opacity="0.3">
<path d="M85.0811 205.99C85.0811 205.99 99.9442 204.258 105.296 202.689C105.292 202.689 98.2471 208.381 85.0811 205.99Z" fill="#625772"/>
</g>
<g style="mix-blend-mode:multiply" opacity="0.3">
<path d="M76.166 202.11C76.166 202.11 87.1929 204.399 96.2133 202.446C96.2133 202.446 83.1136 207.661 76.166 202.11Z" fill="#625772"/>
</g>
<g style="mix-blend-mode:multiply" opacity="0.4">
<path d="M98.6006 239.699C104.47 240.083 110.657 240.233 114.856 239.663C114.414 236.852 115.475 233.768 115.475 233.768C109.102 235.398 98.6006 239.699 98.6006 239.699Z" fill="#B88B83"/>
</g>
<rect x="184" y="31" width="43.0444" height="18.0786" rx="3.44355" fill="#E90038"/>
<path d="M193.866 43.5039C193.705 43.5096 193.579 43.4666 193.487 43.3747C193.395 43.2829 193.349 43.1652 193.349 43.0218C193.349 42.9127 193.384 42.818 193.453 42.7377C193.516 42.6516 193.61 42.6057 193.737 42.5999L193.995 42.5827C194.247 42.5655 194.437 42.488 194.563 42.3503C194.695 42.2068 194.761 42.0031 194.761 41.739V37.8651C194.761 37.6814 194.807 37.5437 194.899 37.4518C194.996 37.3543 195.134 37.3055 195.312 37.3055C195.49 37.3055 195.625 37.3543 195.717 37.4518C195.814 37.5437 195.863 37.6814 195.863 37.8651V41.7304C195.863 42.092 195.797 42.3991 195.665 42.6516C195.539 42.9041 195.349 43.1021 195.097 43.2456C194.844 43.3833 194.531 43.4637 194.158 43.4866L193.866 43.5039ZM198.992 43.5297C198.556 43.5297 198.177 43.4407 197.856 43.2628C197.535 43.0849 197.285 42.8324 197.107 42.5052C196.929 42.1724 196.84 41.7821 196.84 41.3344C196.84 40.9958 196.889 40.6945 196.987 40.4305C197.09 40.1608 197.236 39.9312 197.426 39.7418C197.615 39.5467 197.842 39.4003 198.106 39.3027C198.37 39.1994 198.665 39.1478 198.992 39.1478C199.429 39.1478 199.807 39.2367 200.129 39.4147C200.45 39.5926 200.7 39.8451 200.878 40.1722C201.056 40.4994 201.145 40.8868 201.145 41.3344C201.145 41.673 201.093 41.9772 200.99 42.247C200.892 42.5167 200.749 42.7492 200.559 42.9443C200.37 43.1337 200.143 43.28 199.879 43.3833C199.615 43.4809 199.32 43.5297 198.992 43.5297ZM198.992 42.7118C199.205 42.7118 199.391 42.6602 199.552 42.5569C199.713 42.4536 199.836 42.3015 199.922 42.1006C200.014 41.894 200.06 41.6386 200.06 41.3344C200.06 40.8753 199.962 40.5338 199.767 40.31C199.572 40.0804 199.314 39.9656 198.992 39.9656C198.78 39.9656 198.594 40.0173 198.433 40.1206C198.272 40.2181 198.146 40.3702 198.054 40.5768C197.968 40.7777 197.925 41.0302 197.925 41.3344C197.925 41.7878 198.023 42.1322 198.218 42.3675C198.413 42.5971 198.671 42.7118 198.992 42.7118ZM203.016 45.0621C202.89 45.0621 202.787 45.0276 202.706 44.9588C202.626 44.8956 202.577 44.8095 202.56 44.7005C202.549 44.5915 202.569 44.4767 202.62 44.3561L203.206 43.0562V43.5039L201.639 39.8795C201.587 39.7533 201.57 39.6356 201.587 39.5266C201.604 39.4175 201.656 39.3314 201.742 39.2683C201.834 39.1994 201.957 39.165 202.112 39.165C202.244 39.165 202.351 39.1966 202.431 39.2597C202.511 39.3171 202.583 39.429 202.646 39.5954L203.808 42.4966H203.55L204.738 39.5868C204.801 39.4261 204.876 39.3171 204.962 39.2597C205.048 39.1966 205.163 39.165 205.306 39.165C205.433 39.165 205.533 39.1994 205.608 39.2683C205.682 39.3314 205.728 39.4175 205.745 39.5266C205.763 39.6299 205.742 39.7447 205.685 39.8709L203.593 44.6488C203.518 44.8095 203.438 44.9186 203.352 44.976C203.266 45.0334 203.154 45.0621 203.016 45.0621ZM208.598 43.5125C208.42 43.5125 208.282 43.4637 208.185 43.3661C208.093 43.2628 208.047 43.1222 208.047 42.9443V38.2955H206.368C206.219 38.2955 206.101 38.2553 206.015 38.175C205.935 38.0889 205.895 37.9741 205.895 37.8306C205.895 37.6814 205.935 37.5695 206.015 37.4949C206.101 37.4145 206.219 37.3743 206.368 37.3743H210.828C210.977 37.3743 211.092 37.4145 211.172 37.4949C211.258 37.5695 211.301 37.6814 211.301 37.8306C211.301 37.9741 211.258 38.0889 211.172 38.175C211.092 38.2553 210.977 38.2955 210.828 38.2955H209.149V42.9443C209.149 43.1222 209.103 43.2628 209.011 43.3661C208.919 43.4637 208.782 43.5125 208.598 43.5125ZM214.467 43.5125C214.312 43.5125 214.183 43.478 214.08 43.4092C213.982 43.3346 213.902 43.2255 213.839 43.082L211.592 38.0372C211.529 37.8937 211.511 37.7675 211.54 37.6584C211.569 37.5494 211.629 37.4633 211.721 37.4002C211.813 37.337 211.922 37.3055 212.048 37.3055C212.214 37.3055 212.338 37.3428 212.418 37.4174C212.504 37.4863 212.576 37.5924 212.633 37.7359L214.674 42.4622H214.303L216.335 37.7273C216.398 37.5896 216.473 37.4863 216.559 37.4174C216.645 37.3428 216.766 37.3055 216.921 37.3055C217.047 37.3055 217.15 37.337 217.23 37.4002C217.317 37.4633 217.371 37.5494 217.394 37.6584C217.417 37.7675 217.397 37.8937 217.334 38.0372L215.087 43.082C215.024 43.2255 214.943 43.3346 214.846 43.4092C214.754 43.478 214.628 43.5125 214.467 43.5125Z" fill="white"/>
</svg>
