<svg width="210" height="225" viewBox="0 0 210 225" fill="none" xmlns="http://www.w3.org/2000/svg">
<path d="M148.068 173.553L136.299 224.646L141.275 224.631L153.069 174.037L148.068 173.553Z" fill="#E0E0E0"/>
<path d="M169.532 173.553L181.342 224.646H186.07L174.645 173.553H169.532Z" fill="#E0E0E0"/>
<path d="M140.125 135.177L146.827 170.353H154.438L147.281 135.177H140.125Z" fill="#E0E0E0"/>
<path d="M23.4299 173.553L13.8311 224.646H18.7163L28.7441 173.553H23.4299Z" fill="#E0E0E0"/>
<path d="M43.6113 173.553L54.5829 224.368H59.4126L48.8195 173.553H43.6113Z" fill="#E0E0E0"/>
<path d="M15.4854 135.177L22.1874 170.353H29.8029L22.6416 135.177H15.4854Z" fill="#E0E0E0"/>
<path d="M0.411133 131.983L1.78384 138.377H154.664L152.883 131.983H0.411133Z" fill="#EBEBEB"/>
<path d="M3.33301 144.403L4.94796 150.797H156.799L155.416 144.403H3.33301Z" fill="#EBEBEB"/>
<path d="M6.35156 157.262L7.85549 163.656H159.232L157.804 157.262H6.35156Z" fill="#EBEBEB"/>
<path d="M181.16 170.353H17.9238V176.747H181.16V170.353Z" fill="#EBEBEB"/>
<path d="M32.8823 202.041C33.3959 202.288 33.8548 202.636 34.2318 203.063C34.6089 203.49 34.8965 203.989 35.0776 204.529C35.4304 205.615 35.5288 206.766 35.3653 207.896C35.118 210.081 33.8765 212.286 32.5441 214.032C30.7021 212.422 30.2782 209.622 30.152 208.188C29.9552 205.922 30.9746 201.703 32.8823 202.041Z" fill="#E90038"/>
<path d="M34.6794 217.61C34.5548 216.986 34.597 216.341 34.8017 215.738C35.0063 215.136 35.3663 214.598 35.8452 214.179C36.3307 213.768 36.8933 213.459 37.5 213.269C38.1066 213.08 38.7451 213.013 39.3779 213.073C39.6721 213.069 39.9637 213.129 40.2322 213.25C40.5007 213.37 40.7396 213.548 40.9323 213.77C41.0711 214.007 41.1443 214.277 41.1443 214.552C41.1443 214.827 41.0711 215.097 40.9323 215.334C40.652 215.81 40.2517 216.203 39.7716 216.475C38.1768 217.484 36.4508 218.15 34.6491 217.61" fill="#E90038"/>
<path d="M32.3223 224.308C32.3322 224.157 32.3542 224.006 32.3879 223.859C32.4434 223.546 32.5191 223.137 32.6099 222.647C32.8145 221.296 33.2372 219.987 33.8615 218.771C34.5103 217.557 35.4699 216.536 36.6423 215.814C36.9992 215.601 37.3804 215.432 37.7778 215.309C37.8837 215.276 37.9915 215.249 38.1008 215.229C38.1407 215.221 38.1819 215.221 38.2219 215.229C37.6947 215.41 37.1873 215.645 36.7079 215.93C35.5733 216.662 34.644 217.671 34.0079 218.862C33.3902 220.066 32.958 221.355 32.726 222.688C32.615 223.192 32.5241 223.606 32.4535 223.889C32.4229 224.032 32.379 224.172 32.3223 224.308Z" fill="#263238"/>
<path d="M32.3881 205.296C32.3982 205.362 32.3982 205.428 32.3881 205.493C32.3881 205.64 32.3881 205.826 32.4234 206.058C32.4234 206.563 32.4739 207.255 32.5041 208.128C32.5597 209.879 32.6051 212.301 32.595 214.971C32.5849 217.641 32.5193 220.063 32.4436 221.814C32.4083 222.687 32.3729 223.399 32.3426 223.883C32.3426 224.116 32.3426 224.302 32.3073 224.449C32.3143 224.514 32.3143 224.58 32.3073 224.646C32.2999 224.58 32.2999 224.514 32.3073 224.449C32.3073 224.302 32.3073 224.116 32.3073 223.883C32.3073 223.379 32.3376 222.672 32.3578 221.809C32.3982 220.058 32.4486 217.641 32.4587 214.971C32.4688 212.301 32.4587 209.884 32.4184 208.133C32.4184 207.27 32.3931 206.568 32.383 206.058V205.493C32.3793 205.428 32.381 205.362 32.3881 205.296Z" fill="#263238"/>
<path d="M31.4996 218.943C31.2777 217.618 30.743 216.365 29.9399 215.288C29.1368 214.211 28.0885 213.341 26.8819 212.751C26.2712 212.458 25.4688 212.246 24.9591 212.72C24.4494 213.195 24.5705 214.002 24.8178 214.638C25.3579 215.957 26.2764 217.086 27.4574 217.884C28.6384 218.681 30.0291 219.111 31.4542 219.12" fill="#E90038"/>
<path d="M27.18 214.825C27.3164 214.867 27.4482 214.923 27.5736 214.992C27.6948 215.052 27.8462 215.128 28.0127 215.229C28.206 215.336 28.393 215.454 28.5729 215.582C28.798 215.737 29.0137 215.906 29.2189 216.087C29.4564 216.271 29.6839 216.468 29.9002 216.677C30.3958 217.183 30.8326 217.743 31.2022 218.348C31.5612 218.956 31.8475 219.605 32.0551 220.28C32.146 220.575 32.2185 220.875 32.2721 221.179C32.324 221.442 32.3611 221.709 32.3832 221.976C32.4047 222.196 32.4148 222.417 32.4134 222.637C32.4248 222.805 32.4248 222.974 32.4134 223.142C32.4106 223.284 32.3954 223.426 32.368 223.566C32.3327 223.566 32.3933 222.96 32.2873 221.991C32.2575 221.728 32.2137 221.467 32.1561 221.209C32.0981 220.913 32.024 220.619 31.934 220.331C31.7172 219.67 31.4314 219.034 31.0811 218.433C30.719 217.838 30.2925 217.285 29.8093 216.783C29.5966 216.566 29.3707 216.362 29.1331 216.172C28.9349 215.994 28.7277 215.825 28.5123 215.668C27.72 215.108 27.1648 214.855 27.18 214.825Z" fill="#263238"/>
<path d="M137.309 205.756L137.667 223.858L115.144 224.419C115.224 222.264 126.751 217.656 126.751 217.656L126.044 206.049L137.309 205.756Z" fill="#E90038"/>
<g opacity="0.6">
<path opacity="0.6" d="M133.706 216.505C133.919 216.566 134.104 216.701 134.225 216.886C134.347 217.072 134.397 217.295 134.367 217.515C134.316 217.734 134.183 217.925 133.995 218.049C133.807 218.173 133.579 218.22 133.357 218.181C133.125 218.117 132.925 217.969 132.797 217.765C132.668 217.562 132.62 217.318 132.661 217.081C132.739 216.857 132.901 216.672 133.113 216.565C133.324 216.457 133.569 216.436 133.796 216.505" fill="white"/>
</g>
<g opacity="0.6">
<path opacity="0.6" d="M137.667 223.858L137.561 222.037L116.006 223.238C116.006 223.238 114.997 223.702 115.143 224.404L137.667 223.858Z" fill="white"/>
</g>
<path d="M126.397 217.55C126.397 217.661 126.957 217.696 127.507 218.055C128.058 218.413 128.355 218.852 128.456 218.807C128.557 218.761 128.375 218.13 127.704 217.727C127.033 217.323 126.372 217.449 126.397 217.55Z" fill="#263238"/>
<path d="M124.062 218.584C124.062 218.69 124.521 218.867 124.904 219.321C125.288 219.775 125.409 220.27 125.52 220.26C125.631 220.25 125.687 219.629 125.192 219.074C124.697 218.519 124.062 218.478 124.062 218.584Z" fill="#263238"/>
<path d="M122.789 221.446C122.89 221.446 123.031 220.916 122.733 220.32C122.436 219.725 121.916 219.498 121.87 219.589C121.825 219.679 122.153 219.997 122.375 220.487C122.597 220.977 122.683 221.436 122.789 221.446Z" fill="#263238"/>
<path d="M126.534 214.89C126.579 214.991 127.079 214.825 127.704 214.85C128.33 214.875 128.815 215.062 128.87 214.966C128.926 214.87 128.451 214.492 127.714 214.461C126.978 214.431 126.478 214.805 126.534 214.89Z" fill="#263238"/>
<path d="M126.983 212.206C127.355 212.296 127.744 212.283 128.109 212.17C128.756 212.041 129.372 211.785 129.921 211.418C130.046 211.347 130.159 211.255 130.254 211.146C130.324 211.066 130.366 210.965 130.373 210.859C130.379 210.753 130.35 210.648 130.289 210.56C130.231 210.482 130.154 210.42 130.066 210.378C129.978 210.335 129.882 210.315 129.784 210.318C129.642 210.321 129.501 210.344 129.365 210.389C129.126 210.452 128.892 210.539 128.669 210.646C128.298 210.83 127.958 211.07 127.66 211.358C127.155 211.862 126.983 212.266 127.019 212.286C127.054 212.307 127.316 211.974 127.841 211.56C128.149 211.318 128.489 211.119 128.851 210.969C129.058 210.88 129.272 210.807 129.492 210.752C129.729 210.682 129.936 210.677 129.996 210.783C130.057 210.888 129.996 210.838 129.996 210.909C129.923 210.987 129.84 211.055 129.749 211.111C129.56 211.238 129.365 211.356 129.164 211.464C128.819 211.647 128.457 211.795 128.084 211.908C127.71 211.979 127.342 212.078 126.983 212.206Z" fill="#263238"/>
<path d="M127.15 212.357C127.356 212.031 127.45 211.646 127.417 211.262C127.434 210.591 127.259 209.929 126.913 209.354C126.849 209.207 126.748 209.078 126.62 208.982C126.491 208.885 126.34 208.824 126.181 208.804C126.081 208.808 125.984 208.841 125.902 208.898C125.82 208.955 125.756 209.035 125.717 209.127C125.663 209.261 125.627 209.402 125.611 209.546C125.573 209.797 125.573 210.052 125.611 210.303C125.68 210.724 125.854 211.121 126.115 211.459C126.569 212.029 127.034 212.15 127.039 212.115C127.044 212.079 126.686 211.852 126.337 211.302C126.137 210.983 126.006 210.625 125.954 210.252C125.923 210.035 125.923 209.814 125.954 209.596C125.984 209.359 126.07 209.162 126.156 209.188C126.241 209.213 126.463 209.354 126.559 209.546C126.678 209.738 126.777 209.941 126.857 210.151C126.992 210.51 127.075 210.885 127.104 211.267C127.195 211.928 127.089 212.342 127.15 212.357Z" fill="#263238"/>
<path d="M155.669 205.397L156.027 223.5L133.509 224.065C133.584 221.91 145.116 217.298 145.116 217.298L144.41 205.69L155.669 205.397Z" fill="#E90038"/>
<g opacity="0.6">
<path opacity="0.6" d="M152.065 216.172C152.276 216.236 152.457 216.372 152.577 216.557C152.697 216.742 152.748 216.963 152.721 217.182C152.669 217.4 152.536 217.591 152.348 217.715C152.161 217.838 151.933 217.886 151.712 217.848C151.48 217.785 151.28 217.638 151.152 217.435C151.023 217.232 150.974 216.989 151.015 216.753C151.091 216.527 151.253 216.34 151.465 216.233C151.678 216.125 151.924 216.105 152.151 216.177" fill="white"/>
</g>
<g opacity="0.6">
<path opacity="0.6" d="M156.027 223.5L155.921 221.678L134.367 222.9C134.367 222.9 133.357 223.359 133.509 224.065L156.027 223.5Z" fill="white"/>
</g>
<path d="M144.758 217.182C144.758 217.293 145.318 217.328 145.868 217.686C146.418 218.045 146.716 218.479 146.817 218.433C146.918 218.388 146.736 217.757 146.065 217.358C145.393 216.96 144.732 217.091 144.758 217.182Z" fill="#263238"/>
<path d="M142.421 218.231C142.421 218.337 142.88 218.514 143.264 218.968C143.647 219.422 143.768 219.912 143.879 219.907C143.99 219.902 144.046 219.276 143.556 218.716C143.067 218.156 142.421 218.125 142.421 218.231Z" fill="#263238"/>
<path d="M141.149 221.088C141.25 221.113 141.392 220.558 141.094 219.962C140.796 219.367 140.276 219.14 140.231 219.231C140.185 219.321 140.513 219.639 140.735 220.134C140.958 220.628 141.043 221.083 141.149 221.088Z" fill="#263238"/>
<path d="M144.894 214.532C144.939 214.633 145.439 214.472 146.064 214.497C146.69 214.522 147.175 214.709 147.23 214.613C147.286 214.517 146.811 214.108 146.075 214.108C145.338 214.108 144.833 214.451 144.894 214.532Z" fill="#263238"/>
<path d="M145.363 211.847C145.734 211.941 146.123 211.93 146.489 211.817C146.893 211.733 147.286 211.601 147.66 211.423C147.88 211.317 148.095 211.198 148.3 211.065C148.425 210.99 148.537 210.896 148.634 210.787C148.704 210.708 148.746 210.607 148.753 210.501C148.759 210.395 148.729 210.289 148.669 210.202C148.61 210.125 148.533 210.064 148.445 210.022C148.357 209.981 148.261 209.961 148.164 209.965C148.022 209.968 147.881 209.99 147.745 210.03C147.505 210.095 147.272 210.183 147.049 210.293C146.678 210.475 146.338 210.714 146.04 210.999C145.535 211.504 145.363 211.913 145.399 211.933C145.434 211.953 145.696 211.615 146.221 211.201C146.53 210.961 146.87 210.763 147.231 210.611C147.439 210.523 147.653 210.451 147.872 210.394C148.109 210.328 148.316 210.318 148.376 210.424C148.437 210.53 148.376 210.479 148.376 210.55C148.303 210.628 148.22 210.696 148.129 210.752C147.941 210.881 147.746 210.999 147.543 211.105C147.198 211.287 146.836 211.438 146.463 211.554C146.09 211.626 145.723 211.723 145.363 211.847Z" fill="#263238"/>
<path d="M145.509 212.004C145.715 211.677 145.809 211.293 145.777 210.909C145.791 210.236 145.616 209.574 145.272 208.996C145.208 208.849 145.107 208.721 144.978 208.625C144.85 208.529 144.699 208.467 144.54 208.446C144.439 208.448 144.34 208.48 144.258 208.538C144.175 208.597 144.112 208.679 144.076 208.774C144.022 208.906 143.986 209.046 143.97 209.188C143.934 209.44 143.934 209.697 143.97 209.95C144.041 210.369 144.214 210.764 144.475 211.1C144.929 211.676 145.393 211.792 145.403 211.756C145.413 211.721 145.05 211.499 144.697 210.944C144.495 210.625 144.365 210.268 144.313 209.894C144.283 209.678 144.283 209.459 144.313 209.243C144.344 209.001 144.429 208.804 144.52 208.829C144.611 208.855 144.823 209.001 144.924 209.188C145.038 209.381 145.136 209.584 145.217 209.793C145.351 210.153 145.434 210.53 145.464 210.914C145.555 211.575 145.449 211.989 145.509 212.004Z" fill="#263238"/>
<path d="M115.376 116.787C115.159 116.787 116.385 139.497 117.334 145.094C118.792 153.896 123.647 214.113 123.647 214.113H138.404L138.707 130.338L141.387 162.586L142.396 214.285L156.82 213.901L158.334 159.058C157.879 154.966 159.106 117.322 159.106 117.322L115.376 116.787Z" fill="#263238"/>
<path d="M122.052 32.0375C120.311 31.23 119.221 29.4485 118.58 27.6418C117.939 25.8351 117.646 23.8921 116.935 22.1308C116.43 20.8035 116.985 18.6889 115.794 17.8966C114.305 16.9125 114.32 14.2882 114.896 12.9811C115.522 11.5579 117.222 10.4981 117.338 10.0489C117.641 8.86293 116.612 7.58106 116.995 6.42032C117.893 3.69004 120.119 4.04836 120.119 4.04836C121.128 2.822 122.501 1.19696 124.727 0.62163C127.134 0.000883293 130.692 -0.463415 132.837 0.798266C134.982 2.05995 136.561 2.9078 137.253 5.29994" fill="#263238"/>
<path d="M141.896 37.922L136.849 46.5923L129.875 53.5568L125.782 47.9347V42.2673V37.5183C125.782 37.5183 119.479 36.6503 119.292 30.362C119.201 27.334 119.524 21.0559 119.887 15.3884C120.073 12.4483 121.359 9.68598 123.49 7.65109C125.62 5.61621 128.438 4.45793 131.384 4.40674H131.989C138.55 4.67926 141.972 10.3922 141.518 16.9327L141.931 37.9321" fill="#FFBF9D"/>
<path d="M121.694 20.0416C121.698 20.2756 121.792 20.4991 121.957 20.6655C122.121 20.8319 122.344 20.9284 122.578 20.9348C122.692 20.9417 122.807 20.9255 122.915 20.8874C123.023 20.8493 123.123 20.79 123.208 20.7129C123.293 20.6358 123.362 20.5425 123.411 20.4385C123.459 20.3345 123.486 20.2219 123.491 20.1072C123.487 19.8732 123.393 19.6497 123.229 19.4833C123.064 19.3169 122.842 19.2204 122.608 19.2139C122.493 19.2071 122.378 19.2232 122.27 19.2614C122.162 19.2995 122.062 19.3588 121.977 19.4359C121.892 19.5129 121.823 19.6062 121.775 19.7102C121.726 19.8142 121.699 19.9269 121.694 20.0416Z" fill="#263238"/>
<path d="M121.154 18.1087C121.27 18.2247 121.942 17.71 122.905 17.6948C123.869 17.6797 124.591 18.1541 124.692 18.033C124.793 17.9118 124.626 17.7705 124.313 17.5283C123.891 17.2431 123.39 17.0967 122.88 17.1094C122.376 17.1253 121.889 17.3022 121.492 17.6141C121.2 17.8361 121.099 18.0582 121.154 18.1087Z" fill="#263238"/>
<path d="M130.773 19.8243C130.775 20.0582 130.867 20.2824 131.031 20.4492C131.195 20.616 131.418 20.7123 131.652 20.7176C131.766 20.7244 131.881 20.7082 131.989 20.6701C132.097 20.632 132.197 20.5727 132.282 20.4956C132.367 20.4185 132.436 20.3253 132.485 20.2213C132.533 20.1173 132.561 20.0046 132.565 19.8899C132.562 19.6555 132.469 19.4313 132.304 19.2646C132.139 19.098 131.916 19.0019 131.682 18.9966C131.568 18.9898 131.453 19.006 131.345 19.0442C131.237 19.0823 131.138 19.1417 131.053 19.2189C130.968 19.296 130.9 19.3893 130.852 19.4933C130.804 19.5973 130.777 19.7098 130.773 19.8243Z" fill="#263238"/>
<path d="M130.784 17.6746C130.884 17.8008 131.606 17.3617 132.57 17.4526C133.534 17.5434 134.19 18.0885 134.306 17.9572C134.422 17.826 134.271 17.6847 133.983 17.4526C133.595 17.1232 133.113 16.9238 132.605 16.8823C132.104 16.8345 131.6 16.9476 131.167 17.2053C130.854 17.4122 130.733 17.6141 130.784 17.6746Z" fill="#263238"/>
<path d="M127.371 25.6835C126.859 25.5329 126.33 25.4465 125.797 25.4261C125.549 25.4261 125.317 25.3605 125.292 25.1939C125.269 24.9388 125.322 24.6825 125.443 24.4571C125.666 23.8566 125.898 23.2257 126.145 22.5696C127.109 19.8747 127.805 17.6642 127.699 17.6238C127.593 17.5835 126.715 19.7384 125.746 22.4334L125.08 24.3309C124.931 24.6326 124.89 24.9766 124.964 25.305C125.002 25.3912 125.059 25.4678 125.131 25.5289C125.202 25.5901 125.287 25.6343 125.378 25.6582C125.515 25.6929 125.656 25.7098 125.797 25.7087C126.321 25.7665 126.85 25.758 127.371 25.6835Z" fill="#263238"/>
<path d="M130.228 26.3045C130.072 26.3045 130.087 27.3492 129.219 28.1062C128.351 28.8632 127.2 28.7723 127.2 28.9187C127.2 28.9843 127.453 29.1155 127.922 29.1206C128.537 29.1203 129.133 28.9022 129.602 28.5049C130.053 28.1219 130.337 27.5791 130.395 26.9908C130.425 26.5568 130.299 26.2944 130.228 26.3045Z" fill="#263238"/>
<path d="M130.844 14.4899C130.924 14.7574 131.893 14.6968 133.019 14.9088C134.144 15.1207 135.038 15.4942 135.199 15.2671C135.275 15.1611 135.133 14.9037 134.78 14.6211C134.311 14.2732 133.766 14.0414 133.19 13.9448C132.617 13.8342 132.025 13.8636 131.464 14.0306C131.02 14.1719 130.813 14.3637 130.844 14.4899Z" fill="#263238"/>
<path d="M121.563 15.6357C121.735 15.8527 122.401 15.6357 123.198 15.5903C123.996 15.5449 124.682 15.7114 124.834 15.4793C124.899 15.3682 124.788 15.1462 124.49 14.9443C124.088 14.7016 123.623 14.584 123.154 14.6065C122.685 14.6289 122.233 14.7905 121.856 15.0705C121.573 15.3127 121.488 15.5297 121.563 15.6357Z" fill="#263238"/>
<path d="M136.783 4.85069C136.786 5.5498 136.634 6.24088 136.34 6.8748C136.045 7.50873 135.614 8.06992 135.078 8.51847C134.542 8.96702 133.913 9.29192 133.237 9.47007C132.561 9.64822 131.854 9.67523 131.166 9.54919C130.101 9.35742 128.936 8.81742 128.017 9.3877C127.099 9.95798 127.008 11.4417 126.15 12.1886C124.924 13.2535 122.97 12.2542 121.411 12.6933C120.21 13.0516 119.458 14.2073 118.661 15.1662C117.863 16.1251 116.642 17.0537 115.461 16.6802C115.496 15.5957 115.656 14.5189 115.935 13.4705C116.225 12.4134 116.87 11.4884 117.762 10.8512C118.282 10.5796 118.787 10.2815 119.276 9.95798C120.286 9.1505 120.508 7.74751 121.123 6.62209C121.529 5.89875 122.102 5.28252 122.793 4.82441C123.485 4.3663 124.276 4.07949 125.1 3.9877C126.473 3.8464 127.881 4.25518 129.218 3.9221C130.202 3.66976 131.065 3.02883 132.065 2.8421C134.013 2.46864 135.819 3.85144 137.233 5.25948" fill="#263238"/>
<path d="M130.556 7.62153C131.429 7.36919 133.216 6.80396 133.68 6.04695C134.689 4.40172 136.491 3.28135 138.323 3.38228C139.27 3.45574 140.168 3.83428 140.883 4.46116C141.597 5.08805 142.089 5.92953 142.285 6.85948C143.422 6.90087 144.528 7.24795 145.485 7.86425C146.443 8.48056 147.216 9.34332 147.725 10.3619C148.248 11.4308 148.503 12.6108 148.469 13.8003C148.435 14.9898 148.112 16.1531 147.528 17.1901C147.15 17.6798 146.905 18.2587 146.816 18.8707C146.816 19.6479 147.382 20.2585 147.785 20.8894C148.886 22.6355 148.795 25.0378 147.952 26.9454C147.109 28.8531 146.499 29.5142 145.287 29.8978C142.91 30.6396 145.287 35.4189 141.321 35.4189L140.523 21.2881C140.408 21.3526 140.284 21.3986 140.155 21.4243C137.813 21.9542 137.505 17.3869 138.03 16.0798C137.148 15.3586 136.359 14.5295 135.683 13.612C135.037 12.6582 134.467 10.0793 134.603 8.88321C133.761 8.91349 130.172 7.74265 130.556 7.62153Z" fill="#263238"/>
<path d="M140.195 21.3688C140.301 21.3183 144.495 20.0162 144.429 24.316C144.364 28.6159 140.059 27.6671 140.054 27.5459C140.049 27.4248 140.195 21.3688 140.195 21.3688Z" fill="#FFBF9D"/>
<path d="M141.392 25.9106C141.392 25.9106 141.467 25.9661 141.593 26.0267C141.773 26.1004 141.974 26.1004 142.154 26.0267C142.613 25.8652 143.007 25.1485 143.037 24.3764C143.052 24.0084 142.987 23.6415 142.845 23.3014C142.806 23.1668 142.735 23.0434 142.638 22.9416C142.542 22.8398 142.422 22.7625 142.29 22.716C142.204 22.6922 142.112 22.6988 142.03 22.7346C141.949 22.7705 141.882 22.8334 141.841 22.9128C141.785 23.034 141.81 23.1198 141.785 23.1248C141.76 23.1299 141.694 23.0542 141.73 22.8775C141.758 22.7715 141.82 22.6776 141.906 22.61C142.025 22.5219 142.174 22.4839 142.32 22.5041C142.497 22.5417 142.66 22.6242 142.796 22.7435C142.931 22.8629 143.033 23.015 143.092 23.1854C143.271 23.5598 143.354 23.9723 143.335 24.3865C143.294 25.2545 142.83 26.057 142.214 26.2285C142.099 26.2605 141.978 26.2662 141.86 26.2452C141.742 26.2242 141.63 26.1772 141.533 26.1074C141.402 26.0317 141.376 25.9358 141.392 25.9106Z" fill="#A56349"/>
<path d="M147.332 28.2224C147.069 28.5073 146.872 28.8459 146.754 29.2148C146.636 29.5836 146.599 29.9738 146.647 30.3581C146.696 30.7424 146.827 31.1117 147.032 31.4401C147.237 31.7685 147.512 32.0482 147.836 32.2598C147.66 32.4187 147.453 32.5403 147.228 32.6175C147.004 32.6947 146.766 32.7258 146.529 32.7089C146.363 33.2489 147.125 33.6224 147.281 34.1674C147.317 34.3344 147.308 34.5079 147.255 34.6702C147.201 34.8324 147.106 34.9777 146.978 35.091C146.723 35.3198 146.422 35.4918 146.095 35.5956C145.14 35.9382 144.137 36.1306 143.123 36.1659C142.83 36.2067 142.531 36.1826 142.249 36.0954C141.966 36.0082 141.706 35.86 141.487 35.6613C141.214 35.2489 141.086 34.7568 141.124 34.2633L141.018 30.5943C140.97 30.2346 141.037 29.8688 141.21 29.5497C141.486 29.2401 141.864 29.0396 142.275 28.9844L147.488 27.6521" fill="#263238"/>
<path d="M160.554 112.063C159.883 108.127 155.85 89.1208 155.85 89.1208L158.343 43.7003C157.193 42.9281 141.886 37.3767 141.886 37.3767C141.886 37.3767 139.529 44.3715 132.04 45.9057C124.55 47.4399 125.742 41.833 125.742 41.833C125.742 41.833 111.106 49.6503 110.253 50.2257C109.4 50.801 105.756 65.487 105.756 65.487L103.001 74.99L114.573 77.6799C114.573 77.6799 114.861 100.335 114.573 101.965C114.285 103.595 113.705 116.752 113.705 116.752L159.126 117.327C159.126 117.327 161.225 116 160.554 112.063Z" fill="#E90038"/>
<path d="M158.343 43.7156C158.343 43.7156 161.144 46.461 162.083 49.1761C163.022 51.8913 165.924 69.6961 165.924 69.6961C165.924 69.6961 149.996 71.947 149.996 71.6643C149.996 71.3817 151.399 61.4498 151.868 58.3612C152.338 55.2726 158.343 43.7156 158.343 43.7156Z" fill="#E90038"/>
<path d="M114.614 85.2401C114.587 85.1604 114.573 85.0768 114.573 84.9928C114.573 84.7959 114.533 84.5537 114.503 84.266C114.457 83.6402 114.407 82.752 114.371 81.6014C114.296 79.3455 114.27 76.2367 114.296 72.7948C114.321 69.353 114.381 66.2341 114.447 63.9933C114.482 62.8982 114.518 61.9746 114.538 61.3287C114.538 61.036 114.568 60.7988 114.578 60.6019C114.578 60.5166 114.59 60.4317 114.614 60.3496C114.625 60.4333 114.625 60.5183 114.614 60.6019C114.614 60.7988 114.614 61.041 114.614 61.3287C114.614 61.9999 114.614 62.9033 114.614 63.9984C114.614 66.2846 114.568 69.3782 114.538 72.7999C114.508 76.2216 114.513 79.3606 114.538 81.5963C114.538 82.7217 114.568 83.615 114.588 84.261C114.588 84.5537 114.588 84.7657 114.588 84.9877C114.608 85.0704 114.616 85.1552 114.614 85.2401Z" fill="#263238"/>
<path d="M151.435 55.6211C151.461 55.8171 151.461 56.0156 151.435 56.2116C151.435 56.6506 151.435 57.1856 151.41 57.8215C151.41 59.2446 151.379 61.0917 151.359 63.1407C151.339 65.1897 151.304 67.0973 151.233 68.46C151.198 69.1413 151.162 69.6914 151.122 70.0699C151.112 70.2673 151.084 70.4634 151.036 70.6553C151.01 70.4593 151.01 70.2608 151.036 70.0648C151.036 69.6258 151.036 69.0908 151.036 68.4549C151.036 67.0317 151.066 65.1846 151.087 63.1357C151.107 61.0867 151.147 59.179 151.213 57.8164C151.248 57.1351 151.288 56.585 151.324 56.2065C151.341 56.0082 151.379 55.8121 151.435 55.6211Z" fill="#263238"/>
<path d="M157.864 44.0791C155.67 44.8496 153.753 46.2549 152.358 48.1165C152.474 47.7952 152.645 47.4964 152.863 47.2333C153.365 46.5673 153.964 45.9804 154.64 45.4922C155.312 44.9997 156.054 44.6086 156.84 44.3314C157.163 44.1861 157.51 44.1006 157.864 44.0791Z" fill="#263238"/>
<path d="M113.77 55.3133C113.705 55.3536 113.039 54.203 112.054 52.906C111.07 51.609 110.157 50.64 110.212 50.5845C111.734 51.8714 112.943 53.4887 113.745 55.3133H113.77Z" fill="#263238"/>
<path d="M141.644 83.7918C141.598 83.8744 141.544 83.9522 141.483 84.0239C141.351 84.1905 141.19 84.4024 140.978 84.6548C140.549 85.2049 139.903 85.9821 139.085 86.9207C136.949 89.3718 134.683 91.7068 132.298 93.9155C129.911 96.122 127.409 98.2007 124.803 100.143C123.794 100.885 122.976 101.47 122.396 101.854L121.725 102.298C121.65 102.355 121.569 102.403 121.482 102.439C121.547 102.372 121.618 102.311 121.694 102.258L122.335 101.753C122.901 101.339 123.703 100.744 124.692 99.9716C126.66 98.4576 129.33 96.2824 132.121 93.7035C134.912 91.1247 137.279 88.6316 138.949 86.7794C139.782 85.8559 140.463 85.0989 140.902 84.569L141.407 83.9684C141.568 83.8523 141.619 83.7867 141.644 83.7918Z" fill="#263238"/>
<path d="M160.831 141.986L166.852 123.55C167.75 120.794 168.734 117.908 170.889 115.98C172.146 114.849 174.059 114.113 175.522 114.97C176.001 115.293 176.394 115.727 176.669 116.235C176.943 116.743 177.09 117.31 177.097 117.887C177.104 119.042 176.915 120.188 176.536 121.279C174.114 129.672 171.167 137.898 168.103 146.078L168.416 145.513" fill="#E90038"/>
<path d="M168.871 137.766C168.871 137.847 167.917 137.64 166.852 137.181C165.787 136.722 164.975 136.207 165.02 136.131C165.066 136.056 165.914 136.444 166.973 136.888C168.033 137.332 168.906 137.681 168.871 137.766Z" fill="#263238"/>
<path d="M170.89 133.315C170.854 133.396 169.88 132.997 168.644 132.513C167.407 132.028 166.433 131.629 166.458 131.544C166.484 131.458 167.528 131.725 168.76 132.22C169.991 132.715 170.89 133.234 170.89 133.315Z" fill="#263238"/>
<path d="M172.737 129.636C172.686 129.712 171.727 129.096 170.44 128.546C169.153 127.996 168.058 127.713 168.078 127.617C168.099 127.522 169.254 127.683 170.566 128.253C171.879 128.824 172.787 129.571 172.737 129.636Z" fill="#263238"/>
<path d="M173.917 124.998C173.857 125.069 173.029 124.387 171.868 123.797C170.708 123.207 169.683 122.919 169.703 122.828C169.724 122.737 170.814 122.894 172.015 123.514C173.216 124.135 173.973 124.943 173.917 124.998Z" fill="#263238"/>
<path d="M160.711 126.219H158.914V129.777H160.711V126.219Z" fill="#263238"/>
<path d="M158.701 136.722V129.298H160.891V135.49C160.891 135.49 163.198 135.556 163.485 136.57C164.116 138.801 163.839 143.817 163.839 143.817L158.701 136.722Z" fill="#455A64"/>
<path d="M177.653 156.449C177.032 152.72 176.078 149.031 175.896 145.256C175.775 142.667 176.022 140.058 175.699 137.484C175.311 134.385 174.115 131.453 172.929 128.566C172.162 126.694 171.324 124.731 169.724 123.484C168.755 122.757 167.584 122.35 166.373 122.318C164.173 121.415 158.137 121.158 156.229 125.205C155.22 127.355 155.099 129.803 154.518 132.114C153.741 135.223 154.301 136.247 153.282 139.286C151.117 145.781 147.831 153.84 148.79 160.623C148.977 161.94 151.172 164.11 151.919 165.211C152.994 166.8 154.947 167.512 156.845 167.916C162.205 169.037 167.781 168.44 172.782 166.21C174.569 165.407 176.35 164.317 177.254 162.581C178.213 160.734 177.996 158.508 177.653 156.449ZM171.93 135.506C170.92 136.353 169.447 135.94 168.139 135.874C166.57 135.793 165.036 136.303 163.486 136.57C161.937 136.838 160.206 136.828 158.944 135.869C158.022 135.084 157.442 133.971 157.329 132.765C157.221 131.573 157.287 130.371 157.526 129.197C157.632 128.281 157.867 127.384 158.223 126.532C158.584 125.672 159.259 124.981 160.11 124.6C161.119 124.095 164.763 123.762 166.166 123.55C167.414 124.176 168.498 125.083 169.336 126.199C170.457 127.753 171.365 129.451 172.036 131.246C172.364 131.933 172.577 132.67 172.666 133.426C172.712 133.806 172.67 134.192 172.542 134.552C172.414 134.913 172.205 135.239 171.93 135.506Z" fill="#FAFAFA"/>
<path d="M171.929 135.506C172.176 135.256 172.364 134.954 172.48 134.622C172.612 134.226 172.658 133.807 172.616 133.391C172.546 132.831 172.396 132.284 172.172 131.766C171.615 130.35 170.959 128.976 170.209 127.653C169.267 125.952 167.847 124.564 166.126 123.661H166.196L163.244 124.05C162.739 124.12 162.235 124.201 161.7 124.297C161.181 124.379 160.674 124.517 160.186 124.711C159.385 125.069 158.746 125.714 158.394 126.517C158.078 127.236 157.863 127.996 157.753 128.773C157.627 129.545 157.501 130.287 157.45 131.054C157.388 131.787 157.429 132.524 157.572 133.245C157.715 133.928 158.006 134.573 158.424 135.132C158.833 135.655 159.378 136.055 159.999 136.288C160.594 136.498 161.22 136.602 161.851 136.596C162.995 136.551 164.13 136.381 165.237 136.091C166.169 135.866 167.125 135.759 168.084 135.773C168.927 135.824 169.638 135.955 170.224 135.955C170.673 135.977 171.122 135.896 171.536 135.718C171.813 135.581 171.935 135.47 171.945 135.48C171.833 135.596 171.703 135.693 171.561 135.768C171.144 135.968 170.686 136.067 170.224 136.056C169.628 136.056 168.906 135.955 168.079 135.919C167.134 135.922 166.193 136.04 165.278 136.273C164.156 136.567 163.005 136.736 161.846 136.777C161.19 136.791 160.537 136.685 159.918 136.464C159.255 136.225 158.673 135.803 158.238 135.248C157.373 134.013 157.001 132.499 157.193 131.004C157.243 130.237 157.37 129.49 157.496 128.693C157.611 127.893 157.833 127.112 158.157 126.371C158.536 125.503 159.228 124.81 160.095 124.428C160.607 124.226 161.14 124.082 161.685 123.999C162.189 123.903 162.724 123.822 163.239 123.752L166.186 123.373H166.227H166.262C168.021 124.301 169.465 125.731 170.41 127.481C171.159 128.818 171.803 130.21 172.338 131.645C172.56 132.178 172.703 132.741 172.762 133.315C172.797 133.745 172.737 134.178 172.586 134.582C172.49 134.834 172.348 135.065 172.167 135.263C172.101 135.357 172.021 135.438 171.929 135.506Z" fill="#263238"/>
<path d="M177.653 156.449C177.653 156.449 177.753 156.878 177.859 157.711C177.93 158.225 177.971 158.742 177.981 159.26C178 159.97 177.927 160.679 177.764 161.37C177.553 162.242 177.136 163.05 176.547 163.727C175.84 164.517 174.998 165.175 174.059 165.67C171.779 166.866 169.328 167.702 166.792 168.148C163.717 168.706 160.566 168.706 157.491 168.148C156.645 168.009 155.812 167.798 155.003 167.517C154.154 167.233 153.365 166.795 152.676 166.225C152.332 165.928 152.026 165.589 151.768 165.215C151.51 164.852 151.218 164.504 150.925 164.151C150.31 163.447 149.741 162.705 149.219 161.93C148.942 161.525 148.753 161.066 148.664 160.583C148.619 160.103 148.548 159.624 148.533 159.139C148.484 158.16 148.501 157.179 148.583 156.202C148.768 154.193 149.119 152.203 149.633 150.252C150.138 148.263 150.769 146.27 151.445 144.266C151.788 143.257 152.136 142.248 152.485 141.238C152.833 140.229 153.206 139.22 153.494 138.17C153.738 137.112 153.886 136.035 153.938 134.95C154.03 133.87 154.214 132.8 154.488 131.751C154.968 129.681 155.134 127.542 155.942 125.589C156.038 125.345 156.153 125.109 156.285 124.882C156.406 124.648 156.55 124.427 156.714 124.221C157.028 123.803 157.402 123.434 157.824 123.126C158.661 122.533 159.611 122.119 160.615 121.909C161.587 121.696 162.583 121.615 163.577 121.667C164.552 121.702 165.516 121.887 166.434 122.217H166.509V122.303L166.393 122.182C167.814 122.215 169.174 122.764 170.219 123.726C171.164 124.673 171.912 125.798 172.419 127.037C173.416 129.278 174.287 131.573 175.028 133.911C175.355 134.989 175.6 136.091 175.76 137.206C175.894 138.249 175.96 139.299 175.957 140.35C175.957 142.369 175.886 144.226 176.012 145.902C176.126 147.397 176.316 148.887 176.583 150.363C176.805 151.655 177.017 152.76 177.183 153.658C177.35 154.557 177.471 155.243 177.552 155.712C177.587 155.94 177.612 156.116 177.632 156.242C177.653 156.369 177.632 156.424 177.632 156.424C177.632 156.424 177.632 156.363 177.592 156.247C177.552 156.131 177.531 155.945 177.491 155.718C177.395 155.243 177.264 154.557 177.087 153.669C176.911 152.78 176.684 151.675 176.446 150.383C176.171 148.904 175.971 147.411 175.846 145.912C175.71 144.226 175.785 142.379 175.765 140.36C175.758 139.317 175.686 138.275 175.548 137.241C175.387 136.136 175.143 135.045 174.816 133.976C174.062 131.649 173.183 129.365 172.182 127.133C171.684 125.923 170.949 124.825 170.022 123.903C169.018 122.983 167.714 122.459 166.353 122.429H166.237V122.303L166.313 122.414C165.419 122.104 164.483 121.934 163.537 121.909C162.565 121.86 161.591 121.94 160.64 122.147C159.67 122.35 158.752 122.752 157.945 123.328C157.542 123.62 157.185 123.97 156.885 124.367C156.731 124.564 156.596 124.775 156.482 124.998C156.354 125.219 156.243 125.448 156.148 125.684C155.366 127.582 155.195 129.722 154.715 131.801C154.442 132.838 154.26 133.897 154.17 134.965C154.117 136.063 153.967 137.154 153.721 138.226C153.438 139.29 153.06 140.3 152.712 141.319C152.363 142.339 152.02 143.338 151.672 144.347C150.996 146.366 150.37 148.334 149.865 150.318C149.35 152.253 148.997 154.228 148.811 156.222C148.729 157.187 148.711 158.157 148.755 159.124C148.755 159.603 148.846 160.078 148.886 160.547C148.961 160.996 149.133 161.423 149.391 161.799C149.904 162.567 150.465 163.302 151.071 163.999C151.364 164.357 151.657 164.706 151.924 165.079C152.167 165.453 152.459 165.793 152.792 166.089C153.46 166.64 154.223 167.064 155.043 167.34C155.842 167.618 156.662 167.829 157.496 167.971C160.544 168.537 163.669 168.55 166.721 168.011C169.242 167.579 171.682 166.76 173.953 165.584C174.88 165.102 175.715 164.462 176.421 163.691C177 163.03 177.413 162.242 177.627 161.39C177.893 160.199 177.943 158.97 177.774 157.761C177.723 157.353 177.683 157.04 177.658 156.818C177.632 156.596 177.653 156.449 177.653 156.449Z" fill="#263238"/>
<path d="M171.929 135.506C172.168 135.252 172.352 134.951 172.469 134.622C172.601 134.226 172.647 133.806 172.605 133.391C172.536 132.832 172.384 132.286 172.156 131.771C171.599 130.356 170.942 128.983 170.188 127.663C169.249 125.964 167.831 124.579 166.11 123.681H166.196L163.243 124.07C162.739 124.145 162.234 124.221 161.704 124.317C161.186 124.399 160.679 124.536 160.19 124.726C159.397 125.085 158.764 125.725 158.414 126.522C158.099 127.24 157.885 127.997 157.778 128.773C157.647 129.54 157.525 130.287 157.47 131.054C157.287 132.473 157.632 133.91 158.439 135.092C158.843 135.612 159.385 136.009 160.003 136.237C160.595 136.447 161.218 136.553 161.845 136.55C162.987 136.502 164.121 136.333 165.227 136.046C166.16 135.818 167.118 135.711 168.078 135.728C168.926 135.778 169.633 135.914 170.218 135.914C170.666 135.938 171.113 135.859 171.525 135.682C171.803 135.551 171.924 135.44 171.939 135.45C171.83 135.57 171.7 135.669 171.555 135.743C171.14 135.947 170.681 136.048 170.218 136.035C169.622 136.035 168.901 135.935 168.073 135.904C167.13 135.908 166.191 136.029 165.277 136.263C164.155 136.567 163.002 136.747 161.84 136.798C161.183 136.806 160.529 136.7 159.907 136.485C159.238 136.243 158.651 135.818 158.212 135.258C157.345 134.016 156.971 132.496 157.162 130.994C157.213 130.227 157.339 129.48 157.465 128.682C157.575 127.878 157.8 127.093 158.131 126.351C158.512 125.478 159.208 124.781 160.079 124.398C160.592 124.191 161.127 124.045 161.674 123.964C162.179 123.863 162.719 123.787 163.228 123.716L166.181 123.338H166.226H166.266C168.029 124.27 169.476 125.703 170.425 127.456C171.17 128.795 171.813 130.189 172.348 131.625C172.571 132.159 172.712 132.724 172.767 133.3C172.799 133.732 172.737 134.166 172.585 134.572C172.49 134.823 172.347 135.055 172.166 135.253C172.103 135.351 172.023 135.437 171.929 135.506Z" fill="#263238"/>
<path d="M173.564 151.312C173.522 150.977 173.398 150.658 173.201 150.384C173.005 150.109 172.742 149.889 172.439 149.742C171.5 149.333 170.42 149.899 169.739 150.676C169.057 151.453 168.689 152.432 168.078 153.245C167.542 153.948 166.85 154.517 166.056 154.907C165.263 155.298 164.39 155.499 163.506 155.495C161.356 155.495 159.211 154.229 157.157 154.865C156.456 155.082 155.754 155.632 155.749 156.379C155.794 156.882 156.026 157.35 156.4 157.691C157.425 158.787 158.775 159.526 160.251 159.8C162.804 159.714 165.316 159.128 167.644 158.074C170.339 156.924 172.322 155.501 173.251 153.29C173.536 152.672 173.644 151.987 173.564 151.312Z" fill="#E0E0E0"/>
<path d="M173.211 154.34C173.089 154.516 172.945 154.675 172.782 154.814C172.362 155.221 171.918 155.604 171.454 155.96C168.361 158.332 164.619 159.705 160.725 159.896C160.14 159.934 159.554 159.934 158.969 159.896C158.754 159.896 158.541 159.869 158.333 159.816C158.333 159.755 159.246 159.816 160.71 159.689C164.531 159.376 168.194 158.03 171.308 155.793C172.509 154.925 173.175 154.295 173.211 154.34Z" fill="#263238"/>
<path d="M172.469 142.944C172.475 143.214 172.449 143.483 172.394 143.747C172.323 144.251 172.212 144.998 172.03 145.907C171.822 146.977 171.526 148.028 171.147 149.051C170.685 150.315 170.012 151.492 169.159 152.533C168.295 153.581 167.183 154.397 165.924 154.905C164.892 155.295 163.79 155.467 162.689 155.41C161.95 155.382 161.218 155.255 160.514 155.031C160.266 154.951 160.08 154.875 159.953 154.819C159.827 154.764 159.767 154.728 159.772 154.718C160.724 154.989 161.705 155.145 162.694 155.183C163.763 155.201 164.824 155.007 165.818 154.612C167.025 154.11 168.089 153.318 168.916 152.306C170.713 150.156 171.384 147.608 171.808 145.841C172.02 144.943 172.167 144.211 172.273 143.701C172.313 143.443 172.379 143.19 172.469 142.944Z" fill="#263238"/>
<path d="M156.158 151.776C155.839 151.568 155.567 151.294 155.361 150.974C154.805 150.243 154.399 149.409 154.165 148.521C153.926 147.631 153.861 146.704 153.973 145.791C153.996 145.411 154.096 145.04 154.266 144.7C154.372 144.7 153.908 146.416 154.468 148.435C155.028 150.454 156.254 151.715 156.158 151.776Z" fill="#263238"/>
<path d="M156.935 136.626C156.721 135.998 156.567 135.35 156.476 134.693C156.162 133.112 156.063 131.496 156.183 129.888C156.316 128.262 156.884 126.702 157.828 125.371C158.117 124.973 158.457 124.613 158.838 124.302C158.968 124.174 159.12 124.072 159.287 123.999C158.829 124.474 158.404 124.98 158.015 125.513C157.156 126.84 156.636 128.358 156.501 129.934C156.385 131.516 156.451 133.106 156.698 134.673C156.818 135.318 156.897 135.97 156.935 136.626Z" fill="#263238"/>
<path d="M152.812 71.4524L156.774 89.2572L157.96 117.206L166.59 116.565L167.842 88.0813L165.036 69.8223L152.812 71.4524Z" fill="#FFBF9D"/>
<path d="M158.878 127.501C158.793 127.542 158.7 127.562 158.606 127.562C158.512 127.562 158.419 127.54 158.334 127.5C158.249 127.459 158.174 127.4 158.114 127.327C158.055 127.254 158.012 127.169 157.99 127.077C157.662 125.856 156.814 122.535 156.834 121.304C156.865 119.755 157.753 113.784 157.753 113.784L166.751 113.845L169.012 122.056C169.012 122.056 168.422 125.427 167.831 125.624C167.455 125.72 167.075 125.794 166.691 125.846L166.443 126.881C165.939 128.46 164.066 128.026 164.066 128.026C163.983 128.331 163.831 128.613 163.622 128.85C163.413 129.087 163.152 129.273 162.86 129.394C162.59 129.49 162.298 129.507 162.018 129.444C161.739 129.38 161.483 129.239 161.281 129.036C161.281 129.036 160.049 129.757 159.509 129.157C158.969 128.556 159.121 127.264 159.121 127.264C159.07 127.369 158.984 127.453 158.878 127.501Z" fill="#FFBF9D"/>
<path d="M159.14 127.94C159.155 127.849 159.155 127.755 159.14 127.663C159.143 127.412 159.131 127.161 159.105 126.911C159.055 126.28 158.923 125.397 158.777 124.458C158.643 123.648 158.557 122.831 158.52 122.011C158.52 121.385 158.595 121.001 158.57 121.001C158.528 121.084 158.499 121.172 158.484 121.264C158.432 121.511 158.404 121.763 158.398 122.016C158.401 122.845 158.474 123.672 158.615 124.488C158.762 125.442 158.908 126.305 158.989 126.931C159.07 127.557 159.115 127.94 159.14 127.94Z" fill="#A56349"/>
<path d="M161.23 129.046C161.313 128.837 161.361 128.615 161.371 128.39C161.433 127.854 161.448 127.313 161.417 126.775C161.381 126.144 161.321 125.574 161.265 125.17C161.252 124.945 161.212 124.723 161.144 124.509C161.138 125.267 161.172 126.025 161.245 126.78C161.275 127.313 161.275 127.847 161.245 128.38C161.221 128.601 161.216 128.824 161.23 129.046Z" fill="#A56349"/>
<path d="M164.086 128.041C164.223 127.41 164.268 126.763 164.222 126.118C164.229 125.472 164.137 124.829 163.95 124.211C163.904 124.211 164.021 125.069 164.051 126.123C164.081 127.178 164.036 128.036 164.086 128.041Z" fill="#A56349"/>
<path d="M166.443 126.881C166.652 125.902 166.632 124.888 166.383 123.918C166.367 124.413 166.379 124.908 166.418 125.402C166.438 126.214 166.398 126.876 166.443 126.881Z" fill="#A56349"/>
<path d="M163.824 122.979C163.824 122.979 163.875 122.873 163.824 122.702C163.781 122.478 163.664 122.275 163.491 122.127C163.313 121.981 163.09 121.901 162.86 121.899C162.689 121.899 162.588 121.95 162.593 121.97C162.874 121.999 163.145 122.096 163.38 122.253C163.587 122.454 163.74 122.704 163.824 122.979Z" fill="#A56349"/>
<path d="M166.378 122.121C166.423 122.121 166.378 121.783 166.03 121.566C165.942 121.492 165.835 121.442 165.721 121.424C165.608 121.405 165.491 121.418 165.384 121.46C165.384 121.511 165.666 121.521 165.939 121.707C166.211 121.894 166.348 122.136 166.378 122.121Z" fill="#A56349"/>
<path d="M160.841 122.561C160.887 122.561 160.902 122.318 160.685 122.152C160.468 121.985 160.236 122.051 160.251 122.096C160.266 122.142 160.427 122.157 160.584 122.283C160.74 122.409 160.796 122.566 160.841 122.561Z" fill="#A56349"/>
<path d="M157.768 113.784C157.766 113.808 157.766 113.832 157.768 113.855L157.732 114.077C157.697 114.279 157.652 114.582 157.596 114.93C157.48 115.672 157.319 116.757 157.137 118.12C157.051 118.806 156.955 119.553 156.874 120.37C156.82 120.794 156.801 121.221 156.819 121.647C156.856 122.101 156.916 122.552 157.001 123C157.167 123.918 157.389 124.882 157.636 125.881C157.702 126.129 157.763 126.386 157.828 126.638C157.864 126.765 157.899 126.891 157.929 127.022C157.96 127.166 158.026 127.299 158.121 127.411C158.223 127.528 158.363 127.606 158.516 127.634C158.669 127.661 158.827 127.636 158.964 127.562C159.004 127.532 159.032 127.489 159.044 127.441C159.059 127.405 159.07 127.368 159.08 127.33C159.08 127.259 159.11 127.194 159.12 127.123C159.138 126.981 159.148 126.837 159.15 126.694C159.15 126.673 159.142 126.652 159.127 126.637C159.112 126.622 159.091 126.613 159.07 126.613C159.048 126.613 159.028 126.622 159.013 126.637C158.997 126.652 158.989 126.673 158.989 126.694C158.98 127.058 158.993 127.422 159.029 127.784C159.058 128.159 159.141 128.528 159.277 128.879C159.351 129.07 159.481 129.234 159.65 129.349C159.829 129.45 160.035 129.494 160.241 129.475C160.634 129.432 161.014 129.307 161.356 129.106H161.25C161.394 129.255 161.565 129.373 161.755 129.455C162.001 129.552 162.267 129.589 162.53 129.562C162.793 129.536 163.047 129.447 163.269 129.303C163.696 129.004 164.007 128.565 164.147 128.062L164.046 128.122C164.551 128.231 165.077 128.19 165.56 128.006C165.792 127.908 165.999 127.76 166.167 127.573C166.334 127.385 166.458 127.162 166.529 126.921C166.61 126.568 166.69 126.225 166.771 125.881L166.71 125.942C166.933 125.912 167.155 125.871 167.372 125.831L167.695 125.765L167.861 125.72C167.922 125.692 167.977 125.653 168.023 125.604C168.164 125.429 168.273 125.231 168.346 125.018C168.426 124.817 168.492 124.615 168.553 124.413C168.769 123.647 168.945 122.87 169.082 122.086V122.056L167.407 116.086C167.205 115.384 167.049 114.829 166.938 114.44C166.882 114.259 166.837 114.112 166.806 114.006C166.796 113.957 166.779 113.91 166.756 113.865C166.763 113.915 166.773 113.964 166.786 114.012C166.816 114.123 166.852 114.264 166.897 114.451C166.998 114.844 167.15 115.399 167.336 116.111C167.725 117.549 168.28 119.603 168.951 122.096V122.066C168.812 122.844 168.634 123.613 168.416 124.372C168.356 124.569 168.29 124.766 168.209 124.963C168.142 125.156 168.043 125.337 167.917 125.498C167.889 125.531 167.855 125.556 167.816 125.574L167.664 125.614L167.346 125.68C167.129 125.72 166.912 125.755 166.69 125.786C166.675 125.789 166.661 125.797 166.65 125.807C166.638 125.818 166.629 125.831 166.625 125.846C166.544 126.189 166.463 126.532 166.377 126.855C166.318 127.08 166.208 127.287 166.056 127.462C165.904 127.637 165.713 127.775 165.499 127.865C165.051 128.032 164.565 128.069 164.096 127.971C164.075 127.968 164.054 127.973 164.035 127.984C164.017 127.995 164.003 128.011 163.995 128.031C163.866 128.493 163.581 128.896 163.188 129.172C162.986 129.303 162.755 129.383 162.515 129.407C162.276 129.43 162.034 129.397 161.81 129.308C161.638 129.239 161.482 129.136 161.351 129.005C161.335 128.994 161.317 128.988 161.298 128.988C161.279 128.988 161.26 128.994 161.245 129.005C160.927 129.193 160.572 129.312 160.205 129.354C160.031 129.372 159.854 129.337 159.701 129.253C159.563 129.153 159.456 129.017 159.393 128.859C159.265 128.522 159.185 128.169 159.156 127.809C159.122 127.455 159.109 127.1 159.115 126.744H158.954C158.951 126.878 158.941 127.011 158.923 127.143C158.923 127.209 158.923 127.279 158.888 127.34C158.853 127.4 158.833 127.466 158.848 127.486C158.738 127.528 158.62 127.54 158.504 127.522C158.388 127.495 158.282 127.434 158.202 127.345C158.121 127.255 158.067 127.145 158.045 127.027C158.015 126.896 157.98 126.77 157.944 126.643C157.879 126.391 157.813 126.139 157.753 125.886C157.5 124.877 157.248 123.933 157.101 123.02C157.016 122.578 156.954 122.131 156.915 121.683C156.897 121.263 156.912 120.843 156.96 120.426C157.036 119.613 157.122 118.861 157.207 118.18C157.379 116.828 157.515 115.743 157.611 114.981C157.662 114.617 157.697 114.329 157.722 114.128C157.722 114.037 157.722 113.961 157.722 113.906C157.722 113.85 157.768 113.784 157.768 113.784Z" fill="#FFBF9D"/>
<path d="M125.741 37.5181C128.646 37.5236 131.487 36.6645 133.902 35.0503C133.902 35.0503 132.04 39.5923 125.751 39.1482L125.741 37.5181Z" fill="#A56349"/>
<path opacity="0.3" d="M151.051 71.6893L152.812 71.4521L156.027 85.9009L155.85 89.1207L156.996 94.546L157.379 103.59C157.379 103.59 153.044 89.9938 152.812 86.7488C152.56 83.2665 151.051 71.6692 151.051 71.6692" fill="black"/>
<path d="M72.292 213.81C72.292 213.81 72.8623 217.394 72.8421 218.019L75.3654 220.2L81.8051 218.761L82.335 213.492L72.292 213.81Z" fill="#F4C3AE"/>
<path d="M81.9354 217.969V218.544C81.9354 218.544 91.6705 222.319 91.7967 224.156L72.5586 224.288L72.7756 217.883C74.2063 218.556 75.7653 218.912 77.3461 218.926C78.9269 218.941 80.4923 218.615 81.9354 217.969Z" fill="#E90038"/>
<g opacity="0.6">
<path opacity="0.6" d="M72.5693 224.287L72.6198 222.748L91.0403 223.182C91.0403 223.182 91.8983 223.55 91.8075 224.156L72.5693 224.287Z" fill="white"/>
</g>
<path d="M82.017 218.595C82.017 218.69 81.5426 218.736 81.0833 219.039C80.6241 219.341 80.3818 219.745 80.291 219.705C80.2002 219.664 80.3415 219.124 80.9067 218.766C81.4719 218.408 82.0372 218.509 82.017 218.595Z" fill="#263238"/>
<path d="M84.0407 219.417C84.0407 219.508 83.6572 219.67 83.3392 220.069C83.0213 220.467 82.9355 220.891 82.8346 220.886C82.7336 220.881 82.6781 220.351 83.0818 219.877C83.4856 219.402 84.0357 219.327 84.0407 219.417Z" fill="#263238"/>
<path d="M85.2015 221.825C85.1157 221.825 84.9845 221.375 85.2015 220.861C85.4185 220.346 85.8777 220.134 85.9181 220.215C85.9585 220.295 85.686 220.568 85.4992 220.997C85.3125 221.426 85.2974 221.814 85.2015 221.825Z" fill="#263238"/>
<path d="M93.2402 213.81C93.2402 213.81 93.8105 217.394 93.7903 218.019L96.3137 220.2L102.758 218.761L103.293 213.492L93.2402 213.81Z" fill="#F4C3AE"/>
<path d="M102.89 217.969V218.544C102.89 218.544 112.625 222.319 112.751 224.156L93.5078 224.288L93.7248 217.883C95.1564 218.556 96.7162 218.912 98.2979 218.926C99.8795 218.941 101.446 218.615 102.89 217.969Z" fill="#E90038"/>
<g opacity="0.6">
<path opacity="0.6" d="M93.5186 224.287L93.5741 222.748L111.995 223.182C111.995 223.182 112.853 223.55 112.762 224.156L93.5186 224.287Z" fill="white"/>
</g>
<path d="M102.966 218.595C102.966 218.69 102.497 218.736 102.033 219.039C101.568 219.341 101.331 219.745 101.245 219.705C101.159 219.664 101.296 219.124 101.856 218.766C102.416 218.408 102.986 218.509 102.966 218.595Z" fill="#263238"/>
<path d="M104.989 219.417C104.989 219.508 104.605 219.67 104.287 220.069C103.97 220.467 103.884 220.891 103.783 220.886C103.682 220.881 103.626 220.351 104.03 219.877C104.434 219.402 104.989 219.327 104.989 219.417Z" fill="#263238"/>
<path d="M106.15 221.825C106.069 221.825 105.933 221.375 106.15 220.861C106.367 220.346 106.826 220.134 106.867 220.215C106.907 220.295 106.635 220.568 106.448 220.997C106.261 221.426 106.246 221.814 106.15 221.825Z" fill="#263238"/>
<path d="M109.426 123.974H67.1341L62.7637 143.999L71.4996 215.198H85.0248L88.1184 152.488L91.3736 215.198H105.873L111.964 144.786L109.426 123.974Z" fill="#263238"/>
<path d="M77.0959 214.204C77.0202 214.204 76.8385 201.653 76.6821 186.18C76.5257 170.706 76.46 158.135 76.5156 158.135C76.5711 158.135 76.7729 170.676 76.9243 186.159C77.0757 201.643 77.1666 214.199 77.0959 214.204Z" fill="#455A64"/>
<path d="M98.7514 213.962C98.7469 213.91 98.7469 213.857 98.7514 213.805C98.7514 213.689 98.7767 213.538 98.7968 213.346C98.8423 212.927 98.9028 212.337 98.9886 211.585C99.1602 210.071 99.3924 207.845 99.6548 205.11C99.9172 202.374 100.159 199.114 100.427 195.486C100.694 191.857 100.856 187.87 100.977 183.681C101.098 179.493 101.113 175.491 101.088 171.857C101.063 168.223 100.962 164.953 100.851 162.208C100.74 159.462 100.634 157.237 100.543 155.702C100.508 154.95 100.477 154.36 100.452 153.936C100.452 153.744 100.452 153.593 100.452 153.477C100.449 153.425 100.449 153.372 100.452 153.32C100.468 153.371 100.477 153.424 100.477 153.477L100.523 153.931C100.553 154.355 100.604 154.94 100.664 155.697C100.785 157.211 100.922 159.452 101.053 162.197C101.184 164.943 101.29 168.218 101.345 171.857C101.401 175.496 101.345 179.493 101.255 183.686C101.164 187.88 100.927 191.877 100.684 195.506C100.442 199.134 100.144 202.395 99.8567 205.13C99.569 207.865 99.3116 210.076 99.1047 211.6C98.9987 212.347 98.923 212.932 98.8624 213.351C98.8624 213.543 98.812 213.694 98.7968 213.81C98.7871 213.862 98.7719 213.913 98.7514 213.962Z" fill="#455A64"/>
<path d="M86.5439 59.7239L70.3943 60.597L69.0771 66.6833C69.0771 66.6833 73.5334 70.2614 73.9775 70.4078C74.4216 70.5541 84.5756 71.9723 84.5756 71.9723C84.5756 71.9723 95.5018 66.8801 95.3554 66.9256C95.2091 66.971 86.5439 59.7239 86.5439 59.7239Z" fill="#F4C3AE"/>
<path d="M72.4785 31.538C71.56 30.5842 70.0056 30.7659 68.7036 31.0333C67.9365 31.1432 67.1899 31.366 66.488 31.6945C66.1385 31.8631 65.8297 32.1057 65.5831 32.4055C65.3365 32.7052 65.158 33.055 65.0598 33.4305C64.8327 34.5862 65.6553 35.7318 65.509 36.9027C65.432 37.3103 65.2677 37.6964 65.0272 38.0344C64.7867 38.3725 64.4759 38.6544 64.1161 38.8608C63.3937 39.2705 62.6149 39.5715 61.8047 39.7541C62.2023 40.2563 62.7004 40.67 63.2669 40.969C63.8335 41.2679 64.4561 41.4454 65.0951 41.4901C65.0194 41.909 64.4845 42.0301 64.0858 42.0857C63.6871 42.1412 63.1269 42.3784 63.1875 42.8023C63.2462 43.0133 63.3835 43.1939 63.571 43.307C65.8091 44.9828 68.5666 45.8156 71.3581 45.6587C72.6602 45.583 74.0379 45.2348 74.8908 44.2608C75.7437 43.2868 75.9002 42.0554 75.9002 40.8391C75.8761 39.1673 75.4959 37.5197 74.7849 36.0064C74.0739 34.4931 73.0485 33.1487 71.777 32.0629" fill="#E0E0E0"/>
<path d="M71.7666 32.1434C71.5657 31.3112 71.5584 30.4441 71.7453 29.6087C71.9321 28.7732 72.3081 27.9918 72.8443 27.3245C73.3805 26.6572 74.0626 26.1217 74.8382 25.7594C75.6138 25.3971 76.4621 25.2175 77.318 25.2344C77.9152 25.3184 78.5233 25.2789 79.1045 25.1183C79.5869 24.8458 80.0188 24.4925 80.3814 24.0737C81.5623 23.0037 83.2075 22.6454 84.7771 22.3981C87.0128 22.0449 89.3544 21.843 91.4892 22.5849C93.624 23.3267 95.4963 25.2445 95.5266 27.5054C95.5266 28.5148 95.2086 29.4636 95.1531 30.4527C95.0976 31.4419 95.4256 32.5774 96.324 32.9761C96.9043 33.2486 97.6613 33.1981 98.0752 33.6877C98.2265 33.913 98.3039 34.1798 98.2966 34.4511C98.2894 34.7224 98.1979 34.9847 98.0348 35.2017C97.6856 35.627 97.2483 35.9714 96.7529 36.211C97.1637 36.3218 97.5265 36.5647 97.7856 36.9021C98.0446 37.2396 98.1854 37.6529 98.1862 38.0783C98.1707 38.5034 98.0614 38.9198 97.8659 39.2976C97.6705 39.6755 97.3938 40.0053 97.0557 40.2635C96.3753 40.7734 95.5916 41.1283 94.7595 41.3032C90.8584 42.2772 86.715 41.2729 83.046 39.6327C78.9986 37.8144 75.3323 35.2457 72.241 32.0626L72.5539 31.7043" fill="#E0E0E0"/>
<path d="M70.7676 34.0209C70.8937 33.6626 71.9485 31.2452 72.327 31.2705C72.5945 31.2705 71.9687 33.5314 72.11 33.7635C73.4777 35.9589 73.9117 38.6336 73.7805 41.2176C73.6247 43.7263 73.1879 46.2097 72.4784 48.6211" fill="#E0E0E0"/>
<path d="M72.4783 48.621C71.5713 46.2893 70.8688 43.883 70.3789 41.4294L72.4783 48.621Z" fill="#E0E0E0"/>
<path d="M79.857 69.2671C77.9927 69.2812 76.1969 68.565 74.8538 67.272C73.5108 65.9789 72.7271 64.2115 72.6705 62.348L71.974 39.0322C71.5854 32.7692 74.9061 27.3238 81.1742 27.1118H81.7546C84.5703 27.1823 87.2562 28.3103 89.278 30.2713C91.2998 32.2323 92.5092 34.8826 92.6656 37.6948C92.9734 43.1251 93.2409 49.1256 93.1349 52.0275C92.9129 58.0432 86.877 58.8355 86.877 58.8355C86.877 58.8355 86.877 60.2284 86.9174 61.9948C86.9347 62.9372 86.7653 63.8737 86.419 64.7504C86.0726 65.627 85.5561 66.4265 84.8993 67.1025C84.2425 67.7786 83.4583 68.3179 82.592 68.6894C81.7257 69.0609 80.7945 69.2573 79.8519 69.2671H79.857Z" fill="#FFBF9D"/>
<path d="M86.8874 58.9062C84.107 58.8265 81.4078 57.9508 79.1104 56.3828C79.1104 56.3828 80.912 60.8037 86.9277 60.4202L86.8874 58.9062Z" fill="#CC937F"/>
<path d="M82.668 49.1865C82.8001 49.0433 82.9626 48.9318 83.1437 48.86C83.3247 48.7883 83.5196 48.7582 83.7139 48.7721C83.9081 48.786 84.0967 48.8434 84.2658 48.9401C84.4348 49.0369 84.5798 49.1704 84.6902 49.3309C84.8005 49.4914 84.8733 49.6746 84.9032 49.8671C84.933 50.0595 84.9191 50.2562 84.8626 50.4426C84.806 50.6289 84.7082 50.8001 84.5764 50.9435C84.4446 51.0869 84.2822 51.1987 84.1013 51.2708C83.7656 51.3942 83.3989 51.4048 83.0566 51.3011C82.793 51.2384 82.5562 51.0935 82.3804 50.8872C82.2734 50.7257 82.2086 50.5399 82.1918 50.3468C82.1751 50.1538 82.2069 49.9596 82.2845 49.782C82.4011 49.4833 82.5964 49.2217 82.8497 49.025" fill="#CC937F"/>
<path d="M91.1514 41.7323C91.1488 41.9563 91.0586 42.1704 90.9002 42.3289C90.7418 42.4873 90.5276 42.5775 90.3036 42.5801C90.1939 42.5862 90.0841 42.5703 89.9806 42.5333C89.8772 42.4963 89.7822 42.4389 89.7013 42.3646C89.6204 42.2902 89.5552 42.2005 89.5096 42.1005C89.4639 42.0006 89.4387 41.8925 89.4355 41.7827C89.4394 41.5591 89.53 41.3457 89.6882 41.1875C89.8463 41.0293 90.0597 40.9388 90.2834 40.9349C90.3931 40.9288 90.5029 40.9447 90.6063 40.9817C90.7098 41.0187 90.8048 41.0761 90.8857 41.1504C90.9666 41.2247 91.0318 41.3145 91.0774 41.4144C91.1231 41.5144 91.1482 41.6224 91.1514 41.7323Z" fill="#263238"/>
<path d="M91.3378 40.627C91.2267 40.733 90.5858 40.2384 89.6623 40.2182C88.7387 40.198 88.0473 40.6421 87.9514 40.5311C87.8555 40.4201 88.017 40.2788 88.3198 40.0719C88.7264 39.8039 89.2059 39.6682 89.6925 39.6833C90.1731 39.693 90.638 39.8556 91.0198 40.1476C91.2974 40.3696 91.3882 40.5765 91.3378 40.627Z" fill="#263238"/>
<path d="M82.4962 41.7323C82.4922 41.9568 82.401 42.1709 82.2417 42.3292C82.0825 42.4875 81.8678 42.5775 81.6433 42.5801C81.534 42.5855 81.4247 42.5691 81.3219 42.5317C81.219 42.4944 81.1246 42.4369 81.0443 42.3627C80.9639 42.2884 80.8992 42.1989 80.8538 42.0993C80.8085 41.9997 80.7835 41.8921 80.7803 41.7827C80.7829 41.5587 80.8731 41.3445 81.0315 41.1861C81.1899 41.0277 81.4041 40.9375 81.6281 40.9349C81.7378 40.9288 81.8476 40.9447 81.9511 40.9817C82.0545 41.0187 82.1495 41.0761 82.2304 41.1504C82.3113 41.2247 82.3765 41.3145 82.4222 41.4144C82.4678 41.5144 82.493 41.6224 82.4962 41.7323Z" fill="#263238"/>
<path d="M82.4358 40.632C82.3298 40.7431 81.6889 40.2434 80.7653 40.2232C79.8418 40.2031 79.1504 40.6522 79.0545 40.5361C78.9586 40.4201 79.115 40.2838 79.4178 40.0769C79.8247 39.8096 80.3039 39.6739 80.7905 39.6883C81.272 39.7014 81.7375 39.8636 82.1229 40.1526C82.4004 40.3797 82.4913 40.5816 82.4358 40.632Z" fill="#263238"/>
<path d="M85.4083 47.5763C85.9005 47.4316 86.4095 47.3519 86.9223 47.3391C87.1595 47.3391 87.3866 47.2785 87.427 47.117C87.4543 46.8742 87.4049 46.6289 87.2857 46.4155L86.6094 44.5836C85.701 42.0047 85.05 39.88 85.1509 39.8447C85.2519 39.8094 86.0795 41.8634 86.9829 44.4574C87.205 45.0933 87.4119 45.7039 87.6087 46.2843C87.7533 46.5715 87.7891 46.9013 87.7096 47.2129C87.6738 47.2948 87.6197 47.3674 87.5515 47.4251C87.4832 47.4829 87.4027 47.5242 87.316 47.546C87.1845 47.5814 87.0483 47.5967 86.9123 47.5914C86.4122 47.6475 85.9072 47.6424 85.4083 47.5763Z" fill="#263238"/>
<path d="M82.6731 48.1466C82.8245 48.1466 82.7993 49.1559 83.6421 49.8776C84.4849 50.5993 85.5548 50.5286 85.5598 50.6699C85.5598 50.7305 85.3176 50.8567 84.8684 50.8617C84.2792 50.8534 83.7114 50.6392 83.2636 50.2561C82.8355 49.889 82.5675 49.3693 82.5167 48.8077C82.4864 48.3888 82.6024 48.1415 82.6731 48.1466Z" fill="#263238"/>
<path d="M82.5716 37.0137C82.4707 37.2609 81.5623 37.1196 80.4671 37.2256C79.372 37.3316 78.4939 37.6041 78.3525 37.377C78.292 37.266 78.4484 37.0338 78.8118 36.8017C79.2879 36.508 79.8283 36.3348 80.3864 36.297C80.9421 36.2424 81.5029 36.322 82.0215 36.5292C82.3899 36.7008 82.5716 36.9026 82.5716 37.0137Z" fill="#E0E0E0"/>
<path d="M91.0352 38.0229C90.8687 38.2298 90.2378 38.0229 89.4707 37.9674C88.7036 37.9119 88.0526 38.0734 87.9113 37.8513C87.8457 37.7453 87.9517 37.5384 88.2444 37.3466C88.6284 37.1153 89.0737 37.0061 89.5212 37.0337C89.9722 37.0523 90.4062 37.2111 90.7627 37.4879C91.0251 37.6797 91.1109 37.8967 91.0352 38.0229Z" fill="#E0E0E0"/>
<path d="M72.3522 43.5743C72.2512 43.5288 68.2492 42.252 68.2795 46.3701C68.3097 50.4883 72.438 49.6051 72.443 49.484C72.4481 49.3629 72.3522 43.5743 72.3522 43.5743Z" fill="#F4C3AE"/>
<path d="M71.1764 47.9246C71.1764 47.9246 71.1057 47.9751 70.9846 48.0306C70.8131 48.1007 70.621 48.1007 70.4496 48.0306C70.0106 47.8792 69.6371 47.1878 69.6119 46.4459C69.6032 46.0991 69.6704 45.7547 69.8087 45.4366C69.8453 45.3072 69.9133 45.1888 70.0066 45.092C70.0999 44.9951 70.2157 44.9228 70.3436 44.8814C70.4256 44.8577 70.5133 44.864 70.591 44.8991C70.6687 44.9343 70.7313 44.996 70.7676 45.0732C70.8231 45.1893 70.7979 45.27 70.818 45.2751C70.8382 45.2801 70.9089 45.2094 70.8736 45.0379C70.8461 44.9369 70.7879 44.8469 70.707 44.7805C70.6514 44.7366 70.5871 44.7049 70.5184 44.6876C70.4497 44.6702 70.3781 44.6674 70.3083 44.6795C70.1398 44.715 69.9832 44.793 69.8534 44.906C69.7235 45.0191 69.6247 45.1635 69.5664 45.3255C69.3942 45.682 69.3127 46.0755 69.3292 46.4711C69.3595 47.3038 69.7885 48.076 70.3891 48.2425C70.4993 48.2737 70.6152 48.2794 70.7279 48.2593C70.8407 48.2392 70.9474 48.1938 71.0401 48.1265C71.1663 48.0255 71.1915 47.9347 71.1764 47.9246Z" fill="#CC937F"/>
<path d="M90.0313 31.0786C90.6924 30.7001 88.5173 28.4897 86.8771 27.773C84.384 26.693 80.5939 26.0673 78.3229 26.7637C75.5876 27.5914 73.3317 28.9943 71.9943 31.5177C70.7064 34.0847 70.1262 36.9487 70.3138 39.8145C70.3491 40.6826 68.6988 41.1822 69.1783 41.914C69.7586 42.8022 69.6224 42.3833 70.6166 43.6147C70.8941 43.9629 71.3282 44.3566 71.6259 44.6897C72.4031 45.5829 74.3461 45.7596 74.765 44.9773C75.6308 43.5141 76.1053 41.8525 76.1427 40.1527C76.1781 38.891 76.2033 36.9783 75.8702 35.762C75.745 35.3104 75.6888 34.8425 75.7037 34.3742C75.7051 33.6052 75.9295 32.8532 76.3496 32.2091C76.4614 32.0726 76.5846 31.946 76.7181 31.8306C77.2092 31.411 77.8017 31.1273 78.4365 31.0078C79.0714 30.8882 79.7264 30.937 80.3366 31.1493C82.6833 31.9265 84.5758 33.2084 87.2607 32.0577C87.7211 31.8072 88.1155 31.4508 88.4113 31.0181C88.6367 30.8186 88.9288 30.711 89.2297 30.7166C89.5307 30.7222 89.8185 30.8406 90.0364 31.0484L90.0313 31.0786Z" fill="#E0E0E0"/>
<path d="M76.354 31.9971C77.0182 31.6268 77.7503 31.3944 78.5065 31.3138C79.2627 31.2331 80.0273 31.3059 80.7547 31.5277C81.9811 31.9062 83.0409 32.6935 84.2218 33.1982C85.5486 33.7473 86.9962 33.9389 88.4201 33.7538C89.8441 33.5687 91.1946 33.0135 92.3369 32.1434C92.6697 31.928 92.9535 31.645 93.17 31.3129C93.3864 30.9808 93.5308 30.607 93.5936 30.2156C93.596 29.8847 93.5243 29.5574 93.3837 29.2579C93.2431 28.9583 93.0372 28.6941 92.7811 28.4845C92.2661 28.0719 91.6767 27.7618 91.045 27.5711C88.1487 26.6355 85.0717 26.4003 82.0669 26.8847C79.6495 27.2279 77.1816 27.9799 75.4405 29.6806C75.2012 29.8954 75.0103 30.1586 74.8803 30.4528C74.8147 30.6047 74.7896 30.7709 74.8073 30.9354C74.8249 31.0999 74.8849 31.257 74.9813 31.3915C75.0843 31.5196 75.2337 31.6021 75.3971 31.621C75.5605 31.6399 75.7247 31.5937 75.8543 31.4924" fill="#E0E0E0"/>
<path d="M92.4332 41.4851C92.4332 41.5558 92.2111 41.6415 91.9285 41.7324C91.6459 41.8232 91.4239 41.8989 91.3784 41.8384C91.333 41.7778 91.5349 41.5911 91.8427 41.4851C92.1506 41.3791 92.4282 41.4144 92.4332 41.4851Z" fill="#CC937F"/>
<path d="M92.7864 42.1359C92.7864 42.2065 92.4785 42.2217 92.1252 42.2267C91.772 42.2318 91.4742 42.2267 91.4641 42.1359C91.454 42.045 91.7467 41.9592 92.1252 41.9592C92.5037 41.9592 92.7965 42.0602 92.7864 42.1359Z" fill="#CC937F"/>
<path d="M78.4484 41.7575C78.4484 41.8332 78.0396 41.8483 77.545 41.8483C77.0504 41.8483 76.6467 41.8483 76.6416 41.7575C76.6366 41.6667 77.0353 41.5809 77.545 41.5859C78.0547 41.591 78.4585 41.6868 78.4484 41.7575Z" fill="#CC937F"/>
<path d="M78.3981 42.5901C78.3981 42.6658 78.0348 42.6557 77.6108 42.6557C77.1869 42.6557 76.8437 42.6557 76.8286 42.5952C76.8135 42.5346 77.1617 42.3933 77.6108 42.3933C78.06 42.3933 78.4133 42.5245 78.3981 42.5901Z" fill="#CC937F"/>
<path d="M82.198 43.9377C82.198 43.9377 82.0819 44.1245 81.7842 44.291C81.3914 44.5006 80.9456 44.5901 80.5023 44.5484C80.0566 44.5014 79.6341 44.3261 79.2861 44.0437C79.0287 43.8217 78.9277 43.6349 78.953 43.6147C79.4211 43.9514 79.9594 44.1775 80.5275 44.2759C81.1024 44.287 81.6727 44.1716 82.198 43.9377Z" fill="#CC937F"/>
<path d="M82.6173 43.7357C82.6476 43.8013 82.2085 44.0284 81.608 44.0284C81.429 44.0504 81.2475 44.0363 81.0742 43.9869C80.9008 43.9375 80.7391 43.8538 80.5986 43.7408C80.5986 43.6701 81.0629 43.7711 81.608 43.7408C82.153 43.7105 82.5719 43.6651 82.6173 43.7357Z" fill="#CC937F"/>
<path d="M91.5554 43.1606C91.109 43.4439 90.6018 43.6173 90.0754 43.6664C89.549 43.7155 89.0184 43.639 88.5273 43.4432C88.5273 43.3675 89.2137 43.4836 90.0414 43.4028C90.869 43.3221 91.5251 43.0697 91.5554 43.1606Z" fill="#CC937F"/>
<path d="M91.1055 43.4785C90.7655 43.8572 90.3095 44.1122 89.8089 44.2035C89.3083 44.2949 88.7916 44.2174 88.3398 43.9832C88.8144 44.0055 89.2899 43.9954 89.763 43.9529C90.2204 43.8242 90.6688 43.6658 91.1055 43.4785Z" fill="#CC937F"/>
<path d="M89.1877 36.1456C88.8534 36.2795 88.5016 36.3645 88.143 36.3979C87.2896 36.5241 86.4261 36.5697 85.5641 36.5342C84.702 36.5004 83.8452 36.3838 83.0054 36.1859C82.653 36.131 82.312 36.0184 81.9961 35.8528C81.9961 35.7721 83.5909 36.2011 85.5843 36.2717C87.5778 36.3424 89.1725 36.0648 89.1877 36.1456Z" fill="#CC937F"/>
<path d="M89.8134 35.4239C87.6096 35.8477 85.3453 35.8477 83.1416 35.4239C83.1416 35.3482 84.6556 35.4895 86.4775 35.4895C88.2994 35.4895 89.8033 35.3482 89.8134 35.4239Z" fill="#CC937F"/>
<path d="M85.12 38.4062C85.0443 38.4062 85.0241 38.2144 85.014 38.0075C85.0039 37.8006 85.014 37.6189 85.0897 37.5987C85.1654 37.5786 85.2714 37.7552 85.2764 37.9974C85.2815 38.2397 85.1856 38.4264 85.12 38.4062Z" fill="#CC937F"/>
<path d="M86.3869 38.573C86.3617 38.6386 86.069 38.573 85.9479 38.2298C85.8267 37.8866 85.9731 37.6444 86.0387 37.6797C86.1043 37.715 86.0993 37.9118 86.1901 38.1339C86.2809 38.356 86.4222 38.5275 86.3869 38.573Z" fill="#CC937F"/>
<path d="M82.5362 47.8842C82.5362 47.9599 82.2434 48.0053 81.9861 48.2223C81.7287 48.4394 81.6126 48.727 81.542 48.6866C81.4713 48.6463 81.4713 48.298 81.8195 48.0154C82.1677 47.7328 82.5715 47.8136 82.5362 47.8842Z" fill="#CC937F"/>
<path d="M81.4565 47.8085C81.4565 47.8792 81.2849 47.9196 81.1688 48.0609C81.0528 48.2022 81.0225 48.3536 80.9518 48.3788C80.8812 48.404 80.8711 48.3435 80.8559 48.2425C80.8479 48.1787 80.8541 48.1139 80.8742 48.0529C80.8943 47.9918 80.9277 47.9359 80.972 47.8893C81.0132 47.8393 81.0648 47.799 81.1232 47.7711C81.1816 47.7432 81.2454 47.7284 81.3101 47.7278C81.4111 47.7278 81.4615 47.7732 81.4565 47.8085Z" fill="#CC937F"/>
<path d="M77.5505 63.9175C77.5505 63.9175 77.4294 63.9175 77.2679 63.7762C77.0534 63.5788 76.9143 63.3129 76.8743 63.0242C76.8094 62.6077 76.8265 62.1826 76.9247 61.7726C77.0508 61.3135 77.0508 60.8288 76.9247 60.3696C76.8389 60.1476 76.6724 59.9407 76.5715 59.6782C76.4879 59.4242 76.4879 59.1501 76.5715 58.896C76.6283 58.7067 76.6283 58.5049 76.5715 58.3156C76.5038 58.1483 76.4175 57.9892 76.3141 57.8412C76.224 57.7237 76.1625 57.5868 76.1344 57.4414C76.1064 57.296 76.1126 57.1461 76.1526 57.0035C76.2384 56.7915 76.3797 56.7663 76.3797 56.7814C76.3797 56.7966 76.2888 56.8571 76.2485 57.0287C76.234 57.1562 76.2463 57.2854 76.2845 57.4079C76.3227 57.5304 76.3861 57.6436 76.4705 57.7403C76.5934 57.8953 76.6967 58.0648 76.7784 58.245C76.8489 58.4752 76.8489 58.7213 76.7784 58.9515C76.7099 59.1579 76.7099 59.381 76.7784 59.5874C76.8591 59.7994 77.0206 60.0012 77.1316 60.2738C77.2808 60.7777 77.2808 61.3141 77.1316 61.8181C77.0287 62.201 76.9929 62.5988 77.0257 62.9939C77.0488 63.2535 77.147 63.5008 77.3083 63.7055C77.4647 63.8468 77.5606 63.8973 77.5505 63.9175Z" fill="#CC937F"/>
<path d="M80.1642 64.4173C80.1642 64.4173 80.033 64.4173 79.8513 64.3113C79.6128 64.122 79.4369 63.8653 79.3466 63.5745C79.0221 62.6745 78.7954 61.7422 78.6703 60.7938C78.6445 60.5187 78.6361 60.2422 78.6451 59.9661C78.6621 59.7225 78.6621 59.4779 78.6451 59.2343C78.6451 58.7801 78.1909 58.6237 77.9032 58.3612C77.7619 58.2431 77.6671 58.0785 77.6358 57.8969C77.6277 57.8257 77.6362 57.7535 77.6608 57.686C77.6853 57.6186 77.7251 57.5578 77.7771 57.5083C77.9638 57.3418 78.1202 57.4427 78.1001 57.4528C78.0799 57.4629 77.9688 57.4528 77.8528 57.579C77.8199 57.6195 77.7961 57.6666 77.783 57.7171C77.77 57.7676 77.7679 57.8203 77.7771 57.8717C77.82 58.0113 77.9067 58.1334 78.0244 58.2199C78.1556 58.331 78.3322 58.4167 78.529 58.553C78.6321 58.6306 78.7183 58.7284 78.7825 58.8403C78.8467 58.9522 78.8875 59.0759 78.9025 59.204C78.9227 59.461 78.9227 59.7192 78.9025 59.9762C78.8977 60.2407 78.9078 60.5052 78.9328 60.7685C79.0604 61.6972 79.2578 62.6149 79.5232 63.5139C79.5854 63.7815 79.7158 64.0284 79.9017 64.2306C80.0481 64.3668 80.1692 64.3971 80.1642 64.4173Z" fill="#CC937F"/>
<path d="M81.3203 24.4674C81.3923 24.4175 81.4703 24.3768 81.5525 24.3463C81.7106 24.2689 81.9427 24.173 82.2489 24.0586C83.1179 23.7481 84.021 23.5431 84.9388 23.448C86.3044 23.2992 87.6855 23.3862 89.0216 23.7054C89.8196 23.879 90.5881 24.168 91.3027 24.5633C92.0984 24.9731 92.7458 25.6218 93.1541 26.4183C93.5623 27.2148 93.7108 28.1192 93.5788 29.0044C93.4807 29.8243 93.1939 30.6102 92.741 31.3007C92.326 31.9137 91.7838 32.4301 91.1513 32.8147C90.6064 33.1603 90.0103 33.4175 89.385 33.5767C88.4885 33.8133 87.5556 33.8801 86.6345 33.7736C86.3851 33.7452 86.1374 33.7031 85.8926 33.6474C85.8054 33.634 85.7205 33.6085 85.6403 33.5717C85.6403 33.5717 85.9986 33.6272 86.6497 33.6726C87.5569 33.7342 88.468 33.642 89.3446 33.4001C89.9455 33.2321 90.5174 32.9734 91.0403 32.633C91.6443 32.2512 92.1604 31.7455 92.5543 31.1493C92.9787 30.4861 93.2478 29.7357 93.3416 28.9539C93.4611 28.1191 93.3184 27.2677 92.9333 26.5174C92.5482 25.7671 91.9397 25.1548 91.1917 24.7652C90.4981 24.3807 89.754 24.0953 88.9812 23.9173C87.6702 23.5926 86.314 23.4902 84.9691 23.6145C84.062 23.6868 83.1653 23.8559 82.2943 24.1192C81.6635 24.3513 81.3304 24.4926 81.3203 24.4674Z" fill="white"/>
<path d="M95.3501 27.1321C95.4526 27.4592 95.4648 27.8079 95.3855 28.1414C95.2304 28.9553 94.8611 29.7131 94.3156 30.3367C93.7802 30.9515 93.1599 31.4868 92.4735 31.9265C92.2103 32.1362 91.9179 32.3062 91.6055 32.4311C91.8323 32.1857 92.0882 31.9687 92.3675 31.7852C93.0019 31.3063 93.5883 30.7671 94.1187 30.1753C94.6285 29.5761 94.9945 28.8684 95.1886 28.1061C95.3451 27.5207 95.3047 27.1371 95.3501 27.1321Z" fill="white"/>
<path d="M80.0485 27.8586C78.9101 28.2235 77.823 28.7323 76.8135 29.3727C76.0161 29.948 75.2995 30.5435 75.0724 31.1289C74.9502 31.4505 74.9154 31.7988 74.9715 32.1383C74.9715 32.1383 74.8907 32.0626 74.8453 31.8758C74.7842 31.6074 74.8017 31.3271 74.8958 31.0684C75.1229 30.3871 75.8445 29.7512 76.6621 29.1607C77.3906 28.667 78.193 28.2923 79.0391 28.0504C79.3614 27.9265 79.7032 27.8616 80.0485 27.8586Z" fill="white"/>
<path d="M76.0865 27.0261C76.0865 27.0564 75.8695 27.2482 75.4961 27.556C75.0003 27.9374 74.5706 28.3978 74.2243 28.9186C73.8926 29.4376 73.7401 30.051 73.7903 30.6648C73.8371 30.9202 73.8978 31.173 73.972 31.4218C73.972 31.4218 73.7146 31.2048 73.6086 30.6951C73.4958 30.0298 73.6343 29.3463 73.9972 28.7773C74.3626 28.2365 74.8349 27.7761 75.3851 27.4248C75.5912 27.2482 75.8293 27.1129 76.0865 27.0261Z" fill="white"/>
<path d="M67.8809 34.4496C67.9684 34.1426 68.1275 33.8606 68.3452 33.627C68.8251 33.0199 69.4534 32.5468 70.1694 32.2533C70.8855 31.9598 71.6651 31.8559 72.433 31.9515C72.7527 31.9635 73.0646 32.0536 73.3414 32.2139C73.3414 32.2543 72.9831 32.1635 72.4179 32.1382C71.6838 32.0951 70.9495 32.2174 70.2691 32.496C69.5886 32.7747 68.9794 33.2026 68.4865 33.7481C68.1029 34.162 67.9364 34.49 67.8809 34.4496Z" fill="white"/>
<path d="M70.8841 36.5847C70.7499 36.3668 70.6848 36.1135 70.6974 35.8579C70.6683 35.2398 70.8481 34.6298 71.2079 34.1262C71.5677 33.6227 72.0865 33.255 72.6808 33.0822C72.9179 32.9866 73.179 32.9672 73.4277 33.0267C73.2032 33.1164 72.9741 33.1939 72.7413 33.2589C72.2099 33.4606 71.7501 33.815 71.4196 34.2775C71.0892 34.74 70.9028 35.2898 70.8841 35.8579C70.8967 36.1 70.8967 36.3426 70.8841 36.5847Z" fill="white"/>
<path d="M96.9748 36.3423C96.6827 36.4379 96.3694 36.4484 96.0715 36.3726C95.335 36.2583 94.6563 35.9057 94.1395 35.3688C93.6226 34.8319 93.2961 34.1403 93.21 33.4C93.1476 33.1007 93.1685 32.79 93.2705 32.5017C93.316 32.5017 93.2705 32.8449 93.3917 33.3697C93.5211 34.0529 93.8469 34.6836 94.3291 35.1846C94.8113 35.6857 95.429 36.0353 96.1068 36.1909C96.6317 36.317 96.9698 36.3019 96.9748 36.3423Z" fill="white"/>
<path d="M96.904 38.1894C96.1438 38.3816 95.3442 38.3483 94.6027 38.0935C93.8318 37.9243 93.1289 37.5289 92.584 36.958C93.255 37.2982 93.9479 37.5933 94.6582 37.8412C95.3991 38.0024 96.1491 38.1187 96.904 38.1894Z" fill="white"/>
<path d="M90.293 59.6732C90.9339 59.6732 97.7419 58.7648 101.9 61.5052C106.059 64.2455 117.242 85.462 117.242 85.462C117.242 85.462 120.654 96.7515 115.86 98.9872C111.065 101.223 98.393 108.041 98.393 108.041L95.3044 96.8575L104.04 92.8201V82.0352L90.293 59.6732Z" fill="#455A64"/>
<path d="M104.041 82.9639L108.74 83.2212C110.012 83.2917 111.253 83.6394 112.377 84.24C113.501 84.8407 114.479 85.6797 115.245 86.6984L118.273 90.7661C118.273 90.7661 119.893 92.8706 119.418 93.7941C119.03 94.5511 118.263 94.4906 117.521 93.8244C116.779 93.1583 114.412 89.6811 114.412 89.6811C114.412 89.6811 118.772 95.2627 117.778 96.2923C116.784 97.3218 115.669 95.9693 115.669 95.9693C115.669 95.9693 116.335 98.1192 115.003 97.8971C113.67 97.6751 112.07 95.6766 112.07 95.6766C112.07 95.6766 112.267 96.9332 111.061 96.7868C109.855 96.6405 106.398 91.3061 106.1 91.3061C105.802 91.3061 104.253 91.1597 104.253 91.1597L104.041 82.9639Z" fill="#FFBF9D"/>
<path d="M112.62 87.9099C113.279 88.4959 113.879 89.1449 114.412 89.8479C115.01 90.4952 115.542 91.2002 116.001 91.9523C115.342 91.3664 114.742 90.7173 114.21 90.0144C113.613 89.366 113.081 88.6612 112.62 87.9099Z" fill="#A56349"/>
<path d="M111.237 90.2012C111.505 90.4671 111.745 90.7596 111.954 91.0743C112.373 91.6344 112.963 92.4015 113.609 93.2393C114.255 94.0771 114.871 94.824 115.31 95.369C115.57 95.6447 115.797 95.9495 115.986 96.2774C115.684 96.048 115.409 95.7838 115.169 95.4901C114.694 94.9855 114.058 94.2436 113.402 93.4008C112.746 92.558 112.186 91.7707 111.803 91.1853C111.572 90.883 111.382 90.5522 111.237 90.2012Z" fill="#A56349"/>
<path d="M109.643 92.5781C110.222 92.9635 110.717 93.4633 111.096 94.0467C111.55 94.5769 111.894 95.1931 112.105 95.8585C112.04 95.8938 111.575 95.1015 110.899 94.2032C110.453 93.6831 110.034 93.1407 109.643 92.5781Z" fill="#A56349"/>
<path d="M101.027 70.7358C100.982 70.7358 101.058 70.1706 101.027 69.2672C100.98 68.096 100.749 66.9395 100.341 65.8405C99.9259 64.7448 99.3381 63.7225 98.6 62.8125C98.0297 62.116 97.5906 61.7426 97.636 61.7072C97.6815 61.6719 97.7622 61.7729 97.959 61.9343C98.2383 62.1668 98.4997 62.4199 98.7413 62.6914C99.5381 63.5898 100.164 64.6262 100.588 65.7497C101.014 66.8782 101.227 68.0762 101.214 69.2824C101.211 69.6441 101.18 70.0051 101.123 70.3624C101.112 70.4913 101.08 70.6175 101.027 70.7358Z" fill="#263238"/>
<path d="M71.499 67.0518C71.499 67.0518 77.651 70.5845 82.3192 69.5752C85.2954 68.8327 88.0374 67.3541 90.293 65.2754L98.5495 84.1754L93.6592 122.026L78.9076 123.949L74.0173 88.0412L71.499 67.0518Z" fill="#FAFAFA"/>
<path d="M71.0397 60.3799L67.8351 61.5053L61.9102 100.153C61.9102 100.153 57.3379 116.247 57.7366 123.202C58.1352 130.156 61.8799 151.695 61.8799 151.695L88.9102 148.849L87.7898 106.557C87.7898 106.557 89.7378 94.3847 83.9644 87.0165C78.1909 79.6483 71.0397 60.3799 71.0397 60.3799Z" fill="#455A64"/>
<path d="M86.5439 59.5269C86.9174 60.0618 92.8271 82.5197 92.1912 87.2485C91.5553 91.9773 88.1135 101.884 88.1135 101.884V148.708L111.964 146.527C111.964 146.527 113.917 129.434 111.964 121.248C110.011 113.063 107.165 103.368 107.165 103.368L105.282 74.7882L93.2813 59.5269H86.5439Z" fill="#455A64"/>
<path d="M113.125 136.071C113.076 136.053 113.031 136.029 112.988 136L112.605 135.768C112.262 135.561 111.767 135.263 111.091 134.91C110.289 134.482 109.42 134.19 108.522 134.047C107.964 133.972 107.397 133.994 106.847 134.113C106.234 134.27 105.649 134.519 105.11 134.849C104.54 135.193 103.975 135.612 103.385 136.051L101.537 137.413C100.261 138.347 98.9081 139.361 97.4546 140.406C96.7189 140.975 95.8506 141.349 94.9312 141.491C93.9547 141.518 92.9869 141.301 92.1152 140.86C90.3438 140.058 88.5118 139.26 86.5991 138.508C85.6402 138.135 84.6965 137.761 83.7527 137.454C82.836 137.128 81.8692 136.965 80.8963 136.974C79.9619 137.027 79.0583 137.327 78.2771 137.842C77.5222 138.339 76.8234 138.916 76.1928 139.563C74.926 140.795 73.7703 142.086 72.3371 142.859C72.1641 142.957 71.9835 143.041 71.7971 143.111C71.62 143.197 71.4338 143.263 71.2419 143.308C70.8777 143.428 70.4994 143.501 70.1165 143.525C69.4056 143.567 68.6922 143.523 67.9918 143.394C65.8918 142.995 63.8549 142.316 61.9358 141.375C61.2494 141.062 60.7245 140.8 60.3713 140.623L59.9675 140.421C59.8767 140.371 59.8313 140.345 59.8363 140.34L59.9827 140.396L60.3915 140.577L61.9761 141.284C63.9049 142.182 65.9399 142.831 68.0322 143.217C68.7199 143.339 69.4198 143.376 70.1165 143.328C70.4844 143.303 70.8474 143.23 71.1965 143.111C71.371 143.065 71.5402 143.001 71.7012 142.919C71.8744 142.847 72.0429 142.765 72.2058 142.672C73.5886 141.925 74.7292 140.653 75.9959 139.397C76.6367 138.733 77.3474 138.141 78.1156 137.63C78.9322 137.093 79.8753 136.78 80.8509 136.722C81.857 136.716 82.8563 136.886 83.8032 137.226C84.7621 137.544 85.7058 137.918 86.6647 138.286C88.5774 139.038 90.4245 139.846 92.1858 140.648C93.0172 141.074 93.9418 141.286 94.8757 141.264C95.7593 141.14 96.5966 140.793 97.3082 140.255L101.401 137.287L103.253 135.94C103.818 135.511 104.404 135.112 105.01 134.743C105.564 134.404 106.169 134.153 106.801 134.002C107.371 133.882 107.957 133.865 108.532 133.951C109.445 134.104 110.325 134.415 111.131 134.87C111.641 135.145 112.137 135.446 112.615 135.773L112.988 136.025C113.084 136.035 113.13 136.066 113.125 136.071Z" fill="#FAFAFA"/>
<path d="M80.9925 100.143C81.1237 100.098 85.2368 97.8468 86.2764 97.7156C87.316 97.5844 95.4009 97.2109 95.4009 97.2109L97.5609 105.038C97.5609 105.038 90.8235 108.304 89.7839 108.571C88.7443 108.839 84.3284 110.433 83.5915 110.433C82.8547 110.433 80.7755 109.737 80.7755 109.263C80.7658 109.137 80.7885 109.011 80.8415 108.897C80.8946 108.783 80.9761 108.685 81.0783 108.611C82.0203 108.646 82.9634 108.588 83.8944 108.44C84.3819 108.266 84.8588 108.064 85.3226 107.834C85.3226 107.834 77.919 108.96 77.3992 108.783C76.8794 108.606 76.4908 107.526 76.4908 107.526C76.4908 107.526 75.6228 106.921 75.537 106.361C75.4512 105.8 75.754 105.538 76.2284 105.321C76.7028 105.104 79.9074 103.676 80.8613 103.413C81.8151 103.151 84.3284 102.722 84.3284 102.722C84.3284 102.722 76.7028 103.545 76.2536 103.328C75.8044 103.111 75.2443 102.288 76.0366 101.814C76.9833 101.206 78.0208 100.753 79.1101 100.471C79.9529 100.315 80.9925 100.143 80.9925 100.143Z" fill="#FFBF9D"/>
<path d="M86.4126 104.801C85.9578 105.044 85.4792 105.24 84.9844 105.386C84.0861 105.704 82.8295 106.098 81.4164 106.456C80.0033 106.815 78.7113 107.057 77.7727 107.203C77.2657 107.306 76.7505 107.362 76.2334 107.37C76.7282 107.214 77.2344 107.098 77.7474 107.022C78.676 106.83 79.9579 106.552 81.3659 106.199C82.774 105.846 84.0255 105.482 84.939 105.19C85.4201 105.024 85.9126 104.895 86.4126 104.801Z" fill="#CC937F"/>
<path d="M85.7011 98.9722C84.9602 99.2728 84.1884 99.4911 83.3998 99.6232C82.6309 99.8402 81.8406 99.9722 81.043 100.017C81.7839 99.7162 82.5556 99.4979 83.3443 99.3658C84.1133 99.1495 84.9035 99.0175 85.7011 98.9722Z" fill="#CC937F"/>
<path d="M95.5618 100.32C95.4605 100.342 95.3575 100.355 95.2539 100.36C94.9828 100.424 94.7226 100.528 94.4818 100.668C94.1063 100.907 93.6749 101.044 93.2302 101.066C92.7255 101.036 92.2208 100.754 91.8171 101.097C91.6153 101.288 91.3937 101.457 91.156 101.601C90.9006 101.707 90.6191 101.734 90.3485 101.677C89.8438 101.576 89.4704 101.384 89.1222 101.364C88.8565 101.334 88.5897 101.41 88.3803 101.576C88.239 101.702 88.2087 101.818 88.1885 101.808C88.1683 101.798 88.1885 101.677 88.3046 101.506C88.4103 101.394 88.5391 101.307 88.6821 101.25C88.8251 101.193 88.9787 101.169 89.1322 101.177C89.5544 101.237 89.9724 101.323 90.3838 101.435C90.6063 101.478 90.8366 101.453 91.045 101.364C91.2646 101.223 91.4722 101.065 91.6657 100.89C91.7867 100.793 91.9283 100.726 92.0795 100.693C92.2248 100.668 92.3733 100.668 92.5186 100.693C92.7911 100.733 93.0233 100.814 93.2453 100.829C93.6507 100.815 94.0469 100.704 94.401 100.506C94.6635 100.371 94.9498 100.289 95.2438 100.264C95.4558 100.254 95.5668 100.304 95.5618 100.32Z" fill="#CC937F"/>
<path d="M95.6424 101.925C95.4277 102.208 95.1236 102.411 94.7794 102.5C94.4153 102.628 94.0262 102.667 93.6439 102.616C93.4417 102.572 93.2347 102.555 93.0282 102.565C92.9301 102.583 92.8372 102.622 92.7567 102.681C92.6762 102.739 92.6103 102.816 92.5639 102.904C92.4235 103.129 92.2067 103.295 91.9532 103.373C91.7221 103.423 91.4829 103.423 91.2517 103.373C90.9013 103.284 90.5429 103.23 90.1818 103.211C89.9504 103.219 89.7297 103.31 89.5611 103.469C89.45 103.59 89.4248 103.686 89.3996 103.681C89.3743 103.676 89.3743 103.57 89.4803 103.408C89.5618 103.3 89.6649 103.21 89.7831 103.144C89.9013 103.078 90.0319 103.037 90.1667 103.025C90.5433 103.014 90.9198 103.052 91.2871 103.136C91.4856 103.182 91.6936 103.168 91.8837 103.094C92.0738 103.02 92.237 102.89 92.3519 102.722C92.4269 102.615 92.515 102.519 92.6143 102.434C92.7265 102.351 92.8589 102.298 92.9979 102.283C93.2269 102.274 93.4561 102.296 93.6792 102.348C94.0287 102.408 94.3867 102.39 94.7289 102.298C95.0421 102.196 95.3473 102.071 95.6424 101.925Z" fill="#CC937F"/>
<path d="M73.0179 105.286C72.8347 105.318 72.6481 105.326 72.4628 105.311C72.2437 105.312 72.0247 105.302 71.8067 105.281C71.5544 105.255 71.2617 105.24 70.9437 105.185C70.1977 105.068 69.4608 104.899 68.7383 104.68C67.8544 104.407 66.9881 104.08 66.1443 103.701C64.624 102.999 63.164 102.174 61.7789 101.233C61.2439 100.875 60.825 100.577 60.5374 100.36C60.38 100.259 60.2359 100.139 60.1084 100.002C60.2882 100.069 60.458 100.161 60.6131 100.274L61.8798 101.107C63.2851 101.996 64.7467 102.794 66.2553 103.494C67.0877 103.876 67.9402 104.213 68.8089 104.503C69.5185 104.728 70.2416 104.906 70.974 105.038C72.2256 105.225 73.023 105.235 73.0179 105.286Z" fill="#263238"/>
<path d="M78.227 111.988C77.9417 111.954 77.6598 111.897 77.3842 111.816C77.0543 111.747 76.729 111.658 76.4101 111.549C76.0316 111.433 75.5976 111.312 75.1384 111.13C74.0462 110.729 72.9793 110.262 71.9438 109.732C70.6825 109.071 69.4592 108.34 68.2799 107.542C66.1505 106.07 64.1468 104.424 62.2894 102.621C61.5778 101.935 61.0176 101.359 60.6442 100.951C60.4406 100.749 60.2533 100.531 60.084 100.3C60.3109 100.474 60.5236 100.666 60.7199 100.875C61.1135 101.263 61.6939 101.819 62.4206 102.485C64.303 104.239 66.3101 105.855 68.4262 107.32C69.5975 108.111 70.8086 108.842 72.0548 109.51C73.0763 110.049 74.1278 110.529 75.204 110.948C75.6582 111.14 76.0821 111.276 76.4505 111.407C76.8189 111.539 77.1419 111.64 77.4094 111.715C77.6882 111.786 77.9614 111.877 78.227 111.988Z" fill="#263238"/>
<path d="M106.392 91.6494C105.888 91.952 105.361 92.2168 104.818 92.4418C103.808 92.901 102.451 93.5167 100.922 94.1677C99.3925 94.8188 97.9996 95.389 96.9802 95.7726C96.4755 95.9644 96.0516 96.1158 95.7639 96.2117C95.6182 96.2759 95.4632 96.3168 95.3047 96.3328C95.8225 96.0529 96.3587 95.8084 96.9095 95.601L100.821 93.9255L104.742 92.2702C105.276 92.0217 105.827 91.8142 106.392 91.6494Z" fill="#263238"/>
<path d="M96.2588 70.4734C96.2588 70.4734 96.3294 70.5289 96.4405 70.65L96.9149 71.19C97.3287 71.6493 97.9242 72.3053 98.7317 73.0876C99.5392 73.8698 100.473 74.7833 101.497 75.8431C102.626 76.983 103.622 78.2478 104.465 79.613C105.288 81.0076 105.829 82.5512 106.054 84.1551C106.246 85.6237 106.307 86.9459 106.357 88.0562C106.408 89.1665 106.418 90.0749 106.423 90.6906C106.423 90.9782 106.423 91.1952 106.423 91.4072C106.429 91.4921 106.42 91.5774 106.398 91.6595C106.378 91.5769 106.368 91.4922 106.367 91.4072C106.367 91.2154 106.352 90.9782 106.322 90.6956C106.287 90.0345 106.236 89.1463 106.176 88.0663C106.115 86.9863 106.024 85.6388 105.817 84.1904C105.584 82.6255 105.049 81.1208 104.243 79.7594C103.412 78.4101 102.434 77.1575 101.326 76.0248C100.316 74.9549 99.3676 74.0364 98.6005 73.2289C97.8334 72.4214 97.2328 71.7452 96.8392 71.2657L96.4051 70.6954C96.3468 70.6282 96.2976 70.5535 96.2588 70.4734Z" fill="#263238"/>
<path d="M115.376 99.1992C115.135 99.3638 114.884 99.5122 114.624 99.6433L112.524 100.784C110.748 101.733 108.285 103.03 105.56 104.443C102.759 105.901 100.225 107.198 98.4287 108.102L98.3278 108.157L98.2975 108.046C98.0654 107.143 97.8736 106.396 97.7323 105.831C97.6521 105.565 97.593 105.293 97.5557 105.018C97.6688 105.272 97.76 105.536 97.8282 105.805C97.9897 106.366 98.2117 107.102 98.4742 108.001L98.343 107.94C100.119 106.991 102.638 105.664 105.439 104.211C108.24 102.757 110.642 101.526 112.438 100.617L114.573 99.5525C114.83 99.4118 115.098 99.2936 115.376 99.1992Z" fill="#263238"/>
<path d="M88.7843 108.904C88.7965 109.04 88.7965 109.177 88.7843 109.313C88.7843 109.601 88.7338 109.989 88.6935 110.474C88.5976 111.483 88.5269 112.942 88.4361 114.748C88.2746 118.357 88.2292 123.328 88.3149 128.879C88.4007 134.431 88.5723 139.392 88.7187 143.01C88.7893 144.797 88.8499 146.255 88.8903 147.29C88.8903 147.794 88.9206 148.168 88.9306 148.455C88.9439 148.591 88.9439 148.728 88.9306 148.864C88.9025 148.731 88.8856 148.596 88.8802 148.461C88.8802 148.168 88.8247 147.784 88.7893 147.3C88.7187 146.29 88.6278 144.827 88.532 143.02C88.3402 139.407 88.1333 134.41 88.0525 128.889C87.9718 123.368 88.0525 118.367 88.2493 114.759C88.3654 112.952 88.4613 111.488 88.5925 110.484C88.648 109.979 88.6934 109.616 88.7288 109.328C88.7344 109.186 88.753 109.044 88.7843 108.904Z" fill="#263238"/>
<path d="M67.8355 61.5054C67.8355 61.5054 58.9179 65.3106 56.1675 71.3414C53.417 77.3723 47.7748 96.5195 47.6435 100.057C47.5123 103.595 54.068 114.612 54.068 114.612L64.429 108.051L62.4607 103.201L65.6048 82.3534L67.8355 61.5054Z" fill="#455A64"/>
<path d="M63.581 223.369C63.4155 223.369 63.2517 223.336 63.0989 223.273C62.9461 223.209 62.8074 223.116 62.6906 222.999C62.5739 222.882 62.4814 222.743 62.4186 222.59C62.3557 222.437 62.3237 222.273 62.3244 222.107C62.3244 221.098 62.4808 120.32 62.4354 118.69C62.3395 115.218 60.2249 113.643 60.1341 113.557C59.8733 113.359 59.7001 113.067 59.651 112.743C59.6019 112.419 59.6807 112.088 59.8709 111.821C60.061 111.554 60.3476 111.372 60.6698 111.313C60.9921 111.253 61.3249 111.322 61.5976 111.503C61.7288 111.599 64.8275 113.84 64.9587 118.619C65.0042 120.285 64.8528 217.954 64.8477 222.107C64.8464 222.442 64.7123 222.763 64.4749 223C64.2375 223.236 63.9161 223.369 63.581 223.369Z" fill="#263238"/>
<path d="M56.4199 126.184C56.0857 126.182 55.7661 126.047 55.5307 125.81C55.2953 125.572 55.1633 125.252 55.1633 124.917C55.1633 121.173 55.1633 115.485 55.1633 115.152C55.1516 114.988 55.1726 114.823 55.225 114.667C55.2774 114.511 55.3602 114.367 55.4686 114.243C55.577 114.119 55.7088 114.018 55.8565 113.945C56.0042 113.873 56.1648 113.83 56.3291 113.82C56.6656 113.802 56.9957 113.916 57.2486 114.139C57.5015 114.362 57.657 114.675 57.6816 115.011C57.6816 115.066 57.6816 115.243 57.6816 124.923C57.6816 125.257 57.5487 125.578 57.3121 125.815C57.0754 126.051 56.7545 126.184 56.4199 126.184Z" fill="#263238"/>
<path d="M58.3477 108.258L55.9051 110.398C55.2945 110.933 54.5273 115.667 54.5273 115.667C54.5273 115.667 57.2021 118.528 58.3477 118.645C59.0904 118.685 59.8224 118.454 60.4068 117.993C60.4068 117.993 61.5524 118.645 62.2438 118.074C62.9352 117.504 61.2849 113.795 61.2849 113.795C61.2849 113.795 60.6692 112.003 62.4103 112.114L63.1572 113.456L65.0296 116.661C65.0296 116.661 66.1752 116.505 66.367 115.934C66.5587 115.364 65.8623 113.456 65.8623 113.456C66.077 113.127 66.2187 112.755 66.2779 112.366C66.3371 111.977 66.3124 111.579 66.2055 111.201C65.7866 110.09 65.1002 108.067 63.0765 107.612C61.0528 107.158 58.3477 108.258 58.3477 108.258Z" fill="#FFBF9D"/>
<path d="M60.3154 117.534C60.2801 117.559 59.9723 117.156 59.407 116.565C58.6678 115.804 57.8469 115.127 56.9594 114.546C56.6933 114.363 56.4668 114.128 56.2932 113.855C56.1424 113.579 56.0874 113.262 56.1367 112.952C56.2306 112.456 56.4574 111.996 56.7928 111.619C57.0603 111.296 57.2975 111.054 57.4186 110.872C57.5397 110.691 57.6306 110.59 57.6457 110.6C57.4856 111.018 57.2475 111.401 56.9442 111.73C56.6513 112.092 56.4566 112.523 56.379 112.982C56.3409 113.237 56.3889 113.498 56.5152 113.724C56.6726 113.965 56.8768 114.173 57.1158 114.334C58.0165 114.931 58.833 115.645 59.5433 116.459C59.8545 116.775 60.1149 117.138 60.3154 117.534Z" fill="#CC937F"/>
<path d="M63.7021 111.523C63.7576 111.574 63.4548 111.952 63.3286 112.502C63.2025 113.053 63.2782 113.512 63.2075 113.547C63.1369 113.582 62.9148 113.073 63.0712 112.442C63.2277 111.811 63.6567 111.468 63.7021 111.523Z" fill="#CC937F"/>
<path d="M50.0557 98.2301C50.2941 98.2107 50.5338 98.2107 50.7723 98.2301C51.0044 98.2301 51.277 98.2301 51.6151 98.2301L52.7254 98.3714C53.1392 98.4269 53.5732 98.5582 54.0527 98.6641C54.2899 98.7247 54.522 98.8206 54.7693 98.9064C55.0261 98.9854 55.2773 99.0815 55.5213 99.194C56.617 99.6791 57.6368 100.32 58.5493 101.097C59.4531 101.872 60.2842 102.729 61.0323 103.655C61.7287 104.498 62.3142 105.285 62.8138 105.936C63.3134 106.587 63.7222 107.122 64.0099 107.45C64.1708 107.629 64.3161 107.822 64.4439 108.026C64.2589 107.875 64.0898 107.706 63.9392 107.521C63.6263 107.178 63.1923 106.668 62.6775 106.007C62.1628 105.346 61.5521 104.594 60.8506 103.766C60.1023 102.857 59.2785 102.013 58.3878 101.243C57.4983 100.481 56.5062 99.8471 55.4405 99.3606C55.2043 99.2488 54.9616 99.151 54.7138 99.0679C54.4715 98.9821 54.2444 98.8812 54.0123 98.8155C53.5429 98.7045 53.119 98.5683 52.7153 98.4976L51.6201 98.321C51.2972 98.2856 51.0196 98.2755 50.7874 98.2554C50.5433 98.2734 50.298 98.265 50.0557 98.2301Z" fill="#263238"/>
<path d="M63.7023 80.3601C63.6842 80.6585 63.6454 80.9553 63.5862 81.2483C63.4954 81.8136 63.3541 82.6311 63.1724 83.6405C62.7787 85.6995 62.2539 88.4651 61.6584 91.5184C61.0629 94.5717 60.6137 97.3878 60.321 99.4216C60.1797 100.401 60.0636 101.213 59.9778 101.824C59.9505 102.121 59.9016 102.417 59.8315 102.707C59.8228 102.409 59.838 102.11 59.8769 101.814C59.9223 101.238 60.0131 100.416 60.1343 99.3964C60.3815 97.3777 60.8206 94.5515 61.401 91.4679C61.9814 88.3844 62.5668 85.6188 62.9806 83.6052L63.4853 81.2281C63.5337 80.9333 63.6063 80.643 63.7023 80.3601Z" fill="#263238"/>
<path d="M66.1596 224.288H61.4258L62.3039 220.523H65.1048L66.1596 224.288Z" fill="#455A64"/>
</svg>
