<svg width="16" height="16" viewBox="0 0 16 16" fill="none" xmlns="http://www.w3.org/2000/svg">
<path d="M12.9074 3.03004C12.2656 2.38378 11.5016 1.87151 10.6599 1.52301C9.81815 1.17451 8.91548 0.996745 8.00438 1.00005C6.78636 1.00123 5.59004 1.32221 4.53521 1.93085C3.48038 2.53948 2.60407 3.41439 1.99404 4.46798C1.38402 5.52156 1.06169 6.71683 1.05933 7.93407C1.05697 9.15132 1.37467 10.3478 1.98061 11.4038L1 15L4.6773 14.0375C5.69271 14.6021 6.83368 14.9029 7.99562 14.9125C9.84273 14.9126 11.6151 14.1835 12.9269 12.884C14.2387 11.5844 14.9838 9.81965 15 7.97377C14.9938 7.05267 14.8058 6.14183 14.4467 5.29349C14.0877 4.44514 13.5646 3.67596 12.9074 3.03004ZM8.00438 13.7138C6.96921 13.7144 5.95298 13.4363 5.06254 12.9088L4.85241 12.7775L2.6723 13.355L3.25016 11.2288L3.11007 11.01C2.3652 9.80835 2.0872 8.37539 2.32875 6.9826C2.5703 5.58981 3.31461 4.33393 4.42068 3.45286C5.52675 2.57179 6.91776 2.12674 8.3302 2.20202C9.74263 2.27729 11.0784 2.86766 12.0844 3.86129C13.1841 4.93595 13.8136 6.40182 13.8355 7.93877C13.8217 9.4752 13.2012 10.944 12.1092 12.0255C11.0171 13.1071 9.54183 13.7138 8.00438 13.7138ZM11.1651 9.39127C10.99 9.30377 10.1407 8.88377 9.98312 8.83127C9.82552 8.77877 9.70294 8.74377 9.58912 8.91877C9.41782 9.15334 9.23368 9.37827 9.03752 9.59252C8.94121 9.71502 8.83615 9.72377 8.66104 9.59252C7.66268 9.19822 6.83087 8.47201 6.30582 7.53627C6.12195 7.23003 6.48093 7.24753 6.81363 6.59128C6.83819 6.54397 6.85101 6.49145 6.85101 6.43815C6.85101 6.38485 6.83819 6.33234 6.81363 6.28503C6.81363 6.19753 6.41964 5.34003 6.27955 4.99878C6.13946 4.65753 5.99937 4.71003 5.88555 4.70128H5.54409C5.45562 4.70264 5.36846 4.72286 5.28843 4.76058C5.20841 4.79831 5.13736 4.85267 5.08005 4.92003C4.88359 5.11094 4.73037 5.34171 4.63068 5.59679C4.531 5.85187 4.48719 6.12534 4.50219 6.39878C4.55709 7.05334 4.80376 7.67724 5.21138 8.19252C5.95753 9.30882 6.98004 10.2131 8.17949 10.8175C8.80854 11.1845 9.53963 11.338 10.2633 11.255C10.5043 11.2072 10.7325 11.1093 10.9331 10.9676C11.1337 10.8259 11.3023 10.6436 11.4278 10.4325C11.544 10.1749 11.5806 9.88852 11.5328 9.61002C11.454 9.52252 11.3402 9.47877 11.1651 9.39127Z" fill="black"/>
</svg>
